STARTFONT 2.1
COMMENT "Copyright by Hugo Chargois"
COMMENT "Licensed under the WTFPL"
FONT -Gohu-Gohufont-Medium-R-Normal--14-100-100-100-C-80-ISO8859-1
SIZE 14 100 100
FONTBOUNDINGBOX 8 14 0 -3
STARTPROPERTIES 31
FOUNDRY "Gohu"
FAMILY_NAME "GohuFont"
WEIGHT_NAME "Medium"
SLANT "R"
SETWIDTH_NAME "Normal"
ADD_STYLE_NAME ""
PIXEL_SIZE 14
POINT_SIZE 100
RESOLUTION_X 100
RESOLUTION_Y 100
SPACING "C"
AVERAGE_WIDTH 80
CHARSET_REGISTRY "ISO8859"
CHARSET_ENCODING "1"
FONTNAME_REGISTRY ""
FONT_NAME "GohuFont"
FACE_NAME "GohuFont"
FONT_VERSION "001.000"
FONT_ASCENT 11
FONT_DESCENT 3
UNDERLINE_POSITION -1
UNDERLINE_THICKNESS 1
X_HEIGHT 7
CAP_HEIGHT 9
RAW_ASCENT 785
RAW_DESCENT 215
NORM_SPACE 8
FIGURE_WIDTH 8
AVG_LOWERCASE_WIDTH 80
AVG_UPPERCASE_WIDTH "80"
_GBDFED_INFO "Edited with gbdfed 1.6."
ENDPROPERTIES
CHARS 191
STARTCHAR space
ENCODING 32
SWIDTH 411 0
DWIDTH 8 0
BBX 8 14 0 -3
BITMAP
00
00
00
00
00
00
00
00
00
00
00
00
00
00
ENDCHAR
STARTCHAR exclam
ENCODING 33
SWIDTH 411 0
DWIDTH 8 0
BBX 8 14 0 -3
BITMAP
00
10
10
10
10
10
10
10
00
10
10
00
00
00
ENDCHAR
STARTCHAR quotedbl
ENCODING 34
SWIDTH 411 0
DWIDTH 8 0
BBX 8 14 0 -3
BITMAP
00
24
24
24
00
00
00
00
00
00
00
00
00
00
ENDCHAR
STARTCHAR numbersign
ENCODING 35
SWIDTH 411 0
DWIDTH 8 0
BBX 8 14 0 -3
BITMAP
00
28
28
28
FE
28
28
FE
28
28
28
00
00
00
ENDCHAR
STARTCHAR dollar
ENCODING 36
SWIDTH 411 0
DWIDTH 8 0
BBX 8 14 0 -3
BITMAP
10
10
7C
92
90
90
7C
12
12
92
7C
10
10
00
ENDCHAR
STARTCHAR percent
ENCODING 37
SWIDTH 411 0
DWIDTH 8 0
BBX 8 14 0 -3
BITMAP
00
00
64
94
68
08
10
10
20
2C
52
4C
00
00
ENDCHAR
STARTCHAR ampersand
ENCODING 38
SWIDTH 411 0
DWIDTH 8 0
BBX 8 14 0 -3
BITMAP
00
18
24
24
18
30
4A
44
44
44
3A
00
00
00
ENDCHAR
STARTCHAR quotesingle
ENCODING 39
SWIDTH 411 0
DWIDTH 8 0
BBX 8 14 0 -3
BITMAP
00
10
10
10
10
00
00
00
00
00
00
00
00
00
ENDCHAR
STARTCHAR parenleft
ENCODING 40
SWIDTH 411 0
DWIDTH 8 0
BBX 8 14 0 -3
BITMAP
00
08
10
20
20
40
40
40
40
20
20
10
08
00
ENDCHAR
STARTCHAR parenright
ENCODING 41
SWIDTH 411 0
DWIDTH 8 0
BBX 8 14 0 -3
BITMAP
00
20
10
08
08
04
04
04
04
08
08
10
20
00
ENDCHAR
STARTCHAR asterisk
ENCODING 42
SWIDTH 411 0
DWIDTH 8 0
BBX 8 14 0 -3
BITMAP
00
00
00
10
92
54
38
54
92
10
00
00
00
00
ENDCHAR
STARTCHAR plus
ENCODING 43
SWIDTH 411 0
DWIDTH 8 0
BBX 8 14 0 -3
BITMAP
00
00
00
10
10
10
FE
10
10
10
00
00
00
00
ENDCHAR
STARTCHAR comma
ENCODING 44
SWIDTH 411 0
DWIDTH 8 0
BBX 8 14 0 -3
BITMAP
00
00
00
00
00
00
00
00
00
30
30
10
20
00
ENDCHAR
STARTCHAR hyphen
ENCODING 45
SWIDTH 411 0
DWIDTH 8 0
BBX 8 14 0 -3
BITMAP
00
00
00
00
00
00
7E
00
00
00
00
00
00
00
ENDCHAR
STARTCHAR period
ENCODING 46
SWIDTH 411 0
DWIDTH 8 0
BBX 8 14 0 -3
BITMAP
00
00
00
00
00
00
00
00
00
30
30
00
00
00
ENDCHAR
STARTCHAR slash
ENCODING 47
SWIDTH 411 0
DWIDTH 8 0
BBX 8 14 0 -3
BITMAP
02
02
04
04
08
08
10
10
20
20
40
40
00
00
ENDCHAR
STARTCHAR zero
ENCODING 48
SWIDTH 411 0
DWIDTH 8 0
BBX 8 14 0 -3
BITMAP
00
00
3C
42
46
4A
52
62
42
42
3C
00
00
00
ENDCHAR
STARTCHAR one
ENCODING 49
SWIDTH 411 0
DWIDTH 8 0
BBX 8 14 0 -3
BITMAP
00
00
08
18
28
48
08
08
08
08
08
00
00
00
ENDCHAR
STARTCHAR two
ENCODING 50
SWIDTH 411 0
DWIDTH 8 0
BBX 8 14 0 -3
BITMAP
00
00
3C
42
42
04
08
10
20
40
7E
00
00
00
ENDCHAR
STARTCHAR three
ENCODING 51
SWIDTH 411 0
DWIDTH 8 0
BBX 8 14 0 -3
BITMAP
00
00
3C
42
02
02
1C
02
02
42
3C
00
00
00
ENDCHAR
STARTCHAR four
ENCODING 52
SWIDTH 411 0
DWIDTH 8 0
BBX 8 14 0 -3
BITMAP
00
00
04
0C
14
24
44
7E
04
04
04
00
00
00
ENDCHAR
STARTCHAR five
ENCODING 53
SWIDTH 411 0
DWIDTH 8 0
BBX 8 14 0 -3
BITMAP
00
00
7E
40
40
7C
02
02
02
42
3C
00
00
00
ENDCHAR
STARTCHAR six
ENCODING 54
SWIDTH 411 0
DWIDTH 8 0
BBX 8 14 0 -3
BITMAP
00
00
3C
40
40
7C
42
42
42
42
3C
00
00
00
ENDCHAR
STARTCHAR seven
ENCODING 55
SWIDTH 411 0
DWIDTH 8 0
BBX 8 14 0 -3
BITMAP
00
00
7E
02
04
04
08
08
10
10
10
00
00
00
ENDCHAR
STARTCHAR eight
ENCODING 56
SWIDTH 411 0
DWIDTH 8 0
BBX 8 14 0 -3
BITMAP
00
00
3C
42
42
42
3C
42
42
42
3C
00
00
00
ENDCHAR
STARTCHAR nine
ENCODING 57
SWIDTH 411 0
DWIDTH 8 0
BBX 8 14 0 -3
BITMAP
00
00
3C
42
42
42
3E
02
02
04
38
00
00
00
ENDCHAR
STARTCHAR colon
ENCODING 58
SWIDTH 411 0
DWIDTH 8 0
BBX 8 14 0 -3
BITMAP
00
00
00
00
18
18
00
00
00
18
18
00
00
00
ENDCHAR
STARTCHAR semicolon
ENCODING 59
SWIDTH 411 0
DWIDTH 8 0
BBX 8 14 0 -3
BITMAP
00
00
00
00
30
30
00
00
00
30
30
10
20
00
ENDCHAR
STARTCHAR less
ENCODING 60
SWIDTH 411 0
DWIDTH 8 0
BBX 8 14 0 -3
BITMAP
00
00
00
04
08
10
20
40
20
10
08
04
00
00
ENDCHAR
STARTCHAR equal
ENCODING 61
SWIDTH 411 0
DWIDTH 8 0
BBX 8 14 0 -3
BITMAP
00
00
00
00
7E
00
00
00
7E
00
00
00
00
00
ENDCHAR
STARTCHAR greater
ENCODING 62
SWIDTH 411 0
DWIDTH 8 0
BBX 8 14 0 -3
BITMAP
00
00
00
40
20
10
08
04
08
10
20
40
00
00
ENDCHAR
STARTCHAR question
ENCODING 63
SWIDTH 411 0
DWIDTH 8 0
BBX 8 14 0 -3
BITMAP
00
3C
42
02
02
04
08
10
00
10
10
00
00
00
ENDCHAR
STARTCHAR at
ENCODING 64
SWIDTH 411 0
DWIDTH 8 0
BBX 8 14 0 -3
BITMAP
00
7C
82
9E
A2
A2
A2
A6
9A
80
7E
00
00
00
ENDCHAR
STARTCHAR A
ENCODING 65
SWIDTH 411 0
DWIDTH 8 0
BBX 8 14 0 -3
BITMAP
00
00
3C
42
42
42
7E
42
42
42
42
00
00
00
ENDCHAR
STARTCHAR B
ENCODING 66
SWIDTH 411 0
DWIDTH 8 0
BBX 8 14 0 -3
BITMAP
00
00
7C
42
42
42
7C
42
42
42
7C
00
00
00
ENDCHAR
STARTCHAR C
ENCODING 67
SWIDTH 411 0
DWIDTH 8 0
BBX 8 14 0 -3
BITMAP
00
00
3C
42
40
40
40
40
40
42
3C
00
00
00
ENDCHAR
STARTCHAR D
ENCODING 68
SWIDTH 411 0
DWIDTH 8 0
BBX 8 14 0 -3
BITMAP
00
00
78
44
42
42
42
42
42
44
78
00
00
00
ENDCHAR
STARTCHAR E
ENCODING 69
SWIDTH 411 0
DWIDTH 8 0
BBX 8 14 0 -3
BITMAP
00
00
7E
40
40
40
78
40
40
40
7E
00
00
00
ENDCHAR
STARTCHAR F
ENCODING 70
SWIDTH 411 0
DWIDTH 8 0
BBX 8 14 0 -3
BITMAP
00
00
7E
40
40
40
78
40
40
40
40
00
00
00
ENDCHAR
STARTCHAR G
ENCODING 71
SWIDTH 411 0
DWIDTH 8 0
BBX 8 14 0 -3
BITMAP
00
00
3C
42
40
40
4E
42
42
42
3C
00
00
00
ENDCHAR
STARTCHAR H
ENCODING 72
SWIDTH 411 0
DWIDTH 8 0
BBX 8 14 0 -3
BITMAP
00
00
42
42
42
42
7E
42
42
42
42
00
00
00
ENDCHAR
STARTCHAR I
ENCODING 73
SWIDTH 411 0
DWIDTH 8 0
BBX 8 14 0 -3
BITMAP
00
00
38
10
10
10
10
10
10
10
38
00
00
00
ENDCHAR
STARTCHAR J
ENCODING 74
SWIDTH 411 0
DWIDTH 8 0
BBX 8 14 0 -3
BITMAP
00
00
02
02
02
02
02
02
42
42
3C
00
00
00
ENDCHAR
STARTCHAR K
ENCODING 75
SWIDTH 411 0
DWIDTH 8 0
BBX 8 14 0 -3
BITMAP
00
00
42
44
48
50
60
50
48
44
42
00
00
00
ENDCHAR
STARTCHAR L
ENCODING 76
SWIDTH 411 0
DWIDTH 8 0
BBX 8 14 0 -3
BITMAP
00
00
40
40
40
40
40
40
40
40
7E
00
00
00
ENDCHAR
STARTCHAR M
ENCODING 77
SWIDTH 411 0
DWIDTH 8 0
BBX 8 14 0 -3
BITMAP
00
00
82
C6
AA
92
92
82
82
82
82
00
00
00
ENDCHAR
STARTCHAR N
ENCODING 78
SWIDTH 411 0
DWIDTH 8 0
BBX 8 14 0 -3
BITMAP
00
00
42
62
62
52
52
4A
4A
46
46
00
00
00
ENDCHAR
STARTCHAR O
ENCODING 79
SWIDTH 411 0
DWIDTH 8 0
BBX 8 14 0 -3
BITMAP
00
00
3C
42
42
42
42
42
42
42
3C
00
00
00
ENDCHAR
STARTCHAR P
ENCODING 80
SWIDTH 411 0
DWIDTH 8 0
BBX 8 14 0 -3
BITMAP
00
00
7C
42
42
42
7C
40
40
40
40
00
00
00
ENDCHAR
STARTCHAR Q
ENCODING 81
SWIDTH 411 0
DWIDTH 8 0
BBX 8 14 0 -3
BITMAP
00
00
3C
42
42
42
42
4A
4A
44
3A
02
00
00
ENDCHAR
STARTCHAR R
ENCODING 82
SWIDTH 411 0
DWIDTH 8 0
BBX 8 14 0 -3
BITMAP
00
00
7C
42
42
42
7C
48
44
42
42
00
00
00
ENDCHAR
STARTCHAR S
ENCODING 83
SWIDTH 411 0
DWIDTH 8 0
BBX 8 14 0 -3
BITMAP
00
00
3C
42
40
40
3C
02
02
42
3C
00
00
00
ENDCHAR
STARTCHAR T
ENCODING 84
SWIDTH 411 0
DWIDTH 8 0
BBX 8 14 0 -3
BITMAP
00
00
FE
10
10
10
10
10
10
10
10
00
00
00
ENDCHAR
STARTCHAR U
ENCODING 85
SWIDTH 411 0
DWIDTH 8 0
BBX 8 14 0 -3
BITMAP
00
00
42
42
42
42
42
42
42
42
3C
00
00
00
ENDCHAR
STARTCHAR V
ENCODING 86
SWIDTH 411 0
DWIDTH 8 0
BBX 8 14 0 -3
BITMAP
00
00
42
42
42
42
24
24
24
18
18
00
00
00
ENDCHAR
STARTCHAR W
ENCODING 87
SWIDTH 411 0
DWIDTH 8 0
BBX 8 14 0 -3
BITMAP
00
00
82
82
92
92
92
AA
44
44
44
00
00
00
ENDCHAR
STARTCHAR X
ENCODING 88
SWIDTH 411 0
DWIDTH 8 0
BBX 8 14 0 -3
BITMAP
00
00
42
42
24
24
18
24
24
42
42
00
00
00
ENDCHAR
STARTCHAR Y
ENCODING 89
SWIDTH 411 0
DWIDTH 8 0
BBX 8 14 0 -3
BITMAP
00
00
82
82
44
44
28
10
10
10
10
00
00
00
ENDCHAR
STARTCHAR Z
ENCODING 90
SWIDTH 411 0
DWIDTH 8 0
BBX 8 14 0 -3
BITMAP
00
00
7E
02
04
08
10
20
40
40
7E
00
00
00
ENDCHAR
STARTCHAR bracketleft
ENCODING 91
SWIDTH 411 0
DWIDTH 8 0
BBX 8 14 0 -3
BITMAP
00
1C
10
10
10
10
10
10
10
10
10
1C
00
00
ENDCHAR
STARTCHAR backslash
ENCODING 92
SWIDTH 411 0
DWIDTH 8 0
BBX 8 14 0 -3
BITMAP
40
40
20
20
10
10
08
08
04
04
02
02
00
00
ENDCHAR
STARTCHAR bracketright
ENCODING 93
SWIDTH 411 0
DWIDTH 8 0
BBX 8 14 0 -3
BITMAP
00
38
08
08
08
08
08
08
08
08
08
38
00
00
ENDCHAR
STARTCHAR asciicircum
ENCODING 94
SWIDTH 411 0
DWIDTH 8 0
BBX 8 14 0 -3
BITMAP
00
10
28
44
00
00
00
00
00
00
00
00
00
00
ENDCHAR
STARTCHAR underscore
ENCODING 95
SWIDTH 411 0
DWIDTH 8 0
BBX 8 14 0 -3
BITMAP
00
00
00
00
00
00
00
00
00
00
00
FF
00
00
ENDCHAR
STARTCHAR grave
ENCODING 96
SWIDTH 411 0
DWIDTH 8 0
BBX 8 14 0 -3
BITMAP
00
40
20
10
00
00
00
00
00
00
00
00
00
00
ENDCHAR
STARTCHAR a
ENCODING 97
SWIDTH 411 0
DWIDTH 8 0
BBX 8 14 0 -3
BITMAP
00
00
00
00
3C
02
3E
42
42
46
3A
00
00
00
ENDCHAR
STARTCHAR b
ENCODING 98
SWIDTH 411 0
DWIDTH 8 0
BBX 8 14 0 -3
BITMAP
00
40
40
40
5C
62
42
42
42
42
7C
00
00
00
ENDCHAR
STARTCHAR c
ENCODING 99
SWIDTH 411 0
DWIDTH 8 0
BBX 8 14 0 -3
BITMAP
00
00
00
00
3C
42
40
40
40
42
3C
00
00
00
ENDCHAR
STARTCHAR d
ENCODING 100
SWIDTH 411 0
DWIDTH 8 0
BBX 8 14 0 -3
BITMAP
00
02
02
02
3E
42
42
42
42
46
3A
00
00
00
ENDCHAR
STARTCHAR e
ENCODING 101
SWIDTH 411 0
DWIDTH 8 0
BBX 8 14 0 -3
BITMAP
00
00
00
00
3C
42
42
7E
40
40
3E
00
00
00
ENDCHAR
STARTCHAR f
ENCODING 102
SWIDTH 411 0
DWIDTH 8 0
BBX 8 14 0 -3
BITMAP
00
1C
20
20
20
3C
20
20
20
20
20
00
00
00
ENDCHAR
STARTCHAR g
ENCODING 103
SWIDTH 411 0
DWIDTH 8 0
BBX 8 14 0 -3
BITMAP
00
00
00
00
3E
42
42
42
42
46
3A
02
02
3C
ENDCHAR
STARTCHAR h
ENCODING 104
SWIDTH 411 0
DWIDTH 8 0
BBX 8 14 0 -3
BITMAP
00
40
40
40
5C
62
42
42
42
42
42
00
00
00
ENDCHAR
STARTCHAR i
ENCODING 105
SWIDTH 411 0
DWIDTH 8 0
BBX 8 14 0 -3
BITMAP
00
10
10
00
70
10
10
10
10
10
1C
00
00
00
ENDCHAR
STARTCHAR j
ENCODING 106
SWIDTH 411 0
DWIDTH 8 0
BBX 8 14 0 -3
BITMAP
00
08
08
00
18
08
08
08
08
08
08
08
08
70
ENDCHAR
STARTCHAR k
ENCODING 107
SWIDTH 411 0
DWIDTH 8 0
BBX 8 14 0 -3
BITMAP
00
40
40
40
40
44
48
70
48
44
42
00
00
00
ENDCHAR
STARTCHAR l
ENCODING 108
SWIDTH 411 0
DWIDTH 8 0
BBX 8 14 0 -3
BITMAP
00
30
10
10
10
10
10
10
10
10
0E
00
00
00
ENDCHAR
STARTCHAR m
ENCODING 109
SWIDTH 411 0
DWIDTH 8 0
BBX 8 14 0 -3
BITMAP
00
00
00
00
FC
92
92
92
92
92
92
00
00
00
ENDCHAR
STARTCHAR n
ENCODING 110
SWIDTH 411 0
DWIDTH 8 0
BBX 8 14 0 -3
BITMAP
00
00
00
00
7C
42
42
42
42
42
42
00
00
00
ENDCHAR
STARTCHAR o
ENCODING 111
SWIDTH 411 0
DWIDTH 8 0
BBX 8 14 0 -3
BITMAP
00
00
00
00
3C
42
42
42
42
42
3C
00
00
00
ENDCHAR
STARTCHAR p
ENCODING 112
SWIDTH 411 0
DWIDTH 8 0
BBX 8 14 0 -3
BITMAP
00
00
00
00
5C
62
42
42
42
42
7C
40
40
40
ENDCHAR
STARTCHAR q
ENCODING 113
SWIDTH 411 0
DWIDTH 8 0
BBX 8 14 0 -3
BITMAP
00
00
00
00
3E
42
42
42
42
46
3A
02
02
02
ENDCHAR
STARTCHAR r
ENCODING 114
SWIDTH 411 0
DWIDTH 8 0
BBX 8 14 0 -3
BITMAP
00
00
00
00
5C
62
40
40
40
40
40
00
00
00
ENDCHAR
STARTCHAR s
ENCODING 115
SWIDTH 411 0
DWIDTH 8 0
BBX 8 14 0 -3
BITMAP
00
00
00
00
3C
40
40
3C
02
02
7C
00
00
00
ENDCHAR
STARTCHAR t
ENCODING 116
SWIDTH 411 0
DWIDTH 8 0
BBX 8 14 0 -3
BITMAP
00
10
10
10
3C
10
10
10
10
10
0C
00
00
00
ENDCHAR
STARTCHAR u
ENCODING 117
SWIDTH 411 0
DWIDTH 8 0
BBX 8 14 0 -3
BITMAP
00
00
00
00
42
42
42
42
42
46
3A
00
00
00
ENDCHAR
STARTCHAR v
ENCODING 118
SWIDTH 411 0
DWIDTH 8 0
BBX 8 14 0 -3
BITMAP
00
00
00
00
42
42
42
24
24
18
18
00
00
00
ENDCHAR
STARTCHAR w
ENCODING 119
SWIDTH 411 0
DWIDTH 8 0
BBX 8 14 0 -3
BITMAP
00
00
00
00
82
82
92
92
AA
44
44
00
00
00
ENDCHAR
STARTCHAR x
ENCODING 120
SWIDTH 411 0
DWIDTH 8 0
BBX 8 14 0 -3
BITMAP
00
00
00
00
42
42
24
18
24
42
42
00
00
00
ENDCHAR
STARTCHAR y
ENCODING 121
SWIDTH 411 0
DWIDTH 8 0
BBX 8 14 0 -3
BITMAP
00
00
00
00
42
42
42
42
42
46
3A
02
02
3C
ENDCHAR
STARTCHAR z
ENCODING 122
SWIDTH 411 0
DWIDTH 8 0
BBX 8 14 0 -3
BITMAP
00
00
00
00
7E
04
08
10
20
40
7E
00
00
00
ENDCHAR
STARTCHAR braceleft
ENCODING 123
SWIDTH 411 0
DWIDTH 8 0
BBX 8 14 0 -3
BITMAP
00
0E
10
10
10
10
10
E0
10
10
10
10
0E
00
ENDCHAR
STARTCHAR bar
ENCODING 124
SWIDTH 411 0
DWIDTH 8 0
BBX 8 14 0 -3
BITMAP
00
10
10
10
10
10
10
10
10
10
10
10
10
00
ENDCHAR
STARTCHAR braceright
ENCODING 125
SWIDTH 411 0
DWIDTH 8 0
BBX 8 14 0 -3
BITMAP
00
70
08
08
08
08
08
07
08
08
08
08
70
00
ENDCHAR
STARTCHAR asciitilde
ENCODING 126
SWIDTH 411 0
DWIDTH 8 0
BBX 8 14 0 -3
BITMAP
00
00
00
00
00
62
92
8C
00
00
00
00
00
00
ENDCHAR
STARTCHAR nbspace
ENCODING 160
SWIDTH 411 0
DWIDTH 8 0
BBX 8 14 0 -3
BITMAP
00
00
00
00
00
00
00
00
00
00
00
00
00
00
ENDCHAR
STARTCHAR exclamdown
ENCODING 161
SWIDTH 411 0
DWIDTH 8 0
BBX 8 14 0 -3
BITMAP
00
10
10
00
10
10
10
10
10
10
10
00
00
00
ENDCHAR
STARTCHAR cent
ENCODING 162
SWIDTH 411 0
DWIDTH 8 0
BBX 8 14 0 -3
BITMAP
00
00
10
10
7C
92
90
90
90
92
7C
10
10
00
ENDCHAR
STARTCHAR sterling
ENCODING 163
SWIDTH 411 0
DWIDTH 8 0
BBX 8 14 0 -3
BITMAP
00
18
24
20
20
78
20
20
20
22
5C
00
00
00
ENDCHAR
STARTCHAR currency
ENCODING 164
SWIDTH 411 0
DWIDTH 8 0
BBX 8 14 0 -3
BITMAP
00
00
00
00
82
7C
44
44
44
7C
82
00
00
00
ENDCHAR
STARTCHAR yen
ENCODING 165
SWIDTH 411 0
DWIDTH 8 0
BBX 8 14 0 -3
BITMAP
00
82
82
44
28
10
7C
10
7C
10
10
00
00
00
ENDCHAR
STARTCHAR brokenbar
ENCODING 166
SWIDTH 411 0
DWIDTH 8 0
BBX 8 14 0 -3
BITMAP
00
10
10
10
10
10
00
00
10
10
10
10
10
00
ENDCHAR
STARTCHAR section
ENCODING 167
SWIDTH 411 0
DWIDTH 8 0
BBX 8 14 0 -3
BITMAP
00
38
44
40
30
48
44
44
24
18
04
44
38
00
ENDCHAR
STARTCHAR dieresis
ENCODING 168
SWIDTH 411 0
DWIDTH 8 0
BBX 8 14 0 -3
BITMAP
00
24
24
00
00
00
00
00
00
00
00
00
00
00
ENDCHAR
STARTCHAR copyright
ENCODING 169
SWIDTH 411 0
DWIDTH 8 0
BBX 8 14 0 -3
BITMAP
00
00
3C
42
99
A5
A1
A5
99
42
3C
00
00
00
ENDCHAR
STARTCHAR ordfeminine
ENCODING 170
SWIDTH 411 0
DWIDTH 8 0
BBX 8 14 0 -3
BITMAP
00
38
04
3C
44
3C
00
7C
00
00
00
00
00
00
ENDCHAR
STARTCHAR guillemotleft
ENCODING 171
SWIDTH 411 0
DWIDTH 8 0
BBX 8 14 0 -3
BITMAP
00
00
00
00
12
24
48
90
48
24
12
00
00
00
ENDCHAR
STARTCHAR logicalnot
ENCODING 172
SWIDTH 411 0
DWIDTH 8 0
BBX 8 14 0 -3
BITMAP
00
00
00
00
00
7E
02
02
02
00
00
00
00
00
ENDCHAR
STARTCHAR softhyphen
ENCODING 173
SWIDTH 411 0
DWIDTH 8 0
BBX 8 14 0 -3
BITMAP
00
00
00
00
00
00
00
3C
00
00
00
00
00
00
ENDCHAR
STARTCHAR registered
ENCODING 174
SWIDTH 411 0
DWIDTH 8 0
BBX 8 14 0 -3
BITMAP
00
00
3C
42
B9
A5
B9
A9
A5
42
3C
00
00
00
ENDCHAR
STARTCHAR macron
ENCODING 175
SWIDTH 411 0
DWIDTH 8 0
BBX 8 14 0 -3
BITMAP
00
7E
00
00
00
00
00
00
00
00
00
00
00
00
ENDCHAR
STARTCHAR degree
ENCODING 176
SWIDTH 411 0
DWIDTH 8 0
BBX 8 14 0 -3
BITMAP
00
18
24
24
18
00
00
00
00
00
00
00
00
00
ENDCHAR
STARTCHAR plusminus
ENCODING 177
SWIDTH 411 0
DWIDTH 8 0
BBX 8 14 0 -3
BITMAP
00
00
00
00
10
10
7C
10
10
00
7C
00
00
00
ENDCHAR
STARTCHAR twosuperior
ENCODING 178
SWIDTH 411 0
DWIDTH 8 0
BBX 8 14 0 -3
BITMAP
00
18
24
08
10
3C
00
00
00
00
00
00
00
00
ENDCHAR
STARTCHAR threesuperior
ENCODING 179
SWIDTH 411 0
DWIDTH 8 0
BBX 8 14 0 -3
BITMAP
00
38
04
18
04
38
00
00
00
00
00
00
00
00
ENDCHAR
STARTCHAR acute
ENCODING 180
SWIDTH 411 0
DWIDTH 8 0
BBX 8 14 0 -3
BITMAP
08
10
00
00
00
00
00
00
00
00
00
00
00
00
ENDCHAR
STARTCHAR mu
ENCODING 181
SWIDTH 411 0
DWIDTH 8 0
BBX 8 14 0 -3
BITMAP
00
00
00
00
42
42
42
42
42
46
7A
40
40
40
ENDCHAR
STARTCHAR paragraph
ENCODING 182
SWIDTH 411 0
DWIDTH 8 0
BBX 8 14 0 -3
BITMAP
00
7E
F2
F2
F2
F2
72
12
12
12
12
00
00
00
ENDCHAR
STARTCHAR periodcentered
ENCODING 183
SWIDTH 411 0
DWIDTH 8 0
BBX 8 14 0 -3
BITMAP
00
00
00
00
00
00
30
30
00
00
00
00
00
00
ENDCHAR
STARTCHAR cedilla
ENCODING 184
SWIDTH 411 0
DWIDTH 8 0
BBX 8 14 0 -3
BITMAP
00
00
00
00
00
00
00
00
00
00
00
10
10
20
ENDCHAR
STARTCHAR onesuperior
ENCODING 185
SWIDTH 411 0
DWIDTH 8 0
BBX 8 14 0 -3
BITMAP
00
10
30
10
10
38
00
00
00
00
00
00
00
00
ENDCHAR
STARTCHAR ordmasculine
ENCODING 186
SWIDTH 411 0
DWIDTH 8 0
BBX 8 14 0 -3
BITMAP
00
38
44
44
44
38
00
7C
00
00
00
00
00
00
ENDCHAR
STARTCHAR guillemotright
ENCODING 187
SWIDTH 411 0
DWIDTH 8 0
BBX 8 14 0 -3
BITMAP
00
00
00
00
90
48
24
12
24
48
90
00
00
00
ENDCHAR
STARTCHAR onequarter
ENCODING 188
SWIDTH 411 0
DWIDTH 8 0
BBX 8 14 0 -3
BITMAP
20
60
20
22
24
08
10
22
46
8A
1E
02
02
00
ENDCHAR
STARTCHAR onehalf
ENCODING 189
SWIDTH 411 0
DWIDTH 8 0
BBX 8 14 0 -3
BITMAP
20
60
20
22
24
08
10
20
4C
92
04
08
1E
00
ENDCHAR
STARTCHAR threequarters
ENCODING 190
SWIDTH 411 0
DWIDTH 8 0
BBX 8 14 0 -3
BITMAP
E0
10
60
12
E4
08
10
22
46
8A
1E
02
02
00
ENDCHAR
STARTCHAR question
ENCODING 191
SWIDTH 411 0
DWIDTH 8 0
BBX 8 14 0 -3
BITMAP
00
08
08
00
08
10
20
40
40
42
3C
00
00
00
ENDCHAR
STARTCHAR Agrave
ENCODING 192
SWIDTH 411 0
DWIDTH 8 0
BBX 8 14 0 -3
BITMAP
10
08
3C
42
42
42
7E
42
42
42
42
00
00
00
ENDCHAR
STARTCHAR Aacute
ENCODING 193
SWIDTH 411 0
DWIDTH 8 0
BBX 8 14 0 -3
BITMAP
08
10
3C
42
42
42
7E
42
42
42
42
00
00
00
ENDCHAR
STARTCHAR Acircumflex
ENCODING 194
SWIDTH 411 0
DWIDTH 8 0
BBX 8 14 0 -3
BITMAP
18
24
00
3C
42
42
42
7E
42
42
42
00
00
00
ENDCHAR
STARTCHAR Atilde
ENCODING 195
SWIDTH 411 0
DWIDTH 8 0
BBX 8 14 0 -3
BITMAP
32
4C
00
3C
42
42
42
7E
42
42
42
00
00
00
ENDCHAR
STARTCHAR Adieresis
ENCODING 196
SWIDTH 411 0
DWIDTH 8 0
BBX 8 14 0 -3
BITMAP
24
24
00
3C
42
42
42
7E
42
42
42
00
00
00
ENDCHAR
STARTCHAR Aring
ENCODING 197
SWIDTH 411 0
DWIDTH 8 0
BBX 8 14 0 -3
BITMAP
18
24
18
3C
42
42
42
7E
42
42
42
00
00
00
ENDCHAR
STARTCHAR AE
ENCODING 198
SWIDTH 411 0
DWIDTH 8 0
BBX 8 14 0 -3
BITMAP
00
7E
90
90
90
FC
90
90
90
90
9E
00
00
00
ENDCHAR
STARTCHAR Ccedilla
ENCODING 199
SWIDTH 411 0
DWIDTH 8 0
BBX 8 14 0 -3
BITMAP
00
3C
42
40
40
40
40
40
40
42
3C
10
20
00
ENDCHAR
STARTCHAR Egrave
ENCODING 200
SWIDTH 411 0
DWIDTH 8 0
BBX 8 14 0 -3
BITMAP
10
08
7E
40
40
40
78
40
40
40
7E
00
00
00
ENDCHAR
STARTCHAR Eacute
ENCODING 201
SWIDTH 411 0
DWIDTH 8 0
BBX 8 14 0 -3
BITMAP
08
10
7E
40
40
40
78
40
40
40
7E
00
00
00
ENDCHAR
STARTCHAR Ecircumflex
ENCODING 202
SWIDTH 411 0
DWIDTH 8 0
BBX 8 14 0 -3
BITMAP
18
24
00
7E
40
40
78
40
40
40
7E
00
00
00
ENDCHAR
STARTCHAR Edieresis
ENCODING 203
SWIDTH 411 0
DWIDTH 8 0
BBX 8 14 0 -3
BITMAP
24
24
00
7E
40
40
78
40
40
40
7E
00
00
00
ENDCHAR
STARTCHAR Igrave
ENCODING 204
SWIDTH 411 0
DWIDTH 8 0
BBX 8 14 0 -3
BITMAP
20
10
00
38
10
10
10
10
10
10
38
00
00
00
ENDCHAR
STARTCHAR Iacute
ENCODING 205
SWIDTH 411 0
DWIDTH 8 0
BBX 8 14 0 -3
BITMAP
08
10
00
38
10
10
10
10
10
10
38
00
00
00
ENDCHAR
STARTCHAR Icircumflex
ENCODING 206
SWIDTH 411 0
DWIDTH 8 0
BBX 8 14 0 -3
BITMAP
18
24
00
38
10
10
10
10
10
10
38
00
00
00
ENDCHAR
STARTCHAR Idieresis
ENCODING 207
SWIDTH 411 0
DWIDTH 8 0
BBX 8 14 0 -3
BITMAP
44
44
00
38
10
10
10
10
10
10
38
00
00
00
ENDCHAR
STARTCHAR Eth
ENCODING 208
SWIDTH 411 0
DWIDTH 8 0
BBX 8 14 0 -3
BITMAP
00
78
44
42
42
F2
42
42
42
44
78
00
00
00
ENDCHAR
STARTCHAR Ntilde
ENCODING 209
SWIDTH 411 0
DWIDTH 8 0
BBX 8 14 0 -3
BITMAP
32
4C
00
62
62
52
52
4A
4A
46
46
00
00
00
ENDCHAR
STARTCHAR Ograve
ENCODING 210
SWIDTH 411 0
DWIDTH 8 0
BBX 8 14 0 -3
BITMAP
10
08
3C
42
42
42
42
42
42
42
3C
00
00
00
ENDCHAR
STARTCHAR Oacute
ENCODING 211
SWIDTH 411 0
DWIDTH 8 0
BBX 8 14 0 -3
BITMAP
08
10
3C
42
42
42
42
42
42
42
3C
00
00
00
ENDCHAR
STARTCHAR Ocircumflex
ENCODING 212
SWIDTH 411 0
DWIDTH 8 0
BBX 8 14 0 -3
BITMAP
18
24
00
3C
42
42
42
42
42
42
3C
00
00
00
ENDCHAR
STARTCHAR Otilde
ENCODING 213
SWIDTH 411 0
DWIDTH 8 0
BBX 8 14 0 -3
BITMAP
32
4C
00
3C
42
42
42
42
42
42
3C
00
00
00
ENDCHAR
STARTCHAR Odieresis
ENCODING 214
SWIDTH 411 0
DWIDTH 8 0
BBX 8 14 0 -3
BITMAP
24
24
00
3C
42
42
42
42
42
42
3C
00
00
00
ENDCHAR
STARTCHAR multiply
ENCODING 215
SWIDTH 411 0
DWIDTH 8 0
BBX 8 14 0 -3
BITMAP
00
00
00
00
00
42
24
18
24
42
00
00
00
00
ENDCHAR
STARTCHAR Oslash
ENCODING 216
SWIDTH 411 0
DWIDTH 8 0
BBX 8 14 0 -3
BITMAP
02
3A
44
46
4A
4A
52
52
62
22
5C
40
00
00
ENDCHAR
STARTCHAR Ugrave
ENCODING 217
SWIDTH 411 0
DWIDTH 8 0
BBX 8 14 0 -3
BITMAP
10
08
42
42
42
42
42
42
42
42
3C
00
00
00
ENDCHAR
STARTCHAR Uacute
ENCODING 218
SWIDTH 411 0
DWIDTH 8 0
BBX 8 14 0 -3
BITMAP
08
10
42
42
42
42
42
42
42
42
3C
00
00
00
ENDCHAR
STARTCHAR Ucircumflex
ENCODING 219
SWIDTH 411 0
DWIDTH 8 0
BBX 8 14 0 -3
BITMAP
18
24
00
42
42
42
42
42
42
42
3C
00
00
00
ENDCHAR
STARTCHAR Udieresis
ENCODING 220
SWIDTH 411 0
DWIDTH 8 0
BBX 8 14 0 -3
BITMAP
24
24
00
42
42
42
42
42
42
42
3C
00
00
00
ENDCHAR
STARTCHAR Yacute
ENCODING 221
SWIDTH 411 0
DWIDTH 8 0
BBX 8 14 0 -3
BITMAP
08
10
82
82
44
44
28
10
10
10
10
00
00
00
ENDCHAR
STARTCHAR Thorn
ENCODING 222
SWIDTH 411 0
DWIDTH 8 0
BBX 8 14 0 -3
BITMAP
00
40
40
7C
42
42
42
42
7C
40
40
00
00
00
ENDCHAR
STARTCHAR germandbls
ENCODING 223
SWIDTH 411 0
DWIDTH 8 0
BBX 8 14 0 -3
BITMAP
00
38
44
44
48
7C
42
42
42
62
5C
00
00
00
ENDCHAR
STARTCHAR agrave
ENCODING 224
SWIDTH 411 0
DWIDTH 8 0
BBX 8 14 0 -3
BITMAP
00
10
08
00
3C
02
3E
42
42
46
3A
00
00
00
ENDCHAR
STARTCHAR aacute
ENCODING 225
SWIDTH 411 0
DWIDTH 8 0
BBX 8 14 0 -3
BITMAP
00
08
10
00
3C
02
3E
42
42
46
3A
00
00
00
ENDCHAR
STARTCHAR acircumflex
ENCODING 226
SWIDTH 411 0
DWIDTH 8 0
BBX 8 14 0 -3
BITMAP
00
18
24
00
3C
02
3E
42
42
46
3A
00
00
00
ENDCHAR
STARTCHAR atilde
ENCODING 227
SWIDTH 411 0
DWIDTH 8 0
BBX 8 14 0 -3
BITMAP
00
32
4C
00
3C
02
3E
42
42
46
3A
00
00
00
ENDCHAR
STARTCHAR adieresis
ENCODING 228
SWIDTH 411 0
DWIDTH 8 0
BBX 8 14 0 -3
BITMAP
00
24
24
00
3C
02
3E
42
42
46
3A
00
00
00
ENDCHAR
STARTCHAR aring
ENCODING 229
SWIDTH 411 0
DWIDTH 8 0
BBX 8 14 0 -3
BITMAP
00
18
24
18
3C
02
3E
42
42
46
3A
00
00
00
ENDCHAR
STARTCHAR ae
ENCODING 230
SWIDTH 411 0
DWIDTH 8 0
BBX 8 14 0 -3
BITMAP
00
00
00
00
6C
12
72
9E
90
90
6C
00
00
00
ENDCHAR
STARTCHAR ccedilla
ENCODING 231
SWIDTH 411 0
DWIDTH 8 0
BBX 8 14 0 -3
BITMAP
00
00
00
00
3C
42
40
40
40
42
3C
10
20
00
ENDCHAR
STARTCHAR egrave
ENCODING 232
SWIDTH 411 0
DWIDTH 8 0
BBX 8 14 0 -3
BITMAP
00
10
08
00
3C
42
42
7E
40
40
3E
00
00
00
ENDCHAR
STARTCHAR eacute
ENCODING 233
SWIDTH 411 0
DWIDTH 8 0
BBX 8 14 0 -3
BITMAP
00
08
10
00
3C
42
42
7E
40
40
3E
00
00
00
ENDCHAR
STARTCHAR ecircumflex
ENCODING 234
SWIDTH 411 0
DWIDTH 8 0
BBX 8 14 0 -3
BITMAP
00
18
24
00
3C
42
42
7E
40
40
3E
00
00
00
ENDCHAR
STARTCHAR edieresis
ENCODING 235
SWIDTH 411 0
DWIDTH 8 0
BBX 8 14 0 -3
BITMAP
00
24
24
00
3C
42
42
7E
40
40
3E
00
00
00
ENDCHAR
STARTCHAR igrave
ENCODING 236
SWIDTH 411 0
DWIDTH 8 0
BBX 8 14 0 -3
BITMAP
00
20
10
00
70
10
10
10
10
10
1C
00
00
00
ENDCHAR
STARTCHAR iacute
ENCODING 237
SWIDTH 411 0
DWIDTH 8 0
BBX 8 14 0 -3
BITMAP
00
08
10
00
70
10
10
10
10
10
1C
00
00
00
ENDCHAR
STARTCHAR icircumflex
ENCODING 238
SWIDTH 411 0
DWIDTH 8 0
BBX 8 14 0 -3
BITMAP
00
30
48
00
70
10
10
10
10
10
1C
00
00
00
ENDCHAR
STARTCHAR idieresis
ENCODING 239
SWIDTH 411 0
DWIDTH 8 0
BBX 8 14 0 -3
BITMAP
00
48
48
00
70
10
10
10
10
10
1C
00
00
00
ENDCHAR
STARTCHAR eth
ENCODING 240
SWIDTH 411 0
DWIDTH 8 0
BBX 8 14 0 -3
BITMAP
00
28
10
28
3C
42
42
42
42
42
3C
00
00
00
ENDCHAR
STARTCHAR ntilde
ENCODING 241
SWIDTH 411 0
DWIDTH 8 0
BBX 8 14 0 -3
BITMAP
00
32
4C
00
7C
42
42
42
42
42
42
00
00
00
ENDCHAR
STARTCHAR ograve
ENCODING 242
SWIDTH 411 0
DWIDTH 8 0
BBX 8 14 0 -3
BITMAP
00
10
08
00
3C
42
42
42
42
42
3C
00
00
00
ENDCHAR
STARTCHAR oacute
ENCODING 243
SWIDTH 411 0
DWIDTH 8 0
BBX 8 14 0 -3
BITMAP
00
08
10
00
3C
42
42
42
42
42
3C
00
00
00
ENDCHAR
STARTCHAR ocircumflex
ENCODING 244
SWIDTH 411 0
DWIDTH 8 0
BBX 8 14 0 -3
BITMAP
00
18
24
00
3C
42
42
42
42
42
3C
00
00
00
ENDCHAR
STARTCHAR otilde
ENCODING 245
SWIDTH 411 0
DWIDTH 8 0
BBX 8 14 0 -3
BITMAP
00
32
4C
00
3C
42
42
42
42
42
3C
00
00
00
ENDCHAR
STARTCHAR odieresis
ENCODING 246
SWIDTH 411 0
DWIDTH 8 0
BBX 8 14 0 -3
BITMAP
00
24
24
00
3C
42
42
42
42
42
3C
00
00
00
ENDCHAR
STARTCHAR divide
ENCODING 247
SWIDTH 411 0
DWIDTH 8 0
BBX 8 14 0 -3
BITMAP
00
00
00
00
10
10
00
7C
00
10
10
00
00
00
ENDCHAR
STARTCHAR oslash
ENCODING 248
SWIDTH 411 0
DWIDTH 8 0
BBX 8 14 0 -3
BITMAP
00
00
00
02
3C
46
4A
52
62
42
BC
00
00
00
ENDCHAR
STARTCHAR ugrave
ENCODING 249
SWIDTH 411 0
DWIDTH 8 0
BBX 8 14 0 -3
BITMAP
00
10
08
00
42
42
42
42
42
46
3A
00
00
00
ENDCHAR
STARTCHAR uacute
ENCODING 250
SWIDTH 411 0
DWIDTH 8 0
BBX 8 14 0 -3
BITMAP
00
08
10
00
42
42
42
42
42
46
3A
00
00
00
ENDCHAR
STARTCHAR ucircumflex
ENCODING 251
SWIDTH 411 0
DWIDTH 8 0
BBX 8 14 0 -3
BITMAP
00
18
24
00
42
42
42
42
42
46
3A
00
00
00
ENDCHAR
STARTCHAR udieresis
ENCODING 252
SWIDTH 411 0
DWIDTH 8 0
BBX 8 14 0 -3
BITMAP
00
24
24
00
42
42
42
42
42
46
3A
00
00
00
ENDCHAR
STARTCHAR yacute
ENCODING 253
SWIDTH 411 0
DWIDTH 8 0
BBX 8 14 0 -3
BITMAP
00
08
10
00
42
42
42
42
42
46
3A
02
02
3C
ENDCHAR
STARTCHAR thorn
ENCODING 254
SWIDTH 411 0
DWIDTH 8 0
BBX 8 14 0 -3
BITMAP
00
40
40
40
7C
42
42
42
42
42
7C
40
40
00
ENDCHAR
STARTCHAR ydieresis
ENCODING 255
SWIDTH 411 0
DWIDTH 8 0
BBX 8 14 0 -3
BITMAP
00
24
24
00
42
42
42
42
42
46
3A
02
02
3C
ENDCHAR
ENDFONT
