STARTFONT 2.1
COMMENT "Copyright by Hugo Chargois"
COMMENT "Licensed under the WTFPL"
FONT -Gohu-Gohufont-Bold-R-Normal--14-100-100-100-C-80-ISO8859-1
SIZE 14 100 100
FONTBOUNDINGBOX 8 14 0 -3
STARTPROPERTIES 31
FOUNDRY "Gohu"
FAMILY_NAME "GohuFont"
WEIGHT_NAME "Bold"
SLANT "R"
SETWIDTH_NAME "Normal"
ADD_STYLE_NAME ""
PIXEL_SIZE 14
POINT_SIZE 100
RESOLUTION_X 100
RESOLUTION_Y 100
SPACING "C"
AVERAGE_WIDTH 80
CHARSET_REGISTRY "ISO8859"
CHARSET_ENCODING "1"
FONTNAME_REGISTRY ""
FONT_NAME "GohuFont"
FACE_NAME "GohuFont"
FONT_VERSION "001.000"
FONT_ASCENT 11
FONT_DESCENT 3
UNDERLINE_POSITION -1
UNDERLINE_THICKNESS 1
X_HEIGHT 7
CAP_HEIGHT 9
RAW_ASCENT 785
RAW_DESCENT 215
NORM_SPACE 8
FIGURE_WIDTH 8
AVG_LOWERCASE_WIDTH 80
AVG_UPPERCASE_WIDTH "80"
_GBDFED_INFO "Edited with gbdfed 1.6."
ENDPROPERTIES
CHARS 191
STARTCHAR space
ENCODING 32
SWIDTH 411 0
DWIDTH 8 0
BBX 8 14 0 -3
BITMAP
00
00
00
00
00
00
00
00
00
00
00
00
00
00
ENDCHAR
STARTCHAR exclam
ENCODING 33
SWIDTH 411 0
DWIDTH 8 0
BBX 8 14 0 -3
BITMAP
00
18
18
18
18
18
18
18
00
18
18
00
00
00
ENDCHAR
STARTCHAR quotedbl
ENCODING 34
SWIDTH 411 0
DWIDTH 8 0
BBX 8 14 0 -3
BITMAP
00
36
36
36
00
00
00
00
00
00
00
00
00
00
ENDCHAR
STARTCHAR numbersign
ENCODING 35
SWIDTH 411 0
DWIDTH 8 0
BBX 8 14 0 -3
BITMAP
00
66
66
66
FF
66
66
FF
66
66
66
00
00
00
ENDCHAR
STARTCHAR dollar
ENCODING 36
SWIDTH 411 0
DWIDTH 8 0
BBX 8 14 0 -3
BITMAP
18
18
7E
DB
D8
D8
7E
1B
1B
DB
7E
18
18
00
ENDCHAR
STARTCHAR percent
ENCODING 37
SWIDTH 411 0
DWIDTH 8 0
BBX 8 14 0 -3
BITMAP
00
00
76
DE
7C
0C
18
18
30
3E
7B
6E
00
00
ENDCHAR
STARTCHAR ampersand
ENCODING 38
SWIDTH 411 0
DWIDTH 8 0
BBX 8 14 0 -3
BITMAP
00
1C
36
36
1C
38
6F
66
66
66
3F
00
00
00
ENDCHAR
STARTCHAR quotesingle
ENCODING 39
SWIDTH 411 0
DWIDTH 8 0
BBX 8 14 0 -3
BITMAP
00
18
18
18
18
00
00
00
00
00
00
00
00
00
ENDCHAR
STARTCHAR parenleft
ENCODING 40
SWIDTH 411 0
DWIDTH 8 0
BBX 8 14 0 -3
BITMAP
00
0C
18
30
30
60
60
60
60
30
30
18
0C
00
ENDCHAR
STARTCHAR parenright
ENCODING 41
SWIDTH 411 0
DWIDTH 8 0
BBX 8 14 0 -3
BITMAP
00
30
18
0C
0C
06
06
06
06
0C
0C
18
30
00
ENDCHAR
STARTCHAR asterisk
ENCODING 42
SWIDTH 411 0
DWIDTH 8 0
BBX 8 14 0 -3
BITMAP
00
00
00
18
DB
7E
3C
7E
DB
18
00
00
00
00
ENDCHAR
STARTCHAR plus
ENCODING 43
SWIDTH 411 0
DWIDTH 8 0
BBX 8 14 0 -3
BITMAP
00
00
00
18
18
18
FF
18
18
18
00
00
00
00
ENDCHAR
STARTCHAR comma
ENCODING 44
SWIDTH 411 0
DWIDTH 8 0
BBX 8 14 0 -3
BITMAP
00
00
00
00
00
00
00
00
00
38
38
18
30
00
ENDCHAR
STARTCHAR hyphen
ENCODING 45
SWIDTH 411 0
DWIDTH 8 0
BBX 8 14 0 -3
BITMAP
00
00
00
00
00
00
7E
00
00
00
00
00
00
00
ENDCHAR
STARTCHAR period
ENCODING 46
SWIDTH 411 0
DWIDTH 8 0
BBX 8 14 0 -3
BITMAP
00
00
00
00
00
00
00
00
00
38
38
00
00
00
ENDCHAR
STARTCHAR slash
ENCODING 47
SWIDTH 411 0
DWIDTH 8 0
BBX 8 14 0 -3
BITMAP
03
03
06
06
0C
0C
18
18
30
30
60
60
00
00
ENDCHAR
STARTCHAR zero
ENCODING 48
SWIDTH 411 0
DWIDTH 8 0
BBX 8 14 0 -3
BITMAP
00
00
3E
63
67
6F
7B
73
63
63
3E
00
00
00
ENDCHAR
STARTCHAR one
ENCODING 49
SWIDTH 411 0
DWIDTH 8 0
BBX 8 14 0 -3
BITMAP
00
00
0C
1C
3C
6C
0C
0C
0C
0C
0C
00
00
00
ENDCHAR
STARTCHAR two
ENCODING 50
SWIDTH 411 0
DWIDTH 8 0
BBX 8 14 0 -3
BITMAP
00
00
3E
63
63
06
0C
18
30
60
7F
00
00
00
ENDCHAR
STARTCHAR three
ENCODING 51
SWIDTH 411 0
DWIDTH 8 0
BBX 8 14 0 -3
BITMAP
00
00
3E
63
03
03
1E
03
03
63
3E
00
00
00
ENDCHAR
STARTCHAR four
ENCODING 52
SWIDTH 411 0
DWIDTH 8 0
BBX 8 14 0 -3
BITMAP
00
00
06
0E
1E
36
66
7F
06
06
06
00
00
00
ENDCHAR
STARTCHAR five
ENCODING 53
SWIDTH 411 0
DWIDTH 8 0
BBX 8 14 0 -3
BITMAP
00
00
7F
60
60
7E
03
03
03
63
3E
00
00
00
ENDCHAR
STARTCHAR six
ENCODING 54
SWIDTH 411 0
DWIDTH 8 0
BBX 8 14 0 -3
BITMAP
00
00
3E
60
60
7E
63
63
63
63
3E
00
00
00
ENDCHAR
STARTCHAR seven
ENCODING 55
SWIDTH 411 0
DWIDTH 8 0
BBX 8 14 0 -3
BITMAP
00
00
7F
03
06
06
0C
0C
18
18
18
00
00
00
ENDCHAR
STARTCHAR eight
ENCODING 56
SWIDTH 411 0
DWIDTH 8 0
BBX 8 14 0 -3
BITMAP
00
00
3E
63
63
63
3E
63
63
63
3E
00
00
00
ENDCHAR
STARTCHAR nine
ENCODING 57
SWIDTH 411 0
DWIDTH 8 0
BBX 8 14 0 -3
BITMAP
00
00
3E
63
63
63
3F
03
03
06
3C
00
00
00
ENDCHAR
STARTCHAR colon
ENCODING 58
SWIDTH 411 0
DWIDTH 8 0
BBX 8 14 0 -3
BITMAP
00
00
00
00
1C
1C
00
00
00
1C
1C
00
00
00
ENDCHAR
STARTCHAR semicolon
ENCODING 59
SWIDTH 411 0
DWIDTH 8 0
BBX 8 14 0 -3
BITMAP
00
00
00
00
38
38
00
00
00
38
38
18
30
00
ENDCHAR
STARTCHAR less
ENCODING 60
SWIDTH 411 0
DWIDTH 8 0
BBX 8 14 0 -3
BITMAP
00
00
00
06
0C
18
30
60
30
18
0C
06
00
00
ENDCHAR
STARTCHAR equal
ENCODING 61
SWIDTH 411 0
DWIDTH 8 0
BBX 8 14 0 -3
BITMAP
00
00
00
00
7E
00
00
00
7E
00
00
00
00
00
ENDCHAR
STARTCHAR greater
ENCODING 62
SWIDTH 411 0
DWIDTH 8 0
BBX 8 14 0 -3
BITMAP
00
00
00
60
30
18
0C
06
0C
18
30
60
00
00
ENDCHAR
STARTCHAR question
ENCODING 63
SWIDTH 411 0
DWIDTH 8 0
BBX 8 14 0 -3
BITMAP
00
3E
63
03
03
06
0C
18
00
18
18
00
00
00
ENDCHAR
STARTCHAR at
ENCODING 64
SWIDTH 411 0
DWIDTH 8 0
BBX 8 14 0 -3
BITMAP
00
7E
C3
DF
F3
F3
F3
F7
DF
C0
7F
00
00
00
ENDCHAR
STARTCHAR A
ENCODING 65
SWIDTH 411 0
DWIDTH 8 0
BBX 8 14 0 -3
BITMAP
00
00
3E
63
63
63
7F
63
63
63
63
00
00
00
ENDCHAR
STARTCHAR B
ENCODING 66
SWIDTH 411 0
DWIDTH 8 0
BBX 8 14 0 -3
BITMAP
00
00
7E
63
63
63
7E
63
63
63
7E
00
00
00
ENDCHAR
STARTCHAR C
ENCODING 67
SWIDTH 411 0
DWIDTH 8 0
BBX 8 14 0 -3
BITMAP
00
00
3E
63
60
60
60
60
60
63
3E
00
00
00
ENDCHAR
STARTCHAR D
ENCODING 68
SWIDTH 411 0
DWIDTH 8 0
BBX 8 14 0 -3
BITMAP
00
00
7C
66
63
63
63
63
63
66
7C
00
00
00
ENDCHAR
STARTCHAR E
ENCODING 69
SWIDTH 411 0
DWIDTH 8 0
BBX 8 14 0 -3
BITMAP
00
00
7F
60
60
60
7C
60
60
60
7F
00
00
00
ENDCHAR
STARTCHAR F
ENCODING 70
SWIDTH 411 0
DWIDTH 8 0
BBX 8 14 0 -3
BITMAP
00
00
7F
60
60
60
7C
60
60
60
60
00
00
00
ENDCHAR
STARTCHAR G
ENCODING 71
SWIDTH 411 0
DWIDTH 8 0
BBX 8 14 0 -3
BITMAP
00
00
3E
63
60
60
6F
63
63
63
3E
00
00
00
ENDCHAR
STARTCHAR H
ENCODING 72
SWIDTH 411 0
DWIDTH 8 0
BBX 8 14 0 -3
BITMAP
00
00
63
63
63
63
7F
63
63
63
63
00
00
00
ENDCHAR
STARTCHAR I
ENCODING 73
SWIDTH 411 0
DWIDTH 8 0
BBX 8 14 0 -3
BITMAP
00
00
3C
18
18
18
18
18
18
18
3C
00
00
00
ENDCHAR
STARTCHAR J
ENCODING 74
SWIDTH 411 0
DWIDTH 8 0
BBX 8 14 0 -3
BITMAP
00
00
03
03
03
03
03
03
63
63
3E
00
00
00
ENDCHAR
STARTCHAR K
ENCODING 75
SWIDTH 411 0
DWIDTH 8 0
BBX 8 14 0 -3
BITMAP
00
00
63
66
6C
78
70
78
6C
66
63
00
00
00
ENDCHAR
STARTCHAR L
ENCODING 76
SWIDTH 411 0
DWIDTH 8 0
BBX 8 14 0 -3
BITMAP
00
00
60
60
60
60
60
60
60
60
7F
00
00
00
ENDCHAR
STARTCHAR M
ENCODING 77
SWIDTH 411 0
DWIDTH 8 0
BBX 8 14 0 -3
BITMAP
00
00
C3
E7
FF
DB
DB
C3
C3
C3
C3
00
00
00
ENDCHAR
STARTCHAR N
ENCODING 78
SWIDTH 411 0
DWIDTH 8 0
BBX 8 14 0 -3
BITMAP
00
00
63
73
73
7B
7B
6F
6F
67
67
00
00
00
ENDCHAR
STARTCHAR O
ENCODING 79
SWIDTH 411 0
DWIDTH 8 0
BBX 8 14 0 -3
BITMAP
00
00
3E
63
63
63
63
63
63
63
3E
00
00
00
ENDCHAR
STARTCHAR P
ENCODING 80
SWIDTH 411 0
DWIDTH 8 0
BBX 8 14 0 -3
BITMAP
00
00
7E
63
63
63
7E
60
60
60
60
00
00
00
ENDCHAR
STARTCHAR Q
ENCODING 81
SWIDTH 411 0
DWIDTH 8 0
BBX 8 14 0 -3
BITMAP
00
00
3E
63
63
63
63
6F
6F
66
3F
03
00
00
ENDCHAR
STARTCHAR R
ENCODING 82
SWIDTH 411 0
DWIDTH 8 0
BBX 8 14 0 -3
BITMAP
00
00
7E
63
63
63
7E
6C
66
63
63
00
00
00
ENDCHAR
STARTCHAR S
ENCODING 83
SWIDTH 411 0
DWIDTH 8 0
BBX 8 14 0 -3
BITMAP
00
00
3E
63
60
60
3E
03
03
63
3E
00
00
00
ENDCHAR
STARTCHAR T
ENCODING 84
SWIDTH 411 0
DWIDTH 8 0
BBX 8 14 0 -3
BITMAP
00
00
FF
18
18
18
18
18
18
18
18
00
00
00
ENDCHAR
STARTCHAR U
ENCODING 85
SWIDTH 411 0
DWIDTH 8 0
BBX 8 14 0 -3
BITMAP
00
00
63
63
63
63
63
63
63
63
3E
00
00
00
ENDCHAR
STARTCHAR V
ENCODING 86
SWIDTH 411 0
DWIDTH 8 0
BBX 8 14 0 -3
BITMAP
00
00
63
63
63
63
36
36
36
1C
1C
00
00
00
ENDCHAR
STARTCHAR W
ENCODING 87
SWIDTH 411 0
DWIDTH 8 0
BBX 8 14 0 -3
BITMAP
00
00
C3
C3
DB
DB
DB
FF
66
66
66
00
00
00
ENDCHAR
STARTCHAR X
ENCODING 88
SWIDTH 411 0
DWIDTH 8 0
BBX 8 14 0 -3
BITMAP
00
00
63
63
36
36
1C
36
36
63
63
00
00
00
ENDCHAR
STARTCHAR Y
ENCODING 89
SWIDTH 411 0
DWIDTH 8 0
BBX 8 14 0 -3
BITMAP
00
00
C3
C3
66
66
3C
18
18
18
18
00
00
00
ENDCHAR
STARTCHAR Z
ENCODING 90
SWIDTH 411 0
DWIDTH 8 0
BBX 8 14 0 -3
BITMAP
00
00
7F
03
06
0C
18
30
60
60
7F
00
00
00
ENDCHAR
STARTCHAR bracketleft
ENCODING 91
SWIDTH 411 0
DWIDTH 8 0
BBX 8 14 0 -3
BITMAP
00
1E
18
18
18
18
18
18
18
18
18
1E
00
00
ENDCHAR
STARTCHAR backslash
ENCODING 92
SWIDTH 411 0
DWIDTH 8 0
BBX 8 14 0 -3
BITMAP
60
60
30
30
18
18
0C
0C
06
06
03
03
00
00
ENDCHAR
STARTCHAR bracketright
ENCODING 93
SWIDTH 411 0
DWIDTH 8 0
BBX 8 14 0 -3
BITMAP
00
3C
0C
0C
0C
0C
0C
0C
0C
0C
0C
3C
00
00
ENDCHAR
STARTCHAR asciicircum
ENCODING 94
SWIDTH 411 0
DWIDTH 8 0
BBX 8 14 0 -3
BITMAP
00
18
3C
66
00
00
00
00
00
00
00
00
00
00
ENDCHAR
STARTCHAR underscore
ENCODING 95
SWIDTH 411 0
DWIDTH 8 0
BBX 8 14 0 -3
BITMAP
00
00
00
00
00
00
00
00
00
00
00
FF
00
00
ENDCHAR
STARTCHAR grave
ENCODING 96
SWIDTH 411 0
DWIDTH 8 0
BBX 8 14 0 -3
BITMAP
00
60
30
18
00
00
00
00
00
00
00
00
00
00
ENDCHAR
STARTCHAR a
ENCODING 97
SWIDTH 411 0
DWIDTH 8 0
BBX 8 14 0 -3
BITMAP
00
00
00
00
3E
03
3F
63
63
67
3B
00
00
00
ENDCHAR
STARTCHAR b
ENCODING 98
SWIDTH 411 0
DWIDTH 8 0
BBX 8 14 0 -3
BITMAP
00
60
60
60
6E
73
63
63
63
63
7E
00
00
00
ENDCHAR
STARTCHAR c
ENCODING 99
SWIDTH 411 0
DWIDTH 8 0
BBX 8 14 0 -3
BITMAP
00
00
00
00
3E
63
60
60
60
63
3E
00
00
00
ENDCHAR
STARTCHAR d
ENCODING 100
SWIDTH 411 0
DWIDTH 8 0
BBX 8 14 0 -3
BITMAP
00
03
03
03
3F
63
63
63
63
67
3B
00
00
00
ENDCHAR
STARTCHAR e
ENCODING 101
SWIDTH 411 0
DWIDTH 8 0
BBX 8 14 0 -3
BITMAP
00
00
00
00
3E
63
63
7F
60
60
3F
00
00
00
ENDCHAR
STARTCHAR f
ENCODING 102
SWIDTH 411 0
DWIDTH 8 0
BBX 8 14 0 -3
BITMAP
00
1E
30
30
30
3E
30
30
30
30
30
00
00
00
ENDCHAR
STARTCHAR g
ENCODING 103
SWIDTH 411 0
DWIDTH 8 0
BBX 8 14 0 -3
BITMAP
00
00
00
00
3F
63
63
63
63
67
3B
03
03
3E
ENDCHAR
STARTCHAR h
ENCODING 104
SWIDTH 411 0
DWIDTH 8 0
BBX 8 14 0 -3
BITMAP
00
60
60
60
6E
73
63
63
63
63
63
00
00
00
ENDCHAR
STARTCHAR i
ENCODING 105
SWIDTH 411 0
DWIDTH 8 0
BBX 8 14 0 -3
BITMAP
00
18
18
00
78
18
18
18
18
18
1E
00
00
00
ENDCHAR
STARTCHAR j
ENCODING 106
SWIDTH 411 0
DWIDTH 8 0
BBX 8 14 0 -3
BITMAP
00
0C
0C
00
1C
0C
0C
0C
0C
0C
0C
0C
0C
78
ENDCHAR
STARTCHAR k
ENCODING 107
SWIDTH 411 0
DWIDTH 8 0
BBX 8 14 0 -3
BITMAP
00
60
60
60
60
66
6C
78
6C
66
63
00
00
00
ENDCHAR
STARTCHAR l
ENCODING 108
SWIDTH 411 0
DWIDTH 8 0
BBX 8 14 0 -3
BITMAP
00
38
18
18
18
18
18
18
18
18
0F
00
00
00
ENDCHAR
STARTCHAR m
ENCODING 109
SWIDTH 411 0
DWIDTH 8 0
BBX 8 14 0 -3
BITMAP
00
00
00
00
FE
DB
DB
DB
DB
DB
DB
00
00
00
ENDCHAR
STARTCHAR n
ENCODING 110
SWIDTH 411 0
DWIDTH 8 0
BBX 8 14 0 -3
BITMAP
00
00
00
00
7E
63
63
63
63
63
63
00
00
00
ENDCHAR
STARTCHAR o
ENCODING 111
SWIDTH 411 0
DWIDTH 8 0
BBX 8 14 0 -3
BITMAP
00
00
00
00
3E
63
63
63
63
63
3E
00
00
00
ENDCHAR
STARTCHAR p
ENCODING 112
SWIDTH 411 0
DWIDTH 8 0
BBX 8 14 0 -3
BITMAP
00
00
00
00
6E
73
63
63
63
63
7E
60
60
60
ENDCHAR
STARTCHAR q
ENCODING 113
SWIDTH 411 0
DWIDTH 8 0
BBX 8 14 0 -3
BITMAP
00
00
00
00
3F
63
63
63
63
67
3B
03
03
03
ENDCHAR
STARTCHAR r
ENCODING 114
SWIDTH 411 0
DWIDTH 8 0
BBX 8 14 0 -3
BITMAP
00
00
00
00
6E
73
60
60
60
60
60
00
00
00
ENDCHAR
STARTCHAR s
ENCODING 115
SWIDTH 411 0
DWIDTH 8 0
BBX 8 14 0 -3
BITMAP
00
00
00
00
3E
60
60
3E
03
03
7E
00
00
00
ENDCHAR
STARTCHAR t
ENCODING 116
SWIDTH 411 0
DWIDTH 8 0
BBX 8 14 0 -3
BITMAP
00
18
18
18
3E
18
18
18
18
18
0E
00
00
00
ENDCHAR
STARTCHAR u
ENCODING 117
SWIDTH 411 0
DWIDTH 8 0
BBX 8 14 0 -3
BITMAP
00
00
00
00
63
63
63
63
63
67
3B
00
00
00
ENDCHAR
STARTCHAR v
ENCODING 118
SWIDTH 411 0
DWIDTH 8 0
BBX 8 14 0 -3
BITMAP
00
00
00
00
63
63
63
36
36
1C
1C
00
00
00
ENDCHAR
STARTCHAR w
ENCODING 119
SWIDTH 411 0
DWIDTH 8 0
BBX 8 14 0 -3
BITMAP
00
00
00
00
C3
C3
DB
DB
FF
66
66
00
00
00
ENDCHAR
STARTCHAR x
ENCODING 120
SWIDTH 411 0
DWIDTH 8 0
BBX 8 14 0 -3
BITMAP
00
00
00
00
63
63
36
1C
36
63
63
00
00
00
ENDCHAR
STARTCHAR y
ENCODING 121
SWIDTH 411 0
DWIDTH 8 0
BBX 8 14 0 -3
BITMAP
00
00
00
00
63
63
63
63
63
67
3B
03
03
3E
ENDCHAR
STARTCHAR z
ENCODING 122
SWIDTH 411 0
DWIDTH 8 0
BBX 8 14 0 -3
BITMAP
00
00
00
00
7F
06
0C
18
30
60
7F
00
00
00
ENDCHAR
STARTCHAR braceleft
ENCODING 123
SWIDTH 411 0
DWIDTH 8 0
BBX 8 14 0 -3
BITMAP
00
0F
18
18
18
18
18
F0
18
18
18
18
0F
00
ENDCHAR
STARTCHAR bar
ENCODING 124
SWIDTH 411 0
DWIDTH 8 0
BBX 8 14 0 -3
BITMAP
00
18
18
18
18
18
18
18
18
18
18
18
18
00
ENDCHAR
STARTCHAR braceright
ENCODING 125
SWIDTH 411 0
DWIDTH 8 0
BBX 8 14 0 -3
BITMAP
00
78
0C
0C
0C
0C
0C
07
0C
0C
0C
0C
78
00
ENDCHAR
STARTCHAR asciitilde
ENCODING 126
SWIDTH 411 0
DWIDTH 8 0
BBX 8 14 0 -3
BITMAP
00
00
00
00
00
73
DB
CE
00
00
00
00
00
00
ENDCHAR
STARTCHAR nbspace
ENCODING 160
SWIDTH 411 0
DWIDTH 8 0
BBX 8 14 0 -3
BITMAP
00
00
00
00
00
00
00
00
00
00
00
00
00
00
ENDCHAR
STARTCHAR exclamdown
ENCODING 161
SWIDTH 411 0
DWIDTH 8 0
BBX 8 14 0 -3
BITMAP
00
18
18
00
18
18
18
18
18
18
18
00
00
00
ENDCHAR
STARTCHAR cent
ENCODING 162
SWIDTH 411 0
DWIDTH 8 0
BBX 8 14 0 -3
BITMAP
00
00
18
18
7E
DB
D8
D8
D8
DB
7E
18
18
00
ENDCHAR
STARTCHAR sterling
ENCODING 163
SWIDTH 411 0
DWIDTH 8 0
BBX 8 14 0 -3
BITMAP
00
1C
36
30
30
7C
30
30
30
33
7E
00
00
00
ENDCHAR
STARTCHAR currency
ENCODING 164
SWIDTH 411 0
DWIDTH 8 0
BBX 8 14 0 -3
BITMAP
00
00
00
00
C3
7E
66
66
66
7E
C3
00
00
00
ENDCHAR
STARTCHAR yen
ENCODING 165
SWIDTH 411 0
DWIDTH 8 0
BBX 8 14 0 -3
BITMAP
00
C3
C3
66
3C
18
7E
18
7E
18
18
00
00
00
ENDCHAR
STARTCHAR brokenbar
ENCODING 166
SWIDTH 411 0
DWIDTH 8 0
BBX 8 14 0 -3
BITMAP
00
18
18
18
18
18
00
00
18
18
18
18
18
00
ENDCHAR
STARTCHAR section
ENCODING 167
SWIDTH 411 0
DWIDTH 8 0
BBX 8 14 0 -3
BITMAP
00
3C
66
60
38
6C
66
66
36
1C
06
66
3C
00
ENDCHAR
STARTCHAR dieresis
ENCODING 168
SWIDTH 411 0
DWIDTH 8 0
BBX 8 14 0 -3
BITMAP
00
36
36
00
00
00
00
00
00
00
00
00
00
00
ENDCHAR
STARTCHAR copyright
ENCODING 169
SWIDTH 411 0
DWIDTH 8 0
BBX 8 14 0 -3
BITMAP
00
00
3E
63
DD
F7
F1
F7
DD
63
3E
00
00
00
ENDCHAR
STARTCHAR ordfeminine
ENCODING 170
SWIDTH 411 0
DWIDTH 8 0
BBX 8 14 0 -3
BITMAP
00
3C
06
3E
66
3E
00
7E
00
00
00
00
00
00
ENDCHAR
STARTCHAR guillemotleft
ENCODING 171
SWIDTH 411 0
DWIDTH 8 0
BBX 8 14 0 -3
BITMAP
00
00
00
00
1B
36
6C
D8
6C
36
1B
00
00
00
ENDCHAR
STARTCHAR logicalnot
ENCODING 172
SWIDTH 411 0
DWIDTH 8 0
BBX 8 14 0 -3
BITMAP
00
00
00
00
00
7F
03
03
03
00
00
00
00
00
ENDCHAR
STARTCHAR softhyphen
ENCODING 173
SWIDTH 411 0
DWIDTH 8 0
BBX 8 14 0 -3
BITMAP
00
00
00
00
00
00
00
3E
00
00
00
00
00
00
ENDCHAR
STARTCHAR registered
ENCODING 174
SWIDTH 411 0
DWIDTH 8 0
BBX 8 14 0 -3
BITMAP
00
00
3E
63
FD
F7
FD
FD
F7
63
3E
00
00
00
ENDCHAR
STARTCHAR macron
ENCODING 175
SWIDTH 411 0
DWIDTH 8 0
BBX 8 14 0 -3
BITMAP
00
7F
00
00
00
00
00
00
00
00
00
00
00
00
ENDCHAR
STARTCHAR degree
ENCODING 176
SWIDTH 411 0
DWIDTH 8 0
BBX 8 14 0 -3
BITMAP
00
1C
36
36
1C
00
00
00
00
00
00
00
00
00
ENDCHAR
STARTCHAR plusminus
ENCODING 177
SWIDTH 411 0
DWIDTH 8 0
BBX 8 14 0 -3
BITMAP
00
00
00
00
18
18
7E
18
18
00
7E
00
00
00
ENDCHAR
STARTCHAR twosuperior
ENCODING 178
SWIDTH 411 0
DWIDTH 8 0
BBX 8 14 0 -3
BITMAP
00
1C
36
0C
18
3E
00
00
00
00
00
00
00
00
ENDCHAR
STARTCHAR threesuperior
ENCODING 179
SWIDTH 411 0
DWIDTH 8 0
BBX 8 14 0 -3
BITMAP
00
3C
06
1C
06
3C
00
00
00
00
00
00
00
00
ENDCHAR
STARTCHAR acute
ENCODING 180
SWIDTH 411 0
DWIDTH 8 0
BBX 8 14 0 -3
BITMAP
0C
18
00
00
00
00
00
00
00
00
00
00
00
00
ENDCHAR
STARTCHAR mu
ENCODING 181
SWIDTH 411 0
DWIDTH 8 0
BBX 8 14 0 -3
BITMAP
00
00
00
00
63
63
63
63
63
67
7B
60
60
60
ENDCHAR
STARTCHAR paragraph
ENCODING 182
SWIDTH 411 0
DWIDTH 8 0
BBX 8 14 0 -3
BITMAP
00
7F
FB
FB
FB
FB
7B
1B
1B
1B
1B
00
00
00
ENDCHAR
STARTCHAR periodcentered
ENCODING 183
SWIDTH 411 0
DWIDTH 8 0
BBX 8 14 0 -3
BITMAP
00
00
00
00
00
00
38
38
00
00
00
00
00
00
ENDCHAR
STARTCHAR cedilla
ENCODING 184
SWIDTH 411 0
DWIDTH 8 0
BBX 8 14 0 -3
BITMAP
00
00
00
00
00
00
00
00
00
00
00
18
18
30
ENDCHAR
STARTCHAR onesuperior
ENCODING 185
SWIDTH 411 0
DWIDTH 8 0
BBX 8 14 0 -3
BITMAP
00
18
38
18
18
3C
00
00
00
00
00
00
00
00
ENDCHAR
STARTCHAR ordmasculine
ENCODING 186
SWIDTH 411 0
DWIDTH 8 0
BBX 8 14 0 -3
BITMAP
00
3C
66
66
66
3C
00
7E
00
00
00
00
00
00
ENDCHAR
STARTCHAR guillemotright
ENCODING 187
SWIDTH 411 0
DWIDTH 8 0
BBX 8 14 0 -3
BITMAP
00
00
00
00
D8
6C
36
1B
36
6C
D8
00
00
00
ENDCHAR
STARTCHAR onequarter
ENCODING 188
SWIDTH 411 0
DWIDTH 8 0
BBX 8 14 0 -3
BITMAP
30
70
30
33
36
0C
18
33
67
CF
1F
03
03
00
ENDCHAR
STARTCHAR onehalf
ENCODING 189
SWIDTH 411 0
DWIDTH 8 0
BBX 8 14 0 -3
BITMAP
30
70
30
33
36
0C
18
30
6E
DB
06
0C
1F
00
ENDCHAR
STARTCHAR threequarters
ENCODING 190
SWIDTH 411 0
DWIDTH 8 0
BBX 8 14 0 -3
BITMAP
F0
18
70
1B
F6
0C
18
33
67
CF
1F
03
03
00
ENDCHAR
STARTCHAR question
ENCODING 191
SWIDTH 411 0
DWIDTH 8 0
BBX 8 14 0 -3
BITMAP
00
0C
0C
00
0C
18
30
60
60
63
3E
00
00
00
ENDCHAR
STARTCHAR Agrave
ENCODING 192
SWIDTH 411 0
DWIDTH 8 0
BBX 8 14 0 -3
BITMAP
18
0C
3E
63
63
63
7F
63
63
63
63
00
00
00
ENDCHAR
STARTCHAR Aacute
ENCODING 193
SWIDTH 411 0
DWIDTH 8 0
BBX 8 14 0 -3
BITMAP
0C
18
3E
63
63
63
7F
63
63
63
63
00
00
00
ENDCHAR
STARTCHAR Acircumflex
ENCODING 194
SWIDTH 411 0
DWIDTH 8 0
BBX 8 14 0 -3
BITMAP
1C
36
00
3E
63
63
63
7F
63
63
63
00
00
00
ENDCHAR
STARTCHAR Atilde
ENCODING 195
SWIDTH 411 0
DWIDTH 8 0
BBX 8 14 0 -3
BITMAP
3B
6E
00
3E
63
63
63
7F
63
63
63
00
00
00
ENDCHAR
STARTCHAR Adieresis
ENCODING 196
SWIDTH 411 0
DWIDTH 8 0
BBX 8 14 0 -3
BITMAP
36
36
00
3E
63
63
63
7F
63
63
63
00
00
00
ENDCHAR
STARTCHAR Aring
ENCODING 197
SWIDTH 411 0
DWIDTH 8 0
BBX 8 14 0 -3
BITMAP
1C
36
1C
3E
63
63
63
7F
63
63
63
00
00
00
ENDCHAR
STARTCHAR AE
ENCODING 198
SWIDTH 411 0
DWIDTH 8 0
BBX 8 14 0 -3
BITMAP
00
7F
D8
D8
D8
FE
D8
D8
D8
D8
DF
00
00
00
ENDCHAR
STARTCHAR Ccedilla
ENCODING 199
SWIDTH 411 0
DWIDTH 8 0
BBX 8 14 0 -3
BITMAP
00
3E
63
60
60
60
60
60
60
63
3E
18
30
00
ENDCHAR
STARTCHAR Egrave
ENCODING 200
SWIDTH 411 0
DWIDTH 8 0
BBX 8 14 0 -3
BITMAP
18
0C
7F
60
60
60
7C
60
60
60
7F
00
00
00
ENDCHAR
STARTCHAR Eacute
ENCODING 201
SWIDTH 411 0
DWIDTH 8 0
BBX 8 14 0 -3
BITMAP
0C
18
7F
60
60
60
7C
60
60
60
7F
00
00
00
ENDCHAR
STARTCHAR Ecircumflex
ENCODING 202
SWIDTH 411 0
DWIDTH 8 0
BBX 8 14 0 -3
BITMAP
1C
36
00
7F
60
60
7C
60
60
60
7F
00
00
00
ENDCHAR
STARTCHAR Edieresis
ENCODING 203
SWIDTH 411 0
DWIDTH 8 0
BBX 8 14 0 -3
BITMAP
36
36
00
7F
60
60
7C
60
60
60
7F
00
00
00
ENDCHAR
STARTCHAR Igrave
ENCODING 204
SWIDTH 411 0
DWIDTH 8 0
BBX 8 14 0 -3
BITMAP
30
18
00
3C
18
18
18
18
18
18
3C
00
00
00
ENDCHAR
STARTCHAR Iacute
ENCODING 205
SWIDTH 411 0
DWIDTH 8 0
BBX 8 14 0 -3
BITMAP
0C
18
00
3C
18
18
18
18
18
18
3C
00
00
00
ENDCHAR
STARTCHAR Icircumflex
ENCODING 206
SWIDTH 411 0
DWIDTH 8 0
BBX 8 14 0 -3
BITMAP
1C
36
00
3C
18
18
18
18
18
18
3C
00
00
00
ENDCHAR
STARTCHAR Idieresis
ENCODING 207
SWIDTH 411 0
DWIDTH 8 0
BBX 8 14 0 -3
BITMAP
66
66
00
3C
18
18
18
18
18
18
3C
00
00
00
ENDCHAR
STARTCHAR Eth
ENCODING 208
SWIDTH 411 0
DWIDTH 8 0
BBX 8 14 0 -3
BITMAP
00
7C
66
63
63
FB
63
63
63
66
7C
00
00
00
ENDCHAR
STARTCHAR Ntilde
ENCODING 209
SWIDTH 411 0
DWIDTH 8 0
BBX 8 14 0 -3
BITMAP
3B
6E
00
73
73
7B
7B
6F
6F
67
67
00
00
00
ENDCHAR
STARTCHAR Ograve
ENCODING 210
SWIDTH 411 0
DWIDTH 8 0
BBX 8 14 0 -3
BITMAP
18
0C
3E
63
63
63
63
63
63
63
3E
00
00
00
ENDCHAR
STARTCHAR Oacute
ENCODING 211
SWIDTH 411 0
DWIDTH 8 0
BBX 8 14 0 -3
BITMAP
0C
18
3E
63
63
63
63
63
63
63
3E
00
00
00
ENDCHAR
STARTCHAR Ocircumflex
ENCODING 212
SWIDTH 411 0
DWIDTH 8 0
BBX 8 14 0 -3
BITMAP
1C
36
00
3E
63
63
63
63
63
63
3E
00
00
00
ENDCHAR
STARTCHAR Otilde
ENCODING 213
SWIDTH 411 0
DWIDTH 8 0
BBX 8 14 0 -3
BITMAP
3B
6E
00
3E
63
63
63
63
63
63
3E
00
00
00
ENDCHAR
STARTCHAR Odieresis
ENCODING 214
SWIDTH 411 0
DWIDTH 8 0
BBX 8 14 0 -3
BITMAP
36
36
00
3E
63
63
63
63
63
63
3E
00
00
00
ENDCHAR
STARTCHAR multiply
ENCODING 215
SWIDTH 411 0
DWIDTH 8 0
BBX 8 14 0 -3
BITMAP
00
00
00
00
00
63
36
1C
36
63
00
00
00
00
ENDCHAR
STARTCHAR Oslash
ENCODING 216
SWIDTH 411 0
DWIDTH 8 0
BBX 8 14 0 -3
BITMAP
03
3F
66
67
6F
6F
7B
7B
73
33
7E
60
00
00
ENDCHAR
STARTCHAR Ugrave
ENCODING 217
SWIDTH 411 0
DWIDTH 8 0
BBX 8 14 0 -3
BITMAP
18
0C
63
63
63
63
63
63
63
63
3E
00
00
00
ENDCHAR
STARTCHAR Uacute
ENCODING 218
SWIDTH 411 0
DWIDTH 8 0
BBX 8 14 0 -3
BITMAP
0C
18
63
63
63
63
63
63
63
63
3E
00
00
00
ENDCHAR
STARTCHAR Ucircumflex
ENCODING 219
SWIDTH 411 0
DWIDTH 8 0
BBX 8 14 0 -3
BITMAP
1C
36
00
63
63
63
63
63
63
63
3E
00
00
00
ENDCHAR
STARTCHAR Udieresis
ENCODING 220
SWIDTH 411 0
DWIDTH 8 0
BBX 8 14 0 -3
BITMAP
36
36
00
63
63
63
63
63
63
63
3E
00
00
00
ENDCHAR
STARTCHAR Yacute
ENCODING 221
SWIDTH 411 0
DWIDTH 8 0
BBX 8 14 0 -3
BITMAP
0C
18
C3
C3
66
66
3C
18
18
18
18
00
00
00
ENDCHAR
STARTCHAR Thorn
ENCODING 222
SWIDTH 411 0
DWIDTH 8 0
BBX 8 14 0 -3
BITMAP
00
60
60
7E
63
63
63
63
7E
60
60
00
00
00
ENDCHAR
STARTCHAR germandbls
ENCODING 223
SWIDTH 411 0
DWIDTH 8 0
BBX 8 14 0 -3
BITMAP
00
3C
66
66
6C
7E
63
63
63
73
7E
00
00
00
ENDCHAR
STARTCHAR agrave
ENCODING 224
SWIDTH 411 0
DWIDTH 8 0
BBX 8 14 0 -3
BITMAP
00
18
0C
00
3E
03
3F
63
63
67
3B
00
00
00
ENDCHAR
STARTCHAR aacute
ENCODING 225
SWIDTH 411 0
DWIDTH 8 0
BBX 8 14 0 -3
BITMAP
00
0C
18
00
3E
03
3F
63
63
67
3B
00
00
00
ENDCHAR
STARTCHAR acircumflex
ENCODING 226
SWIDTH 411 0
DWIDTH 8 0
BBX 8 14 0 -3
BITMAP
00
1C
36
00
3E
03
3F
63
63
67
3B
00
00
00
ENDCHAR
STARTCHAR atilde
ENCODING 227
SWIDTH 411 0
DWIDTH 8 0
BBX 8 14 0 -3
BITMAP
00
3B
6E
00
3E
03
3F
63
63
67
3B
00
00
00
ENDCHAR
STARTCHAR adieresis
ENCODING 228
SWIDTH 411 0
DWIDTH 8 0
BBX 8 14 0 -3
BITMAP
00
36
36
00
3E
03
3F
63
63
67
3B
00
00
00
ENDCHAR
STARTCHAR aring
ENCODING 229
SWIDTH 411 0
DWIDTH 8 0
BBX 8 14 0 -3
BITMAP
00
1C
36
1C
3E
03
3F
63
63
67
3B
00
00
00
ENDCHAR
STARTCHAR ae
ENCODING 230
SWIDTH 411 0
DWIDTH 8 0
BBX 8 14 0 -3
BITMAP
00
00
00
00
7E
1B
7B
DF
D8
D8
7E
00
00
00
ENDCHAR
STARTCHAR ccedilla
ENCODING 231
SWIDTH 411 0
DWIDTH 8 0
BBX 8 14 0 -3
BITMAP
00
00
00
00
3E
63
60
60
60
63
3E
18
30
00
ENDCHAR
STARTCHAR egrave
ENCODING 232
SWIDTH 411 0
DWIDTH 8 0
BBX 8 14 0 -3
BITMAP
00
18
0C
00
3E
63
63
7F
60
60
3F
00
00
00
ENDCHAR
STARTCHAR eacute
ENCODING 233
SWIDTH 411 0
DWIDTH 8 0
BBX 8 14 0 -3
BITMAP
00
0C
18
00
3E
63
63
7F
60
60
3F
00
00
00
ENDCHAR
STARTCHAR ecircumflex
ENCODING 234
SWIDTH 411 0
DWIDTH 8 0
BBX 8 14 0 -3
BITMAP
00
1C
36
00
3E
63
63
7F
60
60
3F
00
00
00
ENDCHAR
STARTCHAR edieresis
ENCODING 235
SWIDTH 411 0
DWIDTH 8 0
BBX 8 14 0 -3
BITMAP
00
36
36
00
3E
63
63
7F
60
60
3F
00
00
00
ENDCHAR
STARTCHAR igrave
ENCODING 236
SWIDTH 411 0
DWIDTH 8 0
BBX 8 14 0 -3
BITMAP
00
30
18
00
78
18
18
18
18
18
1E
00
00
00
ENDCHAR
STARTCHAR iacute
ENCODING 237
SWIDTH 411 0
DWIDTH 8 0
BBX 8 14 0 -3
BITMAP
00
0C
18
00
78
18
18
18
18
18
1E
00
00
00
ENDCHAR
STARTCHAR icircumflex
ENCODING 238
SWIDTH 411 0
DWIDTH 8 0
BBX 8 14 0 -3
BITMAP
00
38
6C
00
78
18
18
18
18
18
1E
00
00
00
ENDCHAR
STARTCHAR idieresis
ENCODING 239
SWIDTH 411 0
DWIDTH 8 0
BBX 8 14 0 -3
BITMAP
00
6C
6C
00
78
18
18
18
18
18
1E
00
00
00
ENDCHAR
STARTCHAR eth
ENCODING 240
SWIDTH 411 0
DWIDTH 8 0
BBX 8 14 0 -3
BITMAP
00
3C
18
3C
3E
63
63
63
63
63
3E
00
00
00
ENDCHAR
STARTCHAR ntilde
ENCODING 241
SWIDTH 411 0
DWIDTH 8 0
BBX 8 14 0 -3
BITMAP
00
3B
6E
00
7E
63
63
63
63
63
63
00
00
00
ENDCHAR
STARTCHAR ograve
ENCODING 242
SWIDTH 411 0
DWIDTH 8 0
BBX 8 14 0 -3
BITMAP
00
18
0C
00
3E
63
63
63
63
63
3E
00
00
00
ENDCHAR
STARTCHAR oacute
ENCODING 243
SWIDTH 411 0
DWIDTH 8 0
BBX 8 14 0 -3
BITMAP
00
0C
18
00
3E
63
63
63
63
63
3E
00
00
00
ENDCHAR
STARTCHAR ocircumflex
ENCODING 244
SWIDTH 411 0
DWIDTH 8 0
BBX 8 14 0 -3
BITMAP
00
1C
36
00
3E
63
63
63
63
63
3E
00
00
00
ENDCHAR
STARTCHAR otilde
ENCODING 245
SWIDTH 411 0
DWIDTH 8 0
BBX 8 14 0 -3
BITMAP
00
3B
6E
00
3E
63
63
63
63
63
3E
00
00
00
ENDCHAR
STARTCHAR odieresis
ENCODING 246
SWIDTH 411 0
DWIDTH 8 0
BBX 8 14 0 -3
BITMAP
00
36
36
00
3E
63
63
63
63
63
3E
00
00
00
ENDCHAR
STARTCHAR divide
ENCODING 247
SWIDTH 411 0
DWIDTH 8 0
BBX 8 14 0 -3
BITMAP
00
00
00
00
18
18
00
7E
00
18
18
00
00
00
ENDCHAR
STARTCHAR oslash
ENCODING 248
SWIDTH 411 0
DWIDTH 8 0
BBX 8 14 0 -3
BITMAP
00
00
00
03
3E
67
6F
7B
73
63
FE
00
00
00
ENDCHAR
STARTCHAR ugrave
ENCODING 249
SWIDTH 411 0
DWIDTH 8 0
BBX 8 14 0 -3
BITMAP
00
18
0C
00
63
63
63
63
63
67
3F
00
00
00
ENDCHAR
STARTCHAR uacute
ENCODING 250
SWIDTH 411 0
DWIDTH 8 0
BBX 8 14 0 -3
BITMAP
00
0C
18
00
63
63
63
63
63
67
3F
00
00
00
ENDCHAR
STARTCHAR ucircumflex
ENCODING 251
SWIDTH 411 0
DWIDTH 8 0
BBX 8 14 0 -3
BITMAP
00
1C
36
00
63
63
63
63
63
67
3F
00
00
00
ENDCHAR
STARTCHAR udieresis
ENCODING 252
SWIDTH 411 0
DWIDTH 8 0
BBX 8 14 0 -3
BITMAP
00
36
36
00
63
63
63
63
63
67
3F
00
00
00
ENDCHAR
STARTCHAR yacute
ENCODING 253
SWIDTH 411 0
DWIDTH 8 0
BBX 8 14 0 -3
BITMAP
00
0C
18
00
63
63
63
63
63
67
3F
03
03
3E
ENDCHAR
STARTCHAR thorn
ENCODING 254
SWIDTH 411 0
DWIDTH 8 0
BBX 8 14 0 -3
BITMAP
00
60
60
60
7E
63
63
63
63
63
7E
60
60
00
ENDCHAR
STARTCHAR ydieresis
ENCODING 255
SWIDTH 411 0
DWIDTH 8 0
BBX 8 14 0 -3
BITMAP
00
36
36
00
63
63
63
63
63
67
3F
03
03
3E
ENDCHAR
ENDFONT
