STARTFONT 2.1
COMMENT /*
COMMENT  * Spleen 12x24 1.0.4
COMMENT  * Copyright (c) 2018-2019, Frederic Cambus
COMMENT  * https://www.cambus.net/
COMMENT  *
COMMENT  * Created:      2018-08-15
COMMENT  * Last Updated: 2019-02-06
COMMENT  *
COMMENT  * Spleen is released under the BSD 2-Clause license.
COMMENT  * See LICENSE file for details.
COMMENT  */
FONT -misc-spleen-medium-r-normal--24-240-72-72-C-120-iso10646-1
SIZE 24 72 72
FONTBOUNDINGBOX 12 24 0 -5
STARTPROPERTIES 18
FAMILY_NAME "Spleen"
FOUNDRY "misc"
SLANT "R"
SETWIDTH_NAME "Normal"
PIXEL_SIZE 24
POINT_SIZE 240
RESOLUTION_X 72
RESOLUTION_Y 72
SPACING "C"
AVERAGE_WIDTH 120
CHARSET_REGISTRY "ISO10646"
CHARSET_ENCODING "1"
MIN_SPACE 12
FONT_ASCENT 19
FONT_DESCENT 5
COPYRIGHT "Copyright (c) 2018-2019, Frederic Cambus"
DEFAULT_CHAR 32
_GBDFED_INFO "Edited with gbdfed 1.6."
ENDPROPERTIES
CHARS 192
STARTCHAR SPACE
ENCODING 32
SWIDTH 500 0
DWIDTH 12 0
BBX 12 24 0 -5
BITMAP
0000
0000
0000
0000
0000
0000
0000
0000
0000
0000
0000
0000
0000
0000
0000
0000
0000
0000
0000
0000
0000
0000
0000
0000
ENDCHAR
STARTCHAR EXCLAMATION MARK
ENCODING 33
SWIDTH 500 0
DWIDTH 12 0
BBX 12 24 0 -5
BITMAP
0000
0000
0000
0000
0600
0600
0600
0600
0600
0600
0600
0600
0600
0600
0600
0000
0000
0600
0600
0000
0000
0000
0000
0000
ENDCHAR
STARTCHAR QUOTATION MARK
ENCODING 34
SWIDTH 500 0
DWIDTH 12 0
BBX 12 24 0 -5
BITMAP
0000
0000
30C0
30C0
30C0
30C0
30C0
30C0
30C0
0000
0000
0000
0000
0000
0000
0000
0000
0000
0000
0000
0000
0000
0000
0000
ENDCHAR
STARTCHAR NUMBER SIGN
ENCODING 35
SWIDTH 500 0
DWIDTH 12 0
BBX 12 24 0 -5
BITMAP
0000
0000
0000
0000
30C0
30C0
30C0
7FE0
30C0
30C0
30C0
30C0
30C0
30C0
30C0
7FE0
30C0
30C0
30C0
0000
0000
0000
0000
0000
ENDCHAR
STARTCHAR DOLLAR SIGN
ENCODING 36
SWIDTH 500 0
DWIDTH 12 0
BBX 12 24 0 -5
BITMAP
0000
0000
0600
0600
1FE0
3600
6600
6600
6600
6600
3600
1F80
06C0
0660
0660
0660
0660
06C0
7F80
0600
0600
0000
0000
0000
ENDCHAR
STARTCHAR PERCENT SIGN
ENCODING 37
SWIDTH 500 0
DWIDTH 12 0
BBX 12 24 0 -5
BITMAP
0000
0000
0000
0000
0000
00C0
38C0
6D80
6D80
3B00
0300
0600
0600
0C00
0DC0
1B60
1B60
31C0
3000
0000
0000
0000
0000
0000
ENDCHAR
STARTCHAR AMPERSAND
ENCODING 38
SWIDTH 500 0
DWIDTH 12 0
BBX 12 24 0 -5
BITMAP
0000
0000
0000
0000
0F00
1980
30C0
30C0
30C0
30C0
1980
0F00
3300
61A0
60E0
60C0
60C0
31E0
1F30
0000
0000
0000
0000
0000
ENDCHAR
STARTCHAR APOSTROPHE
ENCODING 39
SWIDTH 500 0
DWIDTH 12 0
BBX 12 24 0 -5
BITMAP
0000
0000
0600
0600
0600
0600
0600
0600
0600
0000
0000
0000
0000
0000
0000
0000
0000
0000
0000
0000
0000
0000
0000
0000
ENDCHAR
STARTCHAR LEFT PARENTHESIS
ENCODING 40
SWIDTH 500 0
DWIDTH 12 0
BBX 12 24 0 -5
BITMAP
0000
0000
00E0
0180
0300
0600
0C00
0C00
1800
1800
1800
1800
1800
1800
1800
1800
0C00
0C00
0600
0300
0180
00E0
0000
0000
ENDCHAR
STARTCHAR RIGHT PARENTHESIS
ENCODING 41
SWIDTH 500 0
DWIDTH 12 0
BBX 12 24 0 -5
BITMAP
0000
0000
7000
1800
0C00
0600
0300
0300
0180
0180
0180
0180
0180
0180
0180
0180
0300
0300
0600
0C00
1800
7000
0000
0000
ENDCHAR
STARTCHAR ASTERISK
ENCODING 42
SWIDTH 500 0
DWIDTH 12 0
BBX 12 24 0 -5
BITMAP
0000
0000
0000
0000
0000
0000
0000
0000
30C0
1980
0F00
0600
7FE0
0600
0F00
1980
30C0
0000
0000
0000
0000
0000
0000
0000
ENDCHAR
STARTCHAR PLUS SIGN
ENCODING 43
SWIDTH 500 0
DWIDTH 12 0
BBX 12 24 0 -5
BITMAP
0000
0000
0000
0000
0000
0000
0000
0000
0000
0600
0600
0600
3FC0
0600
0600
0600
0000
0000
0000
0000
0000
0000
0000
0000
ENDCHAR
STARTCHAR COMMA
ENCODING 44
SWIDTH 500 0
DWIDTH 12 0
BBX 12 24 0 -5
BITMAP
0000
0000
0000
0000
0000
0000
0000
0000
0000
0000
0000
0000
0000
0000
0000
0000
0600
0600
0600
0C00
1800
0000
0000
0000
ENDCHAR
STARTCHAR HYPHEN-MINUS
ENCODING 45
SWIDTH 500 0
DWIDTH 12 0
BBX 12 24 0 -5
BITMAP
0000
0000
0000
0000
0000
0000
0000
0000
0000
0000
0000
0000
3FC0
0000
0000
0000
0000
0000
0000
0000
0000
0000
0000
0000
ENDCHAR
STARTCHAR FULL STOP
ENCODING 46
SWIDTH 500 0
DWIDTH 12 0
BBX 12 24 0 -5
BITMAP
0000
0000
0000
0000
0000
0000
0000
0000
0000
0000
0000
0000
0000
0000
0000
0000
0000
0600
0600
0000
0000
0000
0000
0000
ENDCHAR
STARTCHAR SOLIDUS
ENCODING 47
SWIDTH 500 0
DWIDTH 12 0
BBX 12 24 0 -5
BITMAP
0000
0000
0030
0030
0060
0060
00C0
00C0
0180
0180
0300
0300
0600
0600
0C00
0C00
1800
1800
3000
3000
6000
6000
0000
0000
ENDCHAR
STARTCHAR DIGIT ZERO
ENCODING 48
SWIDTH 500 0
DWIDTH 12 0
BBX 12 24 0 -5
BITMAP
0000
0000
0000
0000
1F80
30C0
6060
6060
60E0
61E0
6360
6660
6C60
7860
7060
6060
6060
30C0
1F80
0000
0000
0000
0000
0000
ENDCHAR
STARTCHAR DIGIT ONE
ENCODING 49
SWIDTH 500 0
DWIDTH 12 0
BBX 12 24 0 -5
BITMAP
0000
0000
0000
0000
0E00
1E00
3600
2600
0600
0600
0600
0600
0600
0600
0600
0600
0600
0600
3FC0
0000
0000
0000
0000
0000
ENDCHAR
STARTCHAR DIGIT TWO
ENCODING 50
SWIDTH 500 0
DWIDTH 12 0
BBX 12 24 0 -5
BITMAP
0000
0000
0000
0000
1F80
30C0
6060
0060
0060
00C0
0180
0300
0600
0C00
1800
3000
6000
6060
7FE0
0000
0000
0000
0000
0000
ENDCHAR
STARTCHAR DIGIT THREE
ENCODING 51
SWIDTH 500 0
DWIDTH 12 0
BBX 12 24 0 -5
BITMAP
0000
0000
0000
0000
1F80
30C0
6060
0060
0060
0060
00C0
0F80
00C0
0060
0060
0060
6060
30C0
1F80
0000
0000
0000
0000
0000
ENDCHAR
STARTCHAR DIGIT FOUR
ENCODING 52
SWIDTH 500 0
DWIDTH 12 0
BBX 12 24 0 -5
BITMAP
0000
0000
0000
0000
6000
6000
6000
6180
6180
6180
6180
6180
6180
6180
7FE0
0180
0180
0180
0180
0000
0000
0000
0000
0000
ENDCHAR
STARTCHAR DIGIT FIVE
ENCODING 53
SWIDTH 500 0
DWIDTH 12 0
BBX 12 24 0 -5
BITMAP
0000
0000
0000
0000
7FE0
6060
6000
6000
6000
6000
7F80
00C0
0060
0060
0060
0060
6060
30C0
1F80
0000
0000
0000
0000
0000
ENDCHAR
STARTCHAR DIGIT SIX
ENCODING 54
SWIDTH 500 0
DWIDTH 12 0
BBX 12 24 0 -5
BITMAP
0000
0000
0000
0000
1FC0
3060
6000
6000
6000
6000
7F80
60C0
6060
6060
6060
6060
6060
30C0
1F80
0000
0000
0000
0000
0000
ENDCHAR
STARTCHAR DIGIT SEVEN
ENCODING 55
SWIDTH 500 0
DWIDTH 12 0
BBX 12 24 0 -5
BITMAP
0000
0000
0000
0000
7FE0
6060
0060
0060
0060
00C0
0180
0300
0600
0C00
0C00
0C00
0C00
0C00
0C00
0000
0000
0000
0000
0000
ENDCHAR
STARTCHAR DIGIT EIGHT
ENCODING 56
SWIDTH 500 0
DWIDTH 12 0
BBX 12 24 0 -5
BITMAP
0000
0000
0000
0000
1F80
30C0
6060
6060
6060
30C0
1F80
30C0
6060
6060
6060
6060
6060
30C0
1F80
0000
0000
0000
0000
0000
ENDCHAR
STARTCHAR DIGIT NINE
ENCODING 57
SWIDTH 500 0
DWIDTH 12 0
BBX 12 24 0 -5
BITMAP
0000
0000
0000
0000
1F80
30C0
6060
6060
6060
6060
6060
3060
1FE0
0060
0060
0060
0060
60C0
3F80
0000
0000
0000
0000
0000
ENDCHAR
STARTCHAR COLON
ENCODING 58
SWIDTH 500 0
DWIDTH 12 0
BBX 12 24 0 -5
BITMAP
0000
0000
0000
0000
0000
0000
0000
0000
0000
0000
0600
0600
0000
0000
0000
0000
0000
0600
0600
0000
0000
0000
0000
0000
ENDCHAR
STARTCHAR SEMICOLON
ENCODING 59
SWIDTH 500 0
DWIDTH 12 0
BBX 12 24 0 -5
BITMAP
0000
0000
0000
0000
0000
0000
0000
0000
0000
0000
0600
0600
0000
0000
0000
0000
0600
0600
0600
0C00
1800
0000
0000
0000
ENDCHAR
STARTCHAR LESS-THAN SIGN
ENCODING 60
SWIDTH 500 0
DWIDTH 12 0
BBX 12 24 0 -5
BITMAP
0000
0000
0000
0000
0060
00C0
0180
0300
0600
0C00
1800
3000
1800
0C00
0600
0300
0180
00C0
0060
0000
0000
0000
0000
0000
ENDCHAR
STARTCHAR EQUALS SIGN
ENCODING 61
SWIDTH 500 0
DWIDTH 12 0
BBX 12 24 0 -5
BITMAP
0000
0000
0000
0000
0000
0000
0000
0000
0000
7FE0
0000
0000
0000
0000
7FE0
0000
0000
0000
0000
0000
0000
0000
0000
0000
ENDCHAR
STARTCHAR GREATER-THAN SIGN
ENCODING 62
SWIDTH 500 0
DWIDTH 12 0
BBX 12 24 0 -5
BITMAP
0000
0000
0000
0000
3000
1800
0C00
0600
0300
0180
00C0
0060
00C0
0180
0300
0600
0C00
1800
3000
0000
0000
0000
0000
0000
ENDCHAR
STARTCHAR QUESTION MARK
ENCODING 63
SWIDTH 500 0
DWIDTH 12 0
BBX 12 24 0 -5
BITMAP
0000
0000
0000
0000
1F80
30C0
6060
0060
0060
00C0
0180
0300
0600
0600
0600
0000
0000
0600
0600
0000
0000
0000
0000
0000
ENDCHAR
STARTCHAR COMMERCIAL AT
ENCODING 64
SWIDTH 500 0
DWIDTH 12 0
BBX 12 24 0 -5
BITMAP
0000
0000
0000
0000
0000
1F80
30C0
6060
6060
6760
6760
6760
6760
6760
6760
67E0
6000
3000
1FC0
0000
0000
0000
0000
0000
ENDCHAR
STARTCHAR LATIN CAPITAL LETTER A
ENCODING 65
SWIDTH 500 0
DWIDTH 12 0
BBX 12 24 0 -5
BITMAP
0000
0000
0000
0000
1F80
30C0
6060
6060
6060
6060
6060
7FE0
6060
6060
6060
6060
6060
6060
6060
0000
0000
0000
0000
0000
ENDCHAR
STARTCHAR LATIN CAPITAL LETTER B
ENCODING 66
SWIDTH 500 0
DWIDTH 12 0
BBX 12 24 0 -5
BITMAP
0000
0000
0000
0000
7F80
60C0
6060
6060
6060
6060
60C0
7F80
60C0
6060
6060
6060
6060
60C0
7F80
0000
0000
0000
0000
0000
ENDCHAR
STARTCHAR LATIN CAPITAL LETTER C
ENCODING 67
SWIDTH 500 0
DWIDTH 12 0
BBX 12 24 0 -5
BITMAP
0000
0000
0000
0000
1FE0
3000
6000
6000
6000
6000
6000
6000
6000
6000
6000
6000
6000
3000
1FE0
0000
0000
0000
0000
0000
ENDCHAR
STARTCHAR LATIN CAPITAL LETTER D
ENCODING 68
SWIDTH 500 0
DWIDTH 12 0
BBX 12 24 0 -5
BITMAP
0000
0000
0000
0000
7F80
60C0
6060
6060
6060
6060
6060
6060
6060
6060
6060
6060
6060
60C0
7F80
0000
0000
0000
0000
0000
ENDCHAR
STARTCHAR LATIN CAPITAL LETTER E
ENCODING 69
SWIDTH 500 0
DWIDTH 12 0
BBX 12 24 0 -5
BITMAP
0000
0000
0000
0000
1FE0
3000
6000
6000
6000
6000
6000
7F80
6000
6000
6000
6000
6000
3000
1FE0
0000
0000
0000
0000
0000
ENDCHAR
STARTCHAR LATIN CAPITAL LETTER F
ENCODING 70
SWIDTH 500 0
DWIDTH 12 0
BBX 12 24 0 -5
BITMAP
0000
0000
0000
0000
1FE0
3000
6000
6000
6000
6000
6000
7F80
6000
6000
6000
6000
6000
6000
6000
0000
0000
0000
0000
0000
ENDCHAR
STARTCHAR LATIN CAPITAL LETTER G
ENCODING 71
SWIDTH 500 0
DWIDTH 12 0
BBX 12 24 0 -5
BITMAP
0000
0000
0000
0000
1FE0
3000
6000
6000
6000
6000
63E0
6060
6060
6060
6060
6060
6060
3060
1FE0
0000
0000
0000
0000
0000
ENDCHAR
STARTCHAR LATIN CAPITAL LETTER H
ENCODING 72
SWIDTH 500 0
DWIDTH 12 0
BBX 12 24 0 -5
BITMAP
0000
0000
0000
0000
6060
6060
6060
6060
6060
6060
6060
7FE0
6060
6060
6060
6060
6060
6060
6060
0000
0000
0000
0000
0000
ENDCHAR
STARTCHAR LATIN CAPITAL LETTER I
ENCODING 73
SWIDTH 500 0
DWIDTH 12 0
BBX 12 24 0 -5
BITMAP
0000
0000
0000
0000
3FC0
0600
0600
0600
0600
0600
0600
0600
0600
0600
0600
0600
0600
0600
3FC0
0000
0000
0000
0000
0000
ENDCHAR
STARTCHAR LATIN CAPITAL LETTER J
ENCODING 74
SWIDTH 500 0
DWIDTH 12 0
BBX 12 24 0 -5
BITMAP
0000
0000
0000
0000
3FC0
0600
0600
0600
0600
0600
0600
0600
0600
0600
0600
0600
0600
0E00
7C00
0000
0000
0000
0000
0000
ENDCHAR
STARTCHAR LATIN CAPITAL LETTER K
ENCODING 75
SWIDTH 500 0
DWIDTH 12 0
BBX 12 24 0 -5
BITMAP
0000
0000
0000
0000
6060
6060
6060
6060
6060
60C0
6180
7F00
6180
60C0
6060
6060
6060
6060
6060
0000
0000
0000
0000
0000
ENDCHAR
STARTCHAR LATIN CAPITAL LETTER L
ENCODING 76
SWIDTH 500 0
DWIDTH 12 0
BBX 12 24 0 -5
BITMAP
0000
0000
0000
0000
6000
6000
6000
6000
6000
6000
6000
6000
6000
6000
6000
6000
6000
3000
1FE0
0000
0000
0000
0000
0000
ENDCHAR
STARTCHAR LATIN CAPITAL LETTER M
ENCODING 77
SWIDTH 500 0
DWIDTH 12 0
BBX 12 24 0 -5
BITMAP
0000
0000
0000
0000
6060
70E0
79E0
6F60
6660
6060
6060
6060
6060
6060
6060
6060
6060
6060
6060
0000
0000
0000
0000
0000
ENDCHAR
STARTCHAR LATIN CAPITAL LETTER N
ENCODING 78
SWIDTH 500 0
DWIDTH 12 0
BBX 12 24 0 -5
BITMAP
0000
0000
0000
0000
6060
7060
7060
7860
7860
6C60
6C60
6660
6660
6360
6360
61E0
61E0
60E0
60E0
0000
0000
0000
0000
0000
ENDCHAR
STARTCHAR LATIN CAPITAL LETTER O
ENCODING 79
SWIDTH 500 0
DWIDTH 12 0
BBX 12 24 0 -5
BITMAP
0000
0000
0000
0000
1F80
30C0
6060
6060
6060
6060
6060
6060
6060
6060
6060
6060
6060
30C0
1F80
0000
0000
0000
0000
0000
ENDCHAR
STARTCHAR LATIN CAPITAL LETTER P
ENCODING 80
SWIDTH 500 0
DWIDTH 12 0
BBX 12 24 0 -5
BITMAP
0000
0000
0000
0000
7F80
60C0
6060
6060
6060
6060
60C0
7F80
6000
6000
6000
6000
6000
6000
6000
0000
0000
0000
0000
0000
ENDCHAR
STARTCHAR LATIN CAPITAL LETTER Q
ENCODING 81
SWIDTH 500 0
DWIDTH 12 0
BBX 12 24 0 -5
BITMAP
0000
0000
0000
0000
1F80
30C0
6060
6060
6060
6060
6060
6060
6060
6060
6660
6660
6360
33C0
1F80
0180
00C0
00C0
0000
0000
ENDCHAR
STARTCHAR LATIN CAPITAL LETTER R
ENCODING 82
SWIDTH 500 0
DWIDTH 12 0
BBX 12 24 0 -5
BITMAP
0000
0000
0000
0000
7F80
60C0
6060
6060
6060
6060
60C0
7F80
60C0
6060
6060
6060
6060
6060
6060
0000
0000
0000
0000
0000
ENDCHAR
STARTCHAR LATIN CAPITAL LETTER S
ENCODING 83
SWIDTH 500 0
DWIDTH 12 0
BBX 12 24 0 -5
BITMAP
0000
0000
0000
0000
1FE0
3000
6000
6000
6000
6000
3000
1F80
00C0
0060
0060
0060
0060
00C0
7F80
0000
0000
0000
0000
0000
ENDCHAR
STARTCHAR LATIN CAPITAL LETTER T
ENCODING 84
SWIDTH 500 0
DWIDTH 12 0
BBX 12 24 0 -5
BITMAP
0000
0000
0000
0000
7FE0
0600
0600
0600
0600
0600
0600
0600
0600
0600
0600
0600
0600
0600
0600
0000
0000
0000
0000
0000
ENDCHAR
STARTCHAR LATIN CAPITAL LETTER U
ENCODING 85
SWIDTH 500 0
DWIDTH 12 0
BBX 12 24 0 -5
BITMAP
0000
0000
0000
0000
6060
6060
6060
6060
6060
6060
6060
6060
6060
6060
6060
6060
6060
3060
1FE0
0000
0000
0000
0000
0000
ENDCHAR
STARTCHAR LATIN CAPITAL LETTER V
ENCODING 86
SWIDTH 500 0
DWIDTH 12 0
BBX 12 24 0 -5
BITMAP
0000
0000
0000
0000
6060
6060
6060
6060
6060
6060
6060
6060
6060
6060
30C0
30C0
1980
0F00
0600
0000
0000
0000
0000
0000
ENDCHAR
STARTCHAR LATIN CAPITAL LETTER W
ENCODING 87
SWIDTH 500 0
DWIDTH 12 0
BBX 12 24 0 -5
BITMAP
0000
0000
0000
0000
6060
6060
6060
6060
6060
6060
6060
6060
6060
6060
6660
6F60
79E0
70E0
6060
0000
0000
0000
0000
0000
ENDCHAR
STARTCHAR LATIN CAPITAL LETTER X
ENCODING 88
SWIDTH 500 0
DWIDTH 12 0
BBX 12 24 0 -5
BITMAP
0000
0000
0000
0000
6060
6060
6060
6060
6060
6060
30C0
1F80
30C0
6060
6060
6060
6060
6060
6060
0000
0000
0000
0000
0000
ENDCHAR
STARTCHAR LATIN CAPITAL LETTER Y
ENCODING 89
SWIDTH 500 0
DWIDTH 12 0
BBX 12 24 0 -5
BITMAP
0000
0000
0000
0000
6060
6060
6060
6060
6060
6060
3060
1FE0
0060
0060
0060
0060
0060
00E0
7FC0
0000
0000
0000
0000
0000
ENDCHAR
STARTCHAR LATIN CAPITAL LETTER Z
ENCODING 90
SWIDTH 500 0
DWIDTH 12 0
BBX 12 24 0 -5
BITMAP
0000
0000
0000
0000
7FE0
0060
0060
0060
0060
00C0
0180
0300
0600
0C00
1800
3000
6000
6000
7FE0
0000
0000
0000
0000
0000
ENDCHAR
STARTCHAR LEFT SQUARE BRACKET
ENCODING 91
SWIDTH 500 0
DWIDTH 12 0
BBX 12 24 0 -5
BITMAP
0000
1FE0
1800
1800
1800
1800
1800
1800
1800
1800
1800
1800
1800
1800
1800
1800
1800
1800
1800
1800
1800
1800
1FE0
0000
ENDCHAR
STARTCHAR REVERSE SOLIDUS
ENCODING 92
SWIDTH 500 0
DWIDTH 12 0
BBX 12 24 0 -5
BITMAP
0000
0000
C000
C000
6000
6000
3000
3000
1800
1800
0C00
0C00
0600
0600
0300
0300
0180
0180
00C0
00C0
0060
0060
0000
0000
ENDCHAR
STARTCHAR RIGHT SQUARE BRACKET
ENCODING 93
SWIDTH 500 0
DWIDTH 12 0
BBX 12 24 0 -5
BITMAP
0000
7F80
0180
0180
0180
0180
0180
0180
0180
0180
0180
0180
0180
0180
0180
0180
0180
0180
0180
0180
0180
0180
7F80
0000
ENDCHAR
STARTCHAR CIRCUMFLEX ACCENT
ENCODING 94
SWIDTH 500 0
DWIDTH 12 0
BBX 12 24 0 -5
BITMAP
0000
0000
0400
0E00
1B00
3180
60C0
C060
0000
0000
0000
0000
0000
0000
0000
0000
0000
0000
0000
0000
0000
0000
0000
0000
ENDCHAR
STARTCHAR LOW LINE
ENCODING 95
SWIDTH 500 0
DWIDTH 12 0
BBX 12 24 0 -5
BITMAP
0000
0000
0000
0000
0000
0000
0000
0000
0000
0000
0000
0000
0000
0000
0000
0000
0000
0000
0000
0000
0000
0000
7FE0
0000
ENDCHAR
STARTCHAR GRAVE ACCENT
ENCODING 96
SWIDTH 500 0
DWIDTH 12 0
BBX 12 24 0 -5
BITMAP
0000
0000
1800
0C00
0600
0300
0000
0000
0000
0000
0000
0000
0000
0000
0000
0000
0000
0000
0000
0000
0000
0000
0000
0000
ENDCHAR
STARTCHAR LATIN SMALL LETTER A
ENCODING 97
SWIDTH 500 0
DWIDTH 12 0
BBX 12 24 0 -5
BITMAP
0000
0000
0000
0000
0000
0000
0000
0000
3F80
00C0
0060
0060
1FE0
3060
6060
6060
6060
3060
1FE0
0000
0000
0000
0000
0000
ENDCHAR
STARTCHAR LATIN SMALL LETTER B
ENCODING 98
SWIDTH 500 0
DWIDTH 12 0
BBX 12 24 0 -5
BITMAP
0000
0000
0000
0000
6000
6000
6000
6000
7F80
60C0
6060
6060
6060
6060
6060
6060
6060
60C0
7F80
0000
0000
0000
0000
0000
ENDCHAR
STARTCHAR LATIN SMALL LETTER C
ENCODING 99
SWIDTH 500 0
DWIDTH 12 0
BBX 12 24 0 -5
BITMAP
0000
0000
0000
0000
0000
0000
0000
0000
1FE0
3000
6000
6000
6000
6000
6000
6000
6000
3000
1FE0
0000
0000
0000
0000
0000
ENDCHAR
STARTCHAR LATIN SMALL LETTER D
ENCODING 100
SWIDTH 500 0
DWIDTH 12 0
BBX 12 24 0 -5
BITMAP
0000
0000
0000
0000
0060
0060
0060
0060
1FE0
3060
6060
6060
6060
6060
6060
6060
6060
3060
1FE0
0000
0000
0000
0000
0000
ENDCHAR
STARTCHAR LATIN SMALL LETTER E
ENCODING 101
SWIDTH 500 0
DWIDTH 12 0
BBX 12 24 0 -5
BITMAP
0000
0000
0000
0000
0000
0000
0000
0000
1FE0
3060
6060
6060
6060
7FE0
6000
6000
6000
3000
1FE0
0000
0000
0000
0000
0000
ENDCHAR
STARTCHAR LATIN SMALL LETTER F
ENCODING 102
SWIDTH 500 0
DWIDTH 12 0
BBX 12 24 0 -5
BITMAP
0000
0000
0000
0000
07C0
0E00
0C00
0C00
0C00
0C00
3F80
0C00
0C00
0C00
0C00
0C00
0C00
0C00
0C00
0000
0000
0000
0000
0000
ENDCHAR
STARTCHAR LATIN SMALL LETTER G
ENCODING 103
SWIDTH 500 0
DWIDTH 12 0
BBX 12 24 0 -5
BITMAP
0000
0000
0000
0000
0000
0000
0000
0000
1FE0
3060
6060
6060
6060
6060
6060
6060
6060
3060
1FC0
00C0
0060
0060
00C0
3F80
ENDCHAR
STARTCHAR LATIN SMALL LETTER H
ENCODING 104
SWIDTH 500 0
DWIDTH 12 0
BBX 12 24 0 -5
BITMAP
0000
0000
0000
0000
6000
6000
6000
6000
7F80
60C0
6060
6060
6060
6060
6060
6060
6060
6060
6060
0000
0000
0000
0000
0000
ENDCHAR
STARTCHAR LATIN SMALL LETTER I
ENCODING 105
SWIDTH 500 0
DWIDTH 12 0
BBX 12 24 0 -5
BITMAP
0000
0000
0000
0000
0600
0600
0000
0000
0600
0600
0600
0600
0600
0600
0600
0600
0600
0600
0600
0000
0000
0000
0000
0000
ENDCHAR
STARTCHAR LATIN SMALL LETTER J
ENCODING 106
SWIDTH 500 0
DWIDTH 12 0
BBX 12 24 0 -5
BITMAP
0000
0000
0000
0000
0600
0600
0000
0000
0600
0600
0600
0600
0600
0600
0600
0600
0600
0600
0600
0600
0600
0600
0C00
7800
ENDCHAR
STARTCHAR LATIN SMALL LETTER K
ENCODING 107
SWIDTH 500 0
DWIDTH 12 0
BBX 12 24 0 -5
BITMAP
0000
0000
0000
0000
6000
6000
6000
6000
6180
6180
6300
6600
7C00
6C00
6600
6300
6180
60C0
60C0
0000
0000
0000
0000
0000
ENDCHAR
STARTCHAR LATIN SMALL LETTER L
ENCODING 108
SWIDTH 500 0
DWIDTH 12 0
BBX 12 24 0 -5
BITMAP
0000
0000
0000
0000
0C00
0C00
0C00
0C00
0C00
0C00
0C00
0C00
0C00
0C00
0C00
0C00
0C00
0E00
07C0
0000
0000
0000
0000
0000
ENDCHAR
STARTCHAR LATIN SMALL LETTER M
ENCODING 109
SWIDTH 500 0
DWIDTH 12 0
BBX 12 24 0 -5
BITMAP
0000
0000
0000
0000
0000
0000
0000
0000
7980
66C0
6660
6660
6660
6660
6660
6660
6060
6060
6060
0000
0000
0000
0000
0000
ENDCHAR
STARTCHAR LATIN SMALL LETTER N
ENCODING 110
SWIDTH 500 0
DWIDTH 12 0
BBX 12 24 0 -5
BITMAP
0000
0000
0000
0000
0000
0000
0000
0000
7F80
60C0
6060
6060
6060
6060
6060
6060
6060
6060
6060
0000
0000
0000
0000
0000
ENDCHAR
STARTCHAR LATIN SMALL LETTER O
ENCODING 111
SWIDTH 500 0
DWIDTH 12 0
BBX 12 24 0 -5
BITMAP
0000
0000
0000
0000
0000
0000
0000
0000
1F80
30C0
6060
6060
6060
6060
6060
6060
6060
30C0
1F80
0000
0000
0000
0000
0000
ENDCHAR
STARTCHAR LATIN SMALL LETTER P
ENCODING 112
SWIDTH 500 0
DWIDTH 12 0
BBX 12 24 0 -5
BITMAP
0000
0000
0000
0000
0000
0000
0000
0000
7F80
60C0
6060
6060
6060
6060
6060
6060
6060
60C0
7F80
6000
6000
6000
6000
6000
ENDCHAR
STARTCHAR LATIN SMALL LETTER Q
ENCODING 113
SWIDTH 500 0
DWIDTH 12 0
BBX 12 24 0 -5
BITMAP
0000
0000
0000
0000
0000
0000
0000
0000
1FE0
3060
6060
6060
6060
6060
6060
6060
6060
3060
1FE0
0060
0060
0060
0060
0060
ENDCHAR
STARTCHAR LATIN SMALL LETTER R
ENCODING 114
SWIDTH 500 0
DWIDTH 12 0
BBX 12 24 0 -5
BITMAP
0000
0000
0000
0000
0000
0000
0000
0000
1FE0
3060
6000
6000
6000
6000
6000
6000
6000
6000
6000
0000
0000
0000
0000
0000
ENDCHAR
STARTCHAR LATIN SMALL LETTER S
ENCODING 115
SWIDTH 500 0
DWIDTH 12 0
BBX 12 24 0 -5
BITMAP
0000
0000
0000
0000
0000
0000
0000
0000
3FE0
6000
6000
6000
6000
3FC0
0060
0060
0060
0060
7FC0
0000
0000
0000
0000
0000
ENDCHAR
STARTCHAR LATIN SMALL LETTER T
ENCODING 116
SWIDTH 500 0
DWIDTH 12 0
BBX 12 24 0 -5
BITMAP
0000
0000
0000
0000
0C00
0C00
0C00
0C00
3F80
0C00
0C00
0C00
0C00
0C00
0C00
0C00
0C00
0E00
07C0
0000
0000
0000
0000
0000
ENDCHAR
STARTCHAR LATIN SMALL LETTER U
ENCODING 117
SWIDTH 500 0
DWIDTH 12 0
BBX 12 24 0 -5
BITMAP
0000
0000
0000
0000
0000
0000
0000
0000
6060
6060
6060
6060
6060
6060
6060
6060
6060
3060
1FE0
0000
0000
0000
0000
0000
ENDCHAR
STARTCHAR LATIN SMALL LETTER V
ENCODING 118
SWIDTH 500 0
DWIDTH 12 0
BBX 12 24 0 -5
BITMAP
0000
0000
0000
0000
0000
0000
0000
0000
6060
6060
6060
6060
6060
6060
30C0
30C0
1980
0F00
0600
0000
0000
0000
0000
0000
ENDCHAR
STARTCHAR LATIN SMALL LETTER W
ENCODING 119
SWIDTH 500 0
DWIDTH 12 0
BBX 12 24 0 -5
BITMAP
0000
0000
0000
0000
0000
0000
0000
0000
6060
6060
6060
6660
6660
6660
6660
6660
6660
3660
19E0
0000
0000
0000
0000
0000
ENDCHAR
STARTCHAR LATIN SMALL LETTER X
ENCODING 120
SWIDTH 500 0
DWIDTH 12 0
BBX 12 24 0 -5
BITMAP
0000
0000
0000
0000
0000
0000
0000
0000
6060
6060
30C0
1980
0F00
0F00
1980
30C0
30C0
6060
6060
0000
0000
0000
0000
0000
ENDCHAR
STARTCHAR LATIN SMALL LETTER Y
ENCODING 121
SWIDTH 500 0
DWIDTH 12 0
BBX 12 24 0 -5
BITMAP
0000
0000
0000
0000
0000
0000
0000
0000
6060
6060
6060
6060
6060
6060
6060
6060
6060
3060
1FE0
0060
0060
0060
00C0
7F80
ENDCHAR
STARTCHAR LATIN SMALL LETTER Z
ENCODING 122
SWIDTH 500 0
DWIDTH 12 0
BBX 12 24 0 -5
BITMAP
0000
0000
0000
0000
0000
0000
0000
0000
7FE0
0060
0060
00C0
0180
0300
0600
0C00
1800
3000
7FE0
0000
0000
0000
0000
0000
ENDCHAR
STARTCHAR LEFT CURLY BRACKET
ENCODING 123
SWIDTH 500 0
DWIDTH 12 0
BBX 12 24 0 -5
BITMAP
0000
01E0
0300
0600
0600
0600
0600
0600
0600
0600
0C00
3800
3800
0C00
0600
0600
0600
0600
0600
0600
0600
0300
01E0
0000
ENDCHAR
STARTCHAR VERTICAL LINE
ENCODING 124
SWIDTH 500 0
DWIDTH 12 0
BBX 12 24 0 -5
BITMAP
0000
0000
0000
0600
0600
0600
0600
0600
0600
0600
0600
0600
0600
0600
0600
0600
0600
0600
0600
0600
0600
0000
0000
0000
ENDCHAR
STARTCHAR RIGHT CURLY BRACKET
ENCODING 125
SWIDTH 500 0
DWIDTH 12 0
BBX 12 24 0 -5
BITMAP
0000
3C00
0600
0300
0300
0300
0300
0300
0300
0300
0180
00E0
00E0
0180
0300
0300
0300
0300
0300
0300
0300
0600
3C00
0000
ENDCHAR
STARTCHAR TILDE
ENCODING 126
SWIDTH 500 0
DWIDTH 12 0
BBX 12 24 0 -5
BITMAP
0000
0000
0000
3860
6C60
C6C0
C380
0000
0000
0000
0000
0000
0000
0000
0000
0000
0000
0000
0000
0000
0000
0000
0000
0000
ENDCHAR
STARTCHAR <control>
ENCODING 127
SWIDTH 500 0
DWIDTH 12 0
BBX 12 24 0 -5
BITMAP
0000
0000
0000
0000
0000
0000
0000
0000
0000
0000
0000
0000
0000
0000
0000
0000
0000
0000
0000
0000
0000
0000
0000
0000
ENDCHAR
STARTCHAR NO-BREAK SPACE
ENCODING 160
SWIDTH 500 0
DWIDTH 12 0
BBX 12 24 0 -5
BITMAP
0000
0000
0000
0000
0000
0000
0000
0000
0000
0000
0000
0000
0000
0000
0000
0000
0000
0000
0000
0000
0000
0000
0000
0000
ENDCHAR
STARTCHAR INVERTED EXCLAMATION MARK
ENCODING 161
SWIDTH 500 0
DWIDTH 12 0
BBX 12 24 0 -5
BITMAP
0000
0000
0000
0000
0600
0600
0000
0000
0600
0600
0600
0600
0600
0600
0600
0600
0600
0600
0600
0000
0000
0000
0000
0000
ENDCHAR
STARTCHAR CENT SIGN
ENCODING 162
SWIDTH 500 0
DWIDTH 12 0
BBX 12 24 0 -5
BITMAP
0000
0000
0000
0000
0000
0000
0300
0300
1FE0
3300
6300
6300
6300
6300
6300
6300
6300
3300
1FE0
0300
0300
0000
0000
0000
ENDCHAR
STARTCHAR POUND SIGN
ENCODING 163
SWIDTH 500 0
DWIDTH 12 0
BBX 12 24 0 -5
BITMAP
0000
0000
0000
0000
0700
0D80
18C0
18C0
1800
1800
1800
7F80
1800
1800
1800
1800
3000
3000
7FE0
0000
0000
0000
0000
0000
ENDCHAR
STARTCHAR CURRENCY SIGN
ENCODING 164
SWIDTH 500 0
DWIDTH 12 0
BBX 12 24 0 -5
BITMAP
0000
0000
0000
0000
0000
0000
30C0
1980
0F00
1F80
30C0
30C0
30C0
30C0
1F80
0F00
1980
30C0
0000
0000
0000
0000
0000
0000
ENDCHAR
STARTCHAR YEN SIGN
ENCODING 165
SWIDTH 500 0
DWIDTH 12 0
BBX 12 24 0 -5
BITMAP
0000
0000
0000
0000
6060
6060
30C0
30C0
1980
1980
0F00
0F00
0600
3FC0
0600
0600
3FC0
0600
0600
0000
0000
0000
0000
0000
ENDCHAR
STARTCHAR BROKEN BAR
ENCODING 166
SWIDTH 500 0
DWIDTH 12 0
BBX 12 24 0 -5
BITMAP
0000
0000
0000
0600
0600
0600
0600
0600
0600
0600
0600
0000
0000
0600
0600
0600
0600
0600
0600
0600
0600
0000
0000
0000
ENDCHAR
STARTCHAR SECTION SIGN
ENCODING 167
SWIDTH 500 0
DWIDTH 12 0
BBX 12 24 0 -5
BITMAP
0000
0000
0000
0F80
1980
3180
3000
1800
0E00
1F80
30C0
30C0
30C0
30C0
1F80
0700
0180
00C0
18C0
1980
1F00
0000
0000
0000
ENDCHAR
STARTCHAR DIAERESIS
ENCODING 168
SWIDTH 500 0
DWIDTH 12 0
BBX 12 24 0 -5
BITMAP
0000
0000
0000
30C0
30C0
0000
0000
0000
0000
0000
0000
0000
0000
0000
0000
0000
0000
0000
0000
0000
0000
0000
0000
0000
ENDCHAR
STARTCHAR COPYRIGHT SIGN
ENCODING 169
SWIDTH 500 0
DWIDTH 12 0
BBX 12 24 0 -5
BITMAP
0000
0000
0000
0000
0000
0000
0000
1F80
30C0
6060
6760
6C60
6C60
6C60
6C60
6760
6060
30C0
1F80
0000
0000
0000
0000
0000
ENDCHAR
STARTCHAR FEMININE ORDINAL INDICATOR
ENCODING 170
SWIDTH 500 0
DWIDTH 12 0
BBX 12 24 0 -5
BITMAP
0000
0000
0F00
0180
0180
0F80
1980
1980
0F80
0000
1F80
0000
0000
0000
0000
0000
0000
0000
0000
0000
0000
0000
0000
0000
ENDCHAR
STARTCHAR LEFT-POINTING DOUBLE ANGLE QUOTATION MARK
ENCODING 171
SWIDTH 500 0
DWIDTH 12 0
BBX 12 24 0 -5
BITMAP
0000
0000
0000
0000
0000
0000
0000
0000
0000
0660
0CC0
1980
3300
6600
3300
1980
0CC0
0660
0000
0000
0000
0000
0000
0000
ENDCHAR
STARTCHAR NOT SIGN
ENCODING 172
SWIDTH 500 0
DWIDTH 12 0
BBX 12 24 0 -5
BITMAP
0000
0000
0000
0000
0000
0000
0000
0000
0000
7FE0
0060
0060
0060
0060
0060
0000
0000
0000
0000
0000
0000
0000
0000
0000
ENDCHAR
STARTCHAR SOFT HYPHEN
ENCODING 173
SWIDTH 500 0
DWIDTH 12 0
BBX 12 24 0 -5
BITMAP
0000
0000
0000
0000
0000
0000
0000
0000
0000
0000
0000
0000
1F80
0000
0000
0000
0000
0000
0000
0000
0000
0000
0000
0000
ENDCHAR
STARTCHAR REGISTERED SIGN
ENCODING 174
SWIDTH 500 0
DWIDTH 12 0
BBX 12 24 0 -5
BITMAP
0000
0000
0000
0000
0000
0000
0000
1F80
30C0
6060
6E60
6D60
6D60
6E60
6D60
6D60
6060
30C0
1F80
0000
0000
0000
0000
0000
ENDCHAR
STARTCHAR MACRON
ENCODING 175
SWIDTH 500 0
DWIDTH 12 0
BBX 12 24 0 -5
BITMAP
0000
0000
1F80
0000
0000
0000
0000
0000
0000
0000
0000
0000
0000
0000
0000
0000
0000
0000
0000
0000
0000
0000
0000
0000
ENDCHAR
STARTCHAR DEGREE SIGN
ENCODING 176
SWIDTH 500 0
DWIDTH 12 0
BBX 12 24 0 -5
BITMAP
0000
0000
0000
0F00
1980
1980
1980
1980
0F00
0000
0000
0000
0000
0000
0000
0000
0000
0000
0000
0000
0000
0000
0000
0000
ENDCHAR
STARTCHAR PLUS-MINUS SIGN
ENCODING 177
SWIDTH 500 0
DWIDTH 12 0
BBX 12 24 0 -5
BITMAP
0000
0000
0000
0000
0000
0000
0000
0600
0600
0600
3FC0
0600
0600
0600
0000
0000
3FC0
0000
0000
0000
0000
0000
0000
0000
ENDCHAR
STARTCHAR SUPERSCRIPT TWO
ENCODING 178
SWIDTH 500 0
DWIDTH 12 0
BBX 12 24 0 -5
BITMAP
0000
0000
0000
0F00
1980
0180
0300
0600
0C00
1980
1F80
0000
0000
0000
0000
0000
0000
0000
0000
0000
0000
0000
0000
0000
ENDCHAR
STARTCHAR SUPERSCRIPT THREE
ENCODING 179
SWIDTH 500 0
DWIDTH 12 0
BBX 12 24 0 -5
BITMAP
0000
0000
0000
0F00
1980
0180
0700
0180
0180
1980
0F00
0000
0000
0000
0000
0000
0000
0000
0000
0000
0000
0000
0000
0000
ENDCHAR
STARTCHAR ACUTE ACCENT
ENCODING 180
SWIDTH 500 0
DWIDTH 12 0
BBX 12 24 0 -5
BITMAP
0000
0000
0180
0300
0600
0C00
0000
0000
0000
0000
0000
0000
0000
0000
0000
0000
0000
0000
0000
0000
0000
0000
0000
0000
ENDCHAR
STARTCHAR MICRO SIGN
ENCODING 181
SWIDTH 500 0
DWIDTH 12 0
BBX 12 24 0 -5
BITMAP
0000
0000
0000
0000
0000
0000
0000
0000
6180
6180
6180
6180
6180
6180
6180
6180
6180
73C0
6E60
6000
6000
6000
6000
6000
ENDCHAR
STARTCHAR PILCROW SIGN
ENCODING 182
SWIDTH 500 0
DWIDTH 12 0
BBX 12 24 0 -5
BITMAP
0000
0000
0000
0000
1FE0
3660
6660
6660
6660
6660
3660
1E60
0660
0660
0660
0660
0660
0660
0660
0000
0000
0000
0000
0000
ENDCHAR
STARTCHAR MIDDLE DOT
ENCODING 183
SWIDTH 500 0
DWIDTH 12 0
BBX 12 24 0 -5
BITMAP
0000
0000
0000
0000
0000
0000
0000
0000
0000
0000
0000
0600
0600
0000
0000
0000
0000
0000
0000
0000
0000
0000
0000
0000
ENDCHAR
STARTCHAR CEDILLA
ENCODING 184
SWIDTH 500 0
DWIDTH 12 0
BBX 12 24 0 -5
BITMAP
0000
0000
0000
0000
0000
0000
0000
0000
0000
0000
0000
0000
0000
0000
0000
0000
0000
0000
0000
0300
0300
0300
0600
0C00
ENDCHAR
STARTCHAR SUPERSCRIPT ONE
ENCODING 185
SWIDTH 500 0
DWIDTH 12 0
BBX 12 24 0 -5
BITMAP
0000
0000
0000
0600
0E00
1E00
0600
0600
0600
0600
0F00
0000
0000
0000
0000
0000
0000
0000
0000
0000
0000
0000
0000
0000
ENDCHAR
STARTCHAR MASCULINE ORDINAL INDICATOR
ENCODING 186
SWIDTH 500 0
DWIDTH 12 0
BBX 12 24 0 -5
BITMAP
0000
0000
0000
0F00
1980
1980
1980
1980
0F00
0000
1F80
0000
0000
0000
0000
0000
0000
0000
0000
0000
0000
0000
0000
0000
ENDCHAR
STARTCHAR RIGHT-POINTING DOUBLE ANGLE QUOTATION MARK
ENCODING 187
SWIDTH 500 0
DWIDTH 12 0
BBX 12 24 0 -5
BITMAP
0000
0000
0000
0000
0000
0000
0000
0000
0000
6600
3300
1980
0CC0
0660
0CC0
1980
3300
6600
0000
0000
0000
0000
0000
0000
ENDCHAR
STARTCHAR VULGAR FRACTION ONE QUARTER
ENCODING 188
SWIDTH 500 0
DWIDTH 12 0
BBX 12 24 0 -5
BITMAP
0000
0000
1800
3800
7800
1800
1800
1860
18C0
3D80
0300
0600
0C00
1800
3000
6600
0600
06C0
06C0
07E0
00C0
00C0
0000
0000
ENDCHAR
STARTCHAR VULGAR FRACTION ONE HALF
ENCODING 189
SWIDTH 500 0
DWIDTH 12 0
BBX 12 24 0 -5
BITMAP
0000
0000
1800
3800
7800
1800
1800
1860
18C0
3D80
0300
0600
0C00
1800
33C0
6660
0060
00C0
0180
0300
0660
07E0
0000
0000
ENDCHAR
STARTCHAR VULGAR FRACTION THREE QUARTERS
ENCODING 190
SWIDTH 500 0
DWIDTH 12 0
BBX 12 24 0 -5
BITMAP
0000
0000
3C00
6600
0600
1C00
0600
6660
3CC0
0180
0300
0600
0C00
1800
3000
6600
0600
06C0
06C0
07E0
00C0
00C0
0000
0000
ENDCHAR
STARTCHAR INVERTED QUESTION MARK
ENCODING 191
SWIDTH 500 0
DWIDTH 12 0
BBX 12 24 0 -5
BITMAP
0000
0000
0000
0000
0600
0600
0000
0000
0600
0600
0600
0C00
1800
3000
6000
6000
6060
30C0
1F80
0000
0000
0000
0000
0000
ENDCHAR
STARTCHAR LATIN CAPITAL LETTER A WITH GRAVE
ENCODING 192
SWIDTH 500 0
DWIDTH 12 0
BBX 12 24 0 -5
BITMAP
1800
0C00
0600
0000
1F80
30C0
6060
6060
6060
6060
6060
7FE0
6060
6060
6060
6060
6060
6060
6060
0000
0000
0000
0000
0000
ENDCHAR
STARTCHAR LATIN CAPITAL LETTER A WITH ACUTE
ENCODING 193
SWIDTH 500 0
DWIDTH 12 0
BBX 12 24 0 -5
BITMAP
0180
0300
0600
0000
1F80
30C0
6060
6060
6060
6060
6060
7FE0
6060
6060
6060
6060
6060
6060
6060
0000
0000
0000
0000
0000
ENDCHAR
STARTCHAR LATIN CAPITAL LETTER A WITH CIRCUMFLEX
ENCODING 194
SWIDTH 500 0
DWIDTH 12 0
BBX 12 24 0 -5
BITMAP
0F00
1980
30C0
0000
1F80
30C0
6060
6060
6060
6060
6060
7FE0
6060
6060
6060
6060
6060
6060
6060
0000
0000
0000
0000
0000
ENDCHAR
STARTCHAR LATIN CAPITAL LETTER A WITH TILDE
ENCODING 195
SWIDTH 500 0
DWIDTH 12 0
BBX 12 24 0 -5
BITMAP
1C60
3FC0
6380
0000
1F80
30C0
6060
6060
6060
6060
6060
7FE0
6060
6060
6060
6060
6060
6060
6060
0000
0000
0000
0000
0000
ENDCHAR
STARTCHAR LATIN CAPITAL LETTER A WITH DIAERESIS
ENCODING 196
SWIDTH 500 0
DWIDTH 12 0
BBX 12 24 0 -5
BITMAP
0000
30C0
30C0
0000
1F80
30C0
6060
6060
6060
6060
6060
7FE0
6060
6060
6060
6060
6060
6060
6060
0000
0000
0000
0000
0000
ENDCHAR
STARTCHAR LATIN CAPITAL LETTER A WITH RING ABOVE
ENCODING 197
SWIDTH 500 0
DWIDTH 12 0
BBX 12 24 0 -5
BITMAP
0F00
1980
1980
0F00
1F80
30C0
6060
6060
6060
6060
6060
7FE0
6060
6060
6060
6060
6060
6060
6060
0000
0000
0000
0000
0000
ENDCHAR
STARTCHAR LATIN CAPITAL LETTER AE
ENCODING 198
SWIDTH 500 0
DWIDTH 12 0
BBX 12 24 0 -5
BITMAP
0000
0000
0000
0000
1FE0
3300
6300
6300
6300
6300
6300
7FC0
6300
6300
6300
6300
6300
6300
63E0
0000
0000
0000
0000
0000
ENDCHAR
STARTCHAR LATIN CAPITAL LETTER C WITH CEDILLA
ENCODING 199
SWIDTH 500 0
DWIDTH 12 0
BBX 12 24 0 -5
BITMAP
0000
0000
0000
0000
1FE0
3000
6000
6000
6000
6000
6000
6000
6000
6000
6000
6000
6000
3000
1FE0
0300
0300
0300
0600
0C00
ENDCHAR
STARTCHAR LATIN CAPITAL LETTER E WITH GRAVE
ENCODING 200
SWIDTH 500 0
DWIDTH 12 0
BBX 12 24 0 -5
BITMAP
1800
0C00
0600
0000
1FE0
3000
6000
6000
6000
6000
6000
7F80
6000
6000
6000
6000
6000
3000
1FE0
0000
0000
0000
0000
0000
ENDCHAR
STARTCHAR LATIN CAPITAL LETTER E WITH ACUTE
ENCODING 201
SWIDTH 500 0
DWIDTH 12 0
BBX 12 24 0 -5
BITMAP
0180
0300
0600
0000
1FE0
3000
6000
6000
6000
6000
6000
7F80
6000
6000
6000
6000
6000
3000
1FE0
0000
0000
0000
0000
0000
ENDCHAR
STARTCHAR LATIN CAPITAL LETTER E WITH CIRCUMFLEX
ENCODING 202
SWIDTH 500 0
DWIDTH 12 0
BBX 12 24 0 -5
BITMAP
0F00
1980
30C0
0000
1FE0
3000
6000
6000
6000
6000
6000
7F80
6000
6000
6000
6000
6000
3000
1FE0
0000
0000
0000
0000
0000
ENDCHAR
STARTCHAR LATIN CAPITAL LETTER E WITH DIAERESIS
ENCODING 203
SWIDTH 500 0
DWIDTH 12 0
BBX 12 24 0 -5
BITMAP
1C60
3FC0
6380
0000
1FE0
3000
6000
6000
6000
6000
6000
7F80
6000
6000
6000
6000
6000
3000
1FE0
0000
0000
0000
0000
0000
ENDCHAR
STARTCHAR LATIN CAPITAL LETTER I WITH GRAVE
ENCODING 204
SWIDTH 500 0
DWIDTH 12 0
BBX 12 24 0 -5
BITMAP
0C00
0600
0300
0000
3FC0
0600
0600
0600
0600
0600
0600
0600
0600
0600
0600
0600
0600
0600
3FC0
0000
0000
0000
0000
0000
ENDCHAR
STARTCHAR LATIN CAPITAL LETTER I WITH ACUTE
ENCODING 205
SWIDTH 500 0
DWIDTH 12 0
BBX 12 24 0 -5
BITMAP
0300
0600
0C00
0000
3FC0
0600
0600
0600
0600
0600
0600
0600
0600
0600
0600
0600
0600
0600
3FC0
0000
0000
0000
0000
0000
ENDCHAR
STARTCHAR LATIN CAPITAL LETTER I WITH CIRCUMFLEX
ENCODING 206
SWIDTH 500 0
DWIDTH 12 0
BBX 12 24 0 -5
BITMAP
0F00
1980
30C0
0000
3FC0
0600
0600
0600
0600
0600
0600
0600
0600
0600
0600
0600
0600
0600
3FC0
0000
0000
0000
0000
0000
ENDCHAR
STARTCHAR LATIN CAPITAL LETTER I WITH DIAERESIS
ENCODING 207
SWIDTH 500 0
DWIDTH 12 0
BBX 12 24 0 -5
BITMAP
1C60
3FC0
6380
0000
3FC0
0600
0600
0600
0600
0600
0600
0600
0600
0600
0600
0600
0600
0600
3FC0
0000
0000
0000
0000
0000
ENDCHAR
STARTCHAR LATIN CAPITAL LETTER ETH
ENCODING 208
SWIDTH 500 0
DWIDTH 12 0
BBX 12 24 0 -5
BITMAP
0000
0000
0000
0000
7FC0
60E0
6060
6060
6060
6060
6060
FC60
FC60
6060
6060
6060
6060
60E0
7FC0
0000
0000
0000
0000
0000
ENDCHAR
STARTCHAR LATIN CAPITAL LETTER N WITH TILDE
ENCODING 209
SWIDTH 500 0
DWIDTH 12 0
BBX 12 24 0 -5
BITMAP
1C60
3FC0
6380
0000
6060
7060
7060
7860
7860
6C60
6C60
6660
6660
6360
6360
61E0
61E0
60E0
60E0
0000
0000
0000
0000
0000
ENDCHAR
STARTCHAR LATIN CAPITAL LETTER O WITH GRAVE
ENCODING 210
SWIDTH 500 0
DWIDTH 12 0
BBX 12 24 0 -5
BITMAP
1800
0C00
0600
0000
1F80
30C0
6060
6060
6060
6060
6060
6060
6060
6060
6060
6060
6060
30C0
1F80
0000
0000
0000
0000
0000
ENDCHAR
STARTCHAR LATIN CAPITAL LETTER O WITH ACUTE
ENCODING 211
SWIDTH 500 0
DWIDTH 12 0
BBX 12 24 0 -5
BITMAP
0180
0300
0600
0000
1F80
30C0
6060
6060
6060
6060
6060
6060
6060
6060
6060
6060
6060
30C0
1F80
0000
0000
0000
0000
0000
ENDCHAR
STARTCHAR LATIN CAPITAL LETTER O WITH CIRCUMFLEX
ENCODING 212
SWIDTH 500 0
DWIDTH 12 0
BBX 12 24 0 -5
BITMAP
0F00
1980
30C0
0000
1F80
30C0
6060
6060
6060
6060
6060
6060
6060
6060
6060
6060
6060
30C0
1F80
0000
0000
0000
0000
0000
ENDCHAR
STARTCHAR LATIN CAPITAL LETTER O WITH TILDE
ENCODING 213
SWIDTH 500 0
DWIDTH 12 0
BBX 12 24 0 -5
BITMAP
1C60
3FC0
6380
0000
1F80
30C0
6060
6060
6060
6060
6060
6060
6060
6060
6060
6060
6060
30C0
1F80
0000
0000
0000
0000
0000
ENDCHAR
STARTCHAR LATIN CAPITAL LETTER O WITH DIAERESIS
ENCODING 214
SWIDTH 500 0
DWIDTH 12 0
BBX 12 24 0 -5
BITMAP
0000
30C0
30C0
0000
1F80
30C0
6060
6060
6060
6060
6060
6060
6060
6060
6060
6060
6060
30C0
1F80
0000
0000
0000
0000
0000
ENDCHAR
STARTCHAR MULTIPLICATION SIGN
ENCODING 215
SWIDTH 500 0
DWIDTH 12 0
BBX 12 24 0 -5
BITMAP
0000
0000
0000
0000
0000
0000
0000
6060
30C0
1980
0F00
0600
0600
0F00
1980
30C0
6060
0000
0000
0000
0000
0000
0000
0000
ENDCHAR
STARTCHAR LATIN CAPITAL LETTER O WITH STROKE
ENCODING 216
SWIDTH 500 0
DWIDTH 12 0
BBX 12 24 0 -5
BITMAP
0000
0000
0000
0060
1FE0
30C0
60E0
61E0
61E0
6360
6360
6660
6660
6C60
6C60
7860
7860
30C0
3F80
6000
6000
0000
0000
0000
ENDCHAR
STARTCHAR LATIN CAPITAL LETTER U WITH GRAVE
ENCODING 217
SWIDTH 500 0
DWIDTH 12 0
BBX 12 24 0 -5
BITMAP
1800
0C00
0600
0000
6060
6060
6060
6060
6060
6060
6060
6060
6060
6060
6060
6060
6060
3060
1FE0
0000
0000
0000
0000
0000
ENDCHAR
STARTCHAR LATIN CAPITAL LETTER U WITH ACUTE
ENCODING 218
SWIDTH 500 0
DWIDTH 12 0
BBX 12 24 0 -5
BITMAP
0180
0300
0600
0000
6060
6060
6060
6060
6060
6060
6060
6060
6060
6060
6060
6060
6060
3060
1FE0
0000
0000
0000
0000
0000
ENDCHAR
STARTCHAR LATIN CAPITAL LETTER U WITH CIRCUMFLEX
ENCODING 219
SWIDTH 500 0
DWIDTH 12 0
BBX 12 24 0 -5
BITMAP
0F00
1980
30C0
0000
6060
6060
6060
6060
6060
6060
6060
6060
6060
6060
6060
6060
6060
3060
1FE0
0000
0000
0000
0000
0000
ENDCHAR
STARTCHAR LATIN CAPITAL LETTER U WITH DIAERESIS
ENCODING 220
SWIDTH 500 0
DWIDTH 12 0
BBX 12 24 0 -5
BITMAP
1C60
3FC0
6380
0000
6060
6060
6060
6060
6060
6060
6060
6060
6060
6060
6060
6060
6060
3060
1FE0
0000
0000
0000
0000
0000
ENDCHAR
STARTCHAR LATIN CAPITAL LETTER Y WITH ACUTE
ENCODING 221
SWIDTH 500 0
DWIDTH 12 0
BBX 12 24 0 -5
BITMAP
0180
0300
0600
0000
6060
6060
6060
6060
6060
6060
3060
1FE0
0060
0060
0060
0060
0060
00E0
7FC0
0000
0000
0000
0000
0000
ENDCHAR
STARTCHAR LATIN CAPITAL LETTER THORN
ENCODING 222
SWIDTH 500 0
DWIDTH 12 0
BBX 12 24 0 -5
BITMAP
0000
0000
0000
0000
0000
6000
6000
6000
7F80
60C0
6060
6060
6060
6060
6060
6060
6060
60C0
7F80
6000
6000
6000
0000
0000
ENDCHAR
STARTCHAR LATIN SMALL LETTER SHARP S
ENCODING 223
SWIDTH 500 0
DWIDTH 12 0
BBX 12 24 0 -5
BITMAP
0000
0000
0000
0000
1E00
3300
6180
6180
6180
6180
6300
7F00
6380
60C0
6060
6060
6060
7860
6CC0
6780
0000
0000
0000
0000
ENDCHAR
STARTCHAR LATIN SMALL LETTER A WITH GRAVE
ENCODING 224
SWIDTH 500 0
DWIDTH 12 0
BBX 12 24 0 -5
BITMAP
0000
0000
1800
0C00
0600
0300
0000
0000
3F80
00C0
0060
0060
1FE0
3060
6060
6060
6060
3060
1FE0
0000
0000
0000
0000
0000
ENDCHAR
STARTCHAR LATIN SMALL LETTER A WITH ACUTE
ENCODING 225
SWIDTH 500 0
DWIDTH 12 0
BBX 12 24 0 -5
BITMAP
0000
0000
0180
0300
0600
0C00
0000
0000
3F80
00C0
0060
0060
1FE0
3060
6060
6060
6060
3060
1FE0
0000
0000
0000
0000
0000
ENDCHAR
STARTCHAR LATIN SMALL LETTER A WITH CIRCUMFLEX
ENCODING 226
SWIDTH 500 0
DWIDTH 12 0
BBX 12 24 0 -5
BITMAP
0000
0000
0600
0F00
1980
30C0
0000
0000
3F80
00C0
0060
0060
1FE0
3060
6060
6060
6060
3060
1FE0
0000
0000
0000
0000
0000
ENDCHAR
STARTCHAR LATIN SMALL LETTER A WITH TILDE
ENCODING 227
SWIDTH 500 0
DWIDTH 12 0
BBX 12 24 0 -5
BITMAP
0000
0000
1860
3C60
66C0
6380
0000
0000
3F80
00C0
0060
0060
1FE0
3060
6060
6060
6060
3060
1FE0
0000
0000
0000
0000
0000
ENDCHAR
STARTCHAR LATIN SMALL LETTER A WITH DIAERESIS
ENCODING 228
SWIDTH 500 0
DWIDTH 12 0
BBX 12 24 0 -5
BITMAP
0000
0000
0000
30C0
30C0
0000
0000
0000
3F80
00C0
0060
0060
1FE0
3060
6060
6060
6060
3060
1FE0
0000
0000
0000
0000
0000
ENDCHAR
STARTCHAR LATIN SMALL LETTER A WITH RING ABOVE
ENCODING 229
SWIDTH 500 0
DWIDTH 12 0
BBX 12 24 0 -5
BITMAP
0000
0000
0F00
1980
1980
0F00
0000
0000
3F80
00C0
0060
0060
1FE0
3060
6060
6060
6060
3060
1FE0
0000
0000
0000
0000
0000
ENDCHAR
STARTCHAR LATIN SMALL LETTER AE
ENCODING 230
SWIDTH 500 0
DWIDTH 12 0
BBX 12 24 0 -5
BITMAP
0000
0000
0000
0000
0000
0000
0000
0000
39E0
0F60
0660
0660
1FE0
3600
6600
6600
6600
3700
1DE0
0000
0000
0000
0000
0000
ENDCHAR
STARTCHAR LATIN SMALL LETTER C WITH CEDILLA
ENCODING 231
SWIDTH 500 0
DWIDTH 12 0
BBX 12 24 0 -5
BITMAP
0000
0000
0000
0000
0000
0000
0000
0000
1FE0
3000
6000
6000
6000
6000
6000
6000
6000
3000
1FE0
0300
0300
0300
0600
0C00
ENDCHAR
STARTCHAR LATIN SMALL LETTER E WITH GRAVE
ENCODING 232
SWIDTH 500 0
DWIDTH 12 0
BBX 12 24 0 -5
BITMAP
0000
0000
1800
0C00
0600
0300
0000
0000
1FE0
3060
6060
6060
6060
7FE0
6000
6000
6000
3000
1FE0
0000
0000
0000
0000
0000
ENDCHAR
STARTCHAR LATIN SMALL LETTER E WITH ACUTE
ENCODING 233
SWIDTH 500 0
DWIDTH 12 0
BBX 12 24 0 -5
BITMAP
0000
0000
0180
0300
0600
0C00
0000
0000
1FE0
3060
6060
6060
6060
7FE0
6000
6000
6000
3000
1FE0
0000
0000
0000
0000
0000
ENDCHAR
STARTCHAR LATIN SMALL LETTER E WITH CIRCUMFLEX
ENCODING 234
SWIDTH 500 0
DWIDTH 12 0
BBX 12 24 0 -5
BITMAP
0000
0000
0600
0F00
1980
30C0
0000
0000
1FE0
3060
6060
6060
6060
7FE0
6000
6000
6000
3000
1FE0
0000
0000
0000
0000
0000
ENDCHAR
STARTCHAR LATIN SMALL LETTER E WITH DIAERESIS
ENCODING 235
SWIDTH 500 0
DWIDTH 12 0
BBX 12 24 0 -5
BITMAP
0000
0000
0000
30C0
30C0
0000
0000
0000
1FE0
3060
6060
6060
6060
7FE0
6000
6000
6000
3000
1FE0
0000
0000
0000
0000
0000
ENDCHAR
STARTCHAR LATIN SMALL LETTER I WITH GRAVE
ENCODING 236
SWIDTH 500 0
DWIDTH 12 0
BBX 12 24 0 -5
BITMAP
0000
0000
1800
0C00
0600
0300
0000
0000
0600
0600
0600
0600
0600
0600
0600
0600
0600
0600
0600
0000
0000
0000
0000
0000
ENDCHAR
STARTCHAR LATIN SMALL LETTER I WITH ACUTE
ENCODING 237
SWIDTH 500 0
DWIDTH 12 0
BBX 12 24 0 -5
BITMAP
0000
0000
0180
0300
0600
0C00
0000
0000
0600
0600
0600
0600
0600
0600
0600
0600
0600
0600
0600
0000
0000
0000
0000
0000
ENDCHAR
STARTCHAR LATIN SMALL LETTER I WITH CIRCUMFLEX
ENCODING 238
SWIDTH 500 0
DWIDTH 12 0
BBX 12 24 0 -5
BITMAP
0000
0000
0600
0F00
1980
30C0
0000
0000
0600
0600
0600
0600
0600
0600
0600
0600
0600
0600
0600
0000
0000
0000
0000
0000
ENDCHAR
STARTCHAR LATIN SMALL LETTER I WITH DIAERESIS
ENCODING 239
SWIDTH 500 0
DWIDTH 12 0
BBX 12 24 0 -5
BITMAP
0000
0000
0000
30C0
30C0
0000
0000
0000
0600
0600
0600
0600
0600
0600
0600
0600
0600
0600
0600
0000
0000
0000
0000
0000
ENDCHAR
STARTCHAR LATIN SMALL LETTER ETH
ENCODING 240
SWIDTH 500 0
DWIDTH 12 0
BBX 12 24 0 -5
BITMAP
0000
0000
6600
3C00
1800
3C00
6600
0300
1F80
30C0
6060
6060
6060
6060
6060
6060
6060
30C0
1F80
0000
0000
0000
0000
0000
ENDCHAR
STARTCHAR LATIN SMALL LETTER N WITH TILDE
ENCODING 241
SWIDTH 500 0
DWIDTH 12 0
BBX 12 24 0 -5
BITMAP
0000
0000
1860
3C60
66C0
6380
0000
0000
7F80
60C0
6060
6060
6060
6060
6060
6060
6060
6060
6060
0000
0000
0000
0000
0000
ENDCHAR
STARTCHAR LATIN SMALL LETTER O WITH GRAVE
ENCODING 242
SWIDTH 500 0
DWIDTH 12 0
BBX 12 24 0 -5
BITMAP
0000
0000
1800
0C00
0600
0300
0000
0000
1F80
30C0
6060
6060
6060
6060
6060
6060
6060
30C0
1F80
0000
0000
0000
0000
0000
ENDCHAR
STARTCHAR LATIN SMALL LETTER O WITH ACUTE
ENCODING 243
SWIDTH 500 0
DWIDTH 12 0
BBX 12 24 0 -5
BITMAP
0000
0000
0180
0300
0600
0C00
0000
0000
1F80
30C0
6060
6060
6060
6060
6060
6060
6060
30C0
1F80
0000
0000
0000
0000
0000
ENDCHAR
STARTCHAR LATIN SMALL LETTER O WITH CIRCUMFLEX
ENCODING 244
SWIDTH 500 0
DWIDTH 12 0
BBX 12 24 0 -5
BITMAP
0000
0000
0600
0F00
1980
30C0
0000
0000
1F80
30C0
6060
6060
6060
6060
6060
6060
6060
30C0
1F80
0000
0000
0000
0000
0000
ENDCHAR
STARTCHAR LATIN SMALL LETTER O WITH TILDE
ENCODING 245
SWIDTH 500 0
DWIDTH 12 0
BBX 12 24 0 -5
BITMAP
0000
0000
1860
3C60
66C0
6380
0000
0000
1F80
30C0
6060
6060
6060
6060
6060
6060
6060
30C0
1F80
0000
0000
0000
0000
0000
ENDCHAR
STARTCHAR LATIN SMALL LETTER O WITH DIAERESIS
ENCODING 246
SWIDTH 500 0
DWIDTH 12 0
BBX 12 24 0 -5
BITMAP
0000
0000
0000
30C0
30C0
0000
0000
0000
1F80
30C0
6060
6060
6060
6060
6060
6060
6060
30C0
1F80
0000
0000
0000
0000
0000
ENDCHAR
STARTCHAR DIVISION SIGN
ENCODING 247
SWIDTH 500 0
DWIDTH 12 0
BBX 12 24 0 -5
BITMAP
0000
0000
0000
0000
0000
0000
0000
0000
0600
0600
0000
0000
3FC0
0000
0000
0600
0600
0000
0000
0000
0000
0000
0000
0000
ENDCHAR
STARTCHAR LATIN SMALL LETTER O WITH STROKE
ENCODING 248
SWIDTH 500 0
DWIDTH 12 0
BBX 12 24 0 -5
BITMAP
0000
0000
0000
0000
0000
0000
0000
0010
1FB0
30E0
60E0
61E0
6360
6660
6C60
7860
7060
70C0
DF80
8000
0000
0000
0000
0000
ENDCHAR
STARTCHAR LATIN SMALL LETTER U WITH GRAVE
ENCODING 249
SWIDTH 500 0
DWIDTH 12 0
BBX 12 24 0 -5
BITMAP
0000
0000
1800
0C00
0600
0300
0000
0000
6060
6060
6060
6060
6060
6060
6060
6060
6060
3060
1FE0
0000
0000
0000
0000
0000
ENDCHAR
STARTCHAR LATIN SMALL LETTER U WITH ACUTE
ENCODING 250
SWIDTH 500 0
DWIDTH 12 0
BBX 12 24 0 -5
BITMAP
0000
0000
0180
0300
0600
0C00
0000
0000
6060
6060
6060
6060
6060
6060
6060
6060
6060
3060
1FE0
0000
0000
0000
0000
0000
ENDCHAR
STARTCHAR LATIN SMALL LETTER U WITH CIRCUMFLEX
ENCODING 251
SWIDTH 500 0
DWIDTH 12 0
BBX 12 24 0 -5
BITMAP
0000
0000
0600
0F00
1980
30C0
0000
0000
6060
6060
6060
6060
6060
6060
6060
6060
6060
3060
1FE0
0000
0000
0000
0000
0000
ENDCHAR
STARTCHAR LATIN SMALL LETTER U WITH DIAERESIS
ENCODING 252
SWIDTH 500 0
DWIDTH 12 0
BBX 12 24 0 -5
BITMAP
0000
0000
0000
30C0
30C0
0000
0000
0000
6060
6060
6060
6060
6060
6060
6060
6060
6060
3060
1FE0
0000
0000
0000
0000
0000
ENDCHAR
STARTCHAR LATIN SMALL LETTER Y WITH ACUTE
ENCODING 253
SWIDTH 500 0
DWIDTH 12 0
BBX 12 24 0 -5
BITMAP
0000
0000
0180
0300
0600
0C00
0000
0000
6060
6060
6060
6060
6060
6060
6060
6060
6060
3060
1FE0
0060
0060
0060
00C0
7F80
ENDCHAR
STARTCHAR LATIN SMALL LETTER THORN
ENCODING 254
SWIDTH 500 0
DWIDTH 12 0
BBX 12 24 0 -5
BITMAP
0000
0000
0000
6000
6000
6000
6000
6000
7F80
60C0
6060
6060
6060
6060
6060
6060
6060
60C0
7F80
6000
6000
6000
6000
6000
ENDCHAR
STARTCHAR LATIN SMALL LETTER Y WITH DIAERESIS
ENCODING 255
SWIDTH 500 0
DWIDTH 12 0
BBX 12 24 0 -5
BITMAP
0000
0000
0000
30C0
30C0
0000
0000
0000
6060
6060
6060
6060
6060
6060
6060
6060
6060
3060
1FE0
0060
0060
0060
00C0
7F80
ENDCHAR
ENDFONT
