STARTFONT 2.1
FONT -Misc-TamzenForPowerline-Bold-R-Normal--16-116-100-100-C-80-ISO8859-1
SIZE 16 100 100
FONTBOUNDINGBOX 8 16 0 -4
STARTPROPERTIES 24
FONTNAME_REGISTRY ""
FOUNDRY "Misc"
FAMILY_NAME "TamzenForPowerline"
WEIGHT_NAME "Bold"
SLANT "R"
SETWIDTH_NAME "Normal"
ADD_STYLE_NAME ""
PIXEL_SIZE 16
POINT_SIZE 116
RESOLUTION_X 100
RESOLUTION_Y 100
SPACING "C"
AVERAGE_WIDTH 80
CHARSET_REGISTRY "ISO10646"
CHARSET_ENCODING "1"
COPYRIGHT "(c) 2015 Scott Fial"
CAP_HEIGHT 9
X_HEIGHT 7
FONT_VERSION "1.11"
WEIGHT 10
QUAD_WIDTH 8
DEFAULT_CHAR 0
FONT_DESCENT 4
FONT_ASCENT 12
ENDPROPERTIES 
CHARS 197

STARTCHAR U+0000
ENCODING 0
SWIDTH 392 0
DWIDTH 8 0
BBX 8 16 0 -4
BITMAP
00
00
00
00
7E
42
42
42
42
42
42
7E
00
00
00
00
ENDCHAR

STARTCHAR U+2592
ENCODING 2
SWIDTH 392 0
DWIDTH 8 0
BBX 8 16 0 -4
BITMAP
55
AA
55
AA
55
AA
55
AA
55
AA
55
AA
55
AA
55
AA
ENDCHAR

STARTCHAR U+00B0
ENCODING 7
SWIDTH 392 0
DWIDTH 8 0
BBX 8 16 0 -4
BITMAP
00
00
00
3C
66
66
66
3C
00
00
00
00
00
00
00
00
ENDCHAR

STARTCHAR U+2518
ENCODING 11
SWIDTH 392 0
DWIDTH 8 0
BBX 8 16 0 -4
BITMAP
18
18
18
18
18
18
18
F8
00
00
00
00
00
00
00
00
ENDCHAR

STARTCHAR U+2510
ENCODING 12
SWIDTH 392 0
DWIDTH 8 0
BBX 8 16 0 -4
BITMAP
00
00
00
00
00
00
00
F8
18
18
18
18
18
18
18
18
ENDCHAR

STARTCHAR U+250C
ENCODING 13
SWIDTH 392 0
DWIDTH 8 0
BBX 8 16 0 -4
BITMAP
00
00
00
00
00
00
00
1F
18
18
18
18
18
18
18
18
ENDCHAR

STARTCHAR U+2514
ENCODING 14
SWIDTH 392 0
DWIDTH 8 0
BBX 8 16 0 -4
BITMAP
18
18
18
18
18
18
18
1F
00
00
00
00
00
00
00
00
ENDCHAR

STARTCHAR U+253C
ENCODING 15
SWIDTH 392 0
DWIDTH 8 0
BBX 8 16 0 -4
BITMAP
18
18
18
18
18
18
18
FF
18
18
18
18
18
18
18
18
ENDCHAR

STARTCHAR U+2500
ENCODING 18
SWIDTH 392 0
DWIDTH 8 0
BBX 8 16 0 -4
BITMAP
00
00
00
00
00
00
00
FF
00
00
00
00
00
00
00
00
ENDCHAR

STARTCHAR U+251C
ENCODING 21
SWIDTH 392 0
DWIDTH 8 0
BBX 8 16 0 -4
BITMAP
18
18
18
18
18
18
18
1F
18
18
18
18
18
18
18
18
ENDCHAR

STARTCHAR U+2524
ENCODING 22
SWIDTH 392 0
DWIDTH 8 0
BBX 8 16 0 -4
BITMAP
18
18
18
18
18
18
18
F8
18
18
18
18
18
18
18
18
ENDCHAR

STARTCHAR U+2534
ENCODING 23
SWIDTH 392 0
DWIDTH 8 0
BBX 8 16 0 -4
BITMAP
18
18
18
18
18
18
18
FF
00
00
00
00
00
00
00
00
ENDCHAR

STARTCHAR U+252C
ENCODING 24
SWIDTH 392 0
DWIDTH 8 0
BBX 8 16 0 -4
BITMAP
00
00
00
00
00
00
00
FF
18
18
18
18
18
18
18
18
ENDCHAR

STARTCHAR U+2502
ENCODING 25
SWIDTH 392 0
DWIDTH 8 0
BBX 8 16 0 -4
BITMAP
18
18
18
18
18
18
18
18
18
18
18
18
18
18
18
18
ENDCHAR

STARTCHAR U+00A3
ENCODING 30
SWIDTH 392 0
DWIDTH 8 0
BBX 8 16 0 -4
BITMAP
00
00
00
1C
36
30
30
7C
30
30
30
7E
00
00
00
00
ENDCHAR

STARTCHAR U+0020
ENCODING 32
SWIDTH 392 0
DWIDTH 8 0
BBX 8 16 0 -4
BITMAP
00
00
00
00
00
00
00
00
00
00
00
00
00
00
00
00
ENDCHAR

STARTCHAR U+0021
ENCODING 33
SWIDTH 392 0
DWIDTH 8 0
BBX 8 16 0 -4
BITMAP
00
00
18
3C
3C
3C
18
18
00
00
18
18
00
00
00
00
ENDCHAR

STARTCHAR U+0022
ENCODING 34
SWIDTH 392 0
DWIDTH 8 0
BBX 8 16 0 -4
BITMAP
00
6C
6C
6C
6C
00
00
00
00
00
00
00
00
00
00
00
ENDCHAR

STARTCHAR U+0023
ENCODING 35
SWIDTH 392 0
DWIDTH 8 0
BBX 8 16 0 -4
BITMAP
00
00
00
36
36
7F
36
36
36
7F
36
36
00
00
00
00
ENDCHAR

STARTCHAR U+0024
ENCODING 36
SWIDTH 392 0
DWIDTH 8 0
BBX 8 16 0 -4
BITMAP
00
00
18
18
3E
60
60
3C
06
06
7C
18
18
00
00
00
ENDCHAR

STARTCHAR U+0025
ENCODING 37
SWIDTH 392 0
DWIDTH 8 0
BBX 8 16 0 -4
BITMAP
00
00
00
38
6D
6E
3C
08
1E
3B
5B
0E
00
00
00
00
ENDCHAR

STARTCHAR U+0026
ENCODING 38
SWIDTH 392 0
DWIDTH 8 0
BBX 8 16 0 -4
BITMAP
00
00
38
6C
6C
6C
38
39
6D
66
66
3B
00
00
00
00
ENDCHAR

STARTCHAR U+0027
ENCODING 39
SWIDTH 392 0
DWIDTH 8 0
BBX 8 16 0 -4
BITMAP
00
18
18
18
18
00
00
00
00
00
00
00
00
00
00
00
ENDCHAR

STARTCHAR U+0028
ENCODING 40
SWIDTH 392 0
DWIDTH 8 0
BBX 8 16 0 -4
BITMAP
00
00
0C
18
18
30
30
30
30
30
30
18
18
0C
00
00
ENDCHAR

STARTCHAR U+0029
ENCODING 41
SWIDTH 392 0
DWIDTH 8 0
BBX 8 16 0 -4
BITMAP
00
00
30
18
18
0C
0C
0C
0C
0C
0C
18
18
30
00
00
ENDCHAR

STARTCHAR U+002A
ENCODING 42
SWIDTH 392 0
DWIDTH 8 0
BBX 8 16 0 -4
BITMAP
00
00
00
00
00
36
1C
7F
1C
36
00
00
00
00
00
00
ENDCHAR

STARTCHAR U+002B
ENCODING 43
SWIDTH 392 0
DWIDTH 8 0
BBX 8 16 0 -4
BITMAP
00
00
00
00
18
18
18
FF
18
18
18
00
00
00
00
00
ENDCHAR

STARTCHAR U+002C
ENCODING 44
SWIDTH 392 0
DWIDTH 8 0
BBX 8 16 0 -4
BITMAP
00
00
00
00
00
00
00
00
00
00
1C
1C
0C
0C
18
00
ENDCHAR

STARTCHAR U+002D
ENCODING 45
SWIDTH 392 0
DWIDTH 8 0
BBX 8 16 0 -4
BITMAP
00
00
00
00
00
00
00
7E
00
00
00
00
00
00
00
00
ENDCHAR

STARTCHAR U+002E
ENCODING 46
SWIDTH 392 0
DWIDTH 8 0
BBX 8 16 0 -4
BITMAP
00
00
00
00
00
00
00
00
00
00
1C
1C
00
00
00
00
ENDCHAR

STARTCHAR U+002F
ENCODING 47
SWIDTH 392 0
DWIDTH 8 0
BBX 8 16 0 -4
BITMAP
00
00
03
03
06
06
0C
0C
18
18
30
30
60
60
00
00
ENDCHAR

STARTCHAR U+0030
ENCODING 48
SWIDTH 392 0
DWIDTH 8 0
BBX 8 16 0 -4
BITMAP
00
00
00
3C
66
6E
6E
66
76
76
66
3C
00
00
00
00
ENDCHAR

STARTCHAR U+0031
ENCODING 49
SWIDTH 392 0
DWIDTH 8 0
BBX 8 16 0 -4
BITMAP
00
00
00
18
38
78
18
18
18
18
18
7E
00
00
00
00
ENDCHAR

STARTCHAR U+0032
ENCODING 50
SWIDTH 392 0
DWIDTH 8 0
BBX 8 16 0 -4
BITMAP
00
00
00
3C
66
06
06
0C
18
30
60
7E
00
00
00
00
ENDCHAR

STARTCHAR U+0033
ENCODING 51
SWIDTH 392 0
DWIDTH 8 0
BBX 8 16 0 -4
BITMAP
00
00
00
7E
06
0C
1C
06
06
06
66
3C
00
00
00
00
ENDCHAR

STARTCHAR U+0034
ENCODING 52
SWIDTH 392 0
DWIDTH 8 0
BBX 8 16 0 -4
BITMAP
00
00
00
06
0E
1E
36
66
7F
06
06
06
00
00
00
00
ENDCHAR

STARTCHAR U+0035
ENCODING 53
SWIDTH 392 0
DWIDTH 8 0
BBX 8 16 0 -4
BITMAP
00
00
00
7E
60
60
7C
06
06
06
66
3C
00
00
00
00
ENDCHAR

STARTCHAR U+0036
ENCODING 54
SWIDTH 392 0
DWIDTH 8 0
BBX 8 16 0 -4
BITMAP
00
00
00
18
30
60
7C
66
66
66
66
3C
00
00
00
00
ENDCHAR

STARTCHAR U+0037
ENCODING 55
SWIDTH 392 0
DWIDTH 8 0
BBX 8 16 0 -4
BITMAP
00
00
00
7E
06
0C
0C
18
18
30
30
30
00
00
00
00
ENDCHAR

STARTCHAR U+0038
ENCODING 56
SWIDTH 392 0
DWIDTH 8 0
BBX 8 16 0 -4
BITMAP
00
00
00
3C
66
66
66
3C
66
66
66
3C
00
00
00
00
ENDCHAR

STARTCHAR U+0039
ENCODING 57
SWIDTH 392 0
DWIDTH 8 0
BBX 8 16 0 -4
BITMAP
00
00
00
3C
66
66
66
66
3E
06
0C
18
00
00
00
00
ENDCHAR

STARTCHAR U+003A
ENCODING 58
SWIDTH 392 0
DWIDTH 8 0
BBX 8 16 0 -4
BITMAP
00
00
00
00
00
1C
1C
00
00
00
1C
1C
00
00
00
00
ENDCHAR

STARTCHAR U+003B
ENCODING 59
SWIDTH 392 0
DWIDTH 8 0
BBX 8 16 0 -4
BITMAP
00
00
00
00
00
1C
1C
00
00
00
1C
1C
0C
0C
18
00
ENDCHAR

STARTCHAR U+003C
ENCODING 60
SWIDTH 392 0
DWIDTH 8 0
BBX 8 16 0 -4
BITMAP
00
00
00
06
0C
18
30
60
30
18
0C
06
00
00
00
00
ENDCHAR

STARTCHAR U+003D
ENCODING 61
SWIDTH 392 0
DWIDTH 8 0
BBX 8 16 0 -4
BITMAP
00
00
00
00
00
00
7E
00
00
7E
00
00
00
00
00
00
ENDCHAR

STARTCHAR U+003E
ENCODING 62
SWIDTH 392 0
DWIDTH 8 0
BBX 8 16 0 -4
BITMAP
00
00
00
60
30
18
0C
06
0C
18
30
60
00
00
00
00
ENDCHAR

STARTCHAR U+003F
ENCODING 63
SWIDTH 392 0
DWIDTH 8 0
BBX 8 16 0 -4
BITMAP
00
00
3C
46
06
06
0C
18
00
00
18
18
00
00
00
00
ENDCHAR

STARTCHAR U+0040
ENCODING 64
SWIDTH 392 0
DWIDTH 8 0
BBX 8 16 0 -4
BITMAP
00
00
3E
63
63
6F
6B
6B
6B
6F
6F
60
60
3F
00
00
ENDCHAR

STARTCHAR U+0041
ENCODING 65
SWIDTH 392 0
DWIDTH 8 0
BBX 8 16 0 -4
BITMAP
00
00
00
18
3C
66
66
66
7E
66
66
66
00
00
00
00
ENDCHAR

STARTCHAR U+0042
ENCODING 66
SWIDTH 392 0
DWIDTH 8 0
BBX 8 16 0 -4
BITMAP
00
00
00
7C
66
66
66
7C
66
66
66
7C
00
00
00
00
ENDCHAR

STARTCHAR U+0043
ENCODING 67
SWIDTH 392 0
DWIDTH 8 0
BBX 8 16 0 -4
BITMAP
00
00
00
1E
30
60
60
60
60
60
30
1E
00
00
00
00
ENDCHAR

STARTCHAR U+0044
ENCODING 68
SWIDTH 392 0
DWIDTH 8 0
BBX 8 16 0 -4
BITMAP
00
00
00
78
6C
66
66
66
66
66
6C
78
00
00
00
00
ENDCHAR

STARTCHAR U+0045
ENCODING 69
SWIDTH 392 0
DWIDTH 8 0
BBX 8 16 0 -4
BITMAP
00
00
00
7E
60
60
60
7C
60
60
60
7E
00
00
00
00
ENDCHAR

STARTCHAR U+0046
ENCODING 70
SWIDTH 392 0
DWIDTH 8 0
BBX 8 16 0 -4
BITMAP
00
00
00
7E
60
60
60
7C
60
60
60
60
00
00
00
00
ENDCHAR

STARTCHAR U+0047
ENCODING 71
SWIDTH 392 0
DWIDTH 8 0
BBX 8 16 0 -4
BITMAP
00
00
00
1E
30
60
60
60
66
66
36
1E
00
00
00
00
ENDCHAR

STARTCHAR U+0048
ENCODING 72
SWIDTH 392 0
DWIDTH 8 0
BBX 8 16 0 -4
BITMAP
00
00
00
66
66
66
66
7E
66
66
66
66
00
00
00
00
ENDCHAR

STARTCHAR U+0049
ENCODING 73
SWIDTH 392 0
DWIDTH 8 0
BBX 8 16 0 -4
BITMAP
00
00
00
7E
18
18
18
18
18
18
18
7E
00
00
00
00
ENDCHAR

STARTCHAR U+004A
ENCODING 74
SWIDTH 392 0
DWIDTH 8 0
BBX 8 16 0 -4
BITMAP
00
00
00
06
06
06
06
06
06
66
66
3C
00
00
00
00
ENDCHAR

STARTCHAR U+004B
ENCODING 75
SWIDTH 392 0
DWIDTH 8 0
BBX 8 16 0 -4
BITMAP
00
00
00
63
66
6C
78
70
78
6C
66
63
00
00
00
00
ENDCHAR

STARTCHAR U+004C
ENCODING 76
SWIDTH 392 0
DWIDTH 8 0
BBX 8 16 0 -4
BITMAP
00
00
00
60
60
60
60
60
60
60
60
7E
00
00
00
00
ENDCHAR

STARTCHAR U+004D
ENCODING 77
SWIDTH 392 0
DWIDTH 8 0
BBX 8 16 0 -4
BITMAP
00
00
00
63
77
7F
6B
63
63
63
63
63
00
00
00
00
ENDCHAR

STARTCHAR U+004E
ENCODING 78
SWIDTH 392 0
DWIDTH 8 0
BBX 8 16 0 -4
BITMAP
00
00
00
63
73
7B
6F
67
63
63
63
63
00
00
00
00
ENDCHAR

STARTCHAR U+004f
ENCODING 79
SWIDTH 392 0
DWIDTH 8 0
BBX 8 17 0 -4
BITMAP
00
00
00
00
3C
66
66
66
66
66
66
66
3C
00
00
00
00
ENDCHAR

STARTCHAR U+0050
ENCODING 80
SWIDTH 392 0
DWIDTH 8 0
BBX 8 16 0 -4
BITMAP
00
00
00
7C
66
66
66
7C
60
60
60
60
00
00
00
00
ENDCHAR

STARTCHAR U+0051
ENCODING 81
SWIDTH 392 0
DWIDTH 8 0
BBX 8 17 0 -4
BITMAP
00
00
00
00
3C
66
66
66
66
66
66
66
3C
0F
00
00
00
ENDCHAR

STARTCHAR U+0052
ENCODING 82
SWIDTH 392 0
DWIDTH 8 0
BBX 8 16 0 -4
BITMAP
00
00
00
7C
66
66
66
7C
6C
66
66
66
00
00
00
00
ENDCHAR

STARTCHAR U+0053
ENCODING 83
SWIDTH 392 0
DWIDTH 8 0
BBX 8 16 0 -4
BITMAP
00
00
00
3E
60
60
70
3C
0E
06
06
7C
00
00
00
00
ENDCHAR

STARTCHAR U+0054
ENCODING 84
SWIDTH 392 0
DWIDTH 8 0
BBX 8 16 0 -4
BITMAP
00
00
00
FF
18
18
18
18
18
18
18
18
00
00
00
00
ENDCHAR

STARTCHAR U+0055
ENCODING 85
SWIDTH 392 0
DWIDTH 8 0
BBX 8 16 0 -4
BITMAP
00
00
00
66
66
66
66
66
66
66
66
3C
00
00
00
00
ENDCHAR

STARTCHAR U+0056
ENCODING 86
SWIDTH 392 0
DWIDTH 8 0
BBX 8 16 0 -4
BITMAP
00
00
00
66
66
66
66
66
66
66
3C
18
00
00
00
00
ENDCHAR

STARTCHAR U+0057
ENCODING 87
SWIDTH 392 0
DWIDTH 8 0
BBX 8 16 0 -4
BITMAP
00
00
00
63
63
63
63
63
6B
7F
77
63
00
00
00
00
ENDCHAR

STARTCHAR U+0058
ENCODING 88
SWIDTH 392 0
DWIDTH 8 0
BBX 8 16 0 -4
BITMAP
00
00
00
66
66
66
3C
18
3C
66
66
66
00
00
00
00
ENDCHAR

STARTCHAR U+0059
ENCODING 89
SWIDTH 392 0
DWIDTH 8 0
BBX 8 16 0 -4
BITMAP
00
00
00
66
66
66
3C
18
18
18
18
18
00
00
00
00
ENDCHAR

STARTCHAR U+005A
ENCODING 90
SWIDTH 392 0
DWIDTH 8 0
BBX 8 16 0 -4
BITMAP
00
00
00
7E
0C
0C
18
18
30
30
60
7E
00
00
00
00
ENDCHAR

STARTCHAR U+005B
ENCODING 91
SWIDTH 392 0
DWIDTH 8 0
BBX 8 16 0 -4
BITMAP
00
00
3E
30
30
30
30
30
30
30
30
30
30
3E
00
00
ENDCHAR

STARTCHAR U+005C
ENCODING 92
SWIDTH 392 0
DWIDTH 8 0
BBX 8 16 0 -4
BITMAP
00
00
60
60
30
30
18
18
0C
0C
06
06
03
03
00
00
ENDCHAR

STARTCHAR U+005D
ENCODING 93
SWIDTH 392 0
DWIDTH 8 0
BBX 8 16 0 -4
BITMAP
00
00
7C
0C
0C
0C
0C
0C
0C
0C
0C
0C
0C
7C
00
00
ENDCHAR

STARTCHAR U+005E
ENCODING 94
SWIDTH 392 0
DWIDTH 8 0
BBX 8 16 0 -4
BITMAP
00
00
18
3C
66
00
00
00
00
00
00
00
00
00
00
00
ENDCHAR

STARTCHAR U+005F
ENCODING 95
SWIDTH 392 0
DWIDTH 8 0
BBX 8 16 0 -4
BITMAP
00
00
00
00
00
00
00
00
00
00
00
00
00
FF
00
00
ENDCHAR

STARTCHAR U+0060
ENCODING 96
SWIDTH 392 0
DWIDTH 8 0
BBX 8 16 0 -4
BITMAP
00
30
18
0C
06
00
00
00
00
00
00
00
00
00
00
00
ENDCHAR

STARTCHAR U+0061
ENCODING 97
SWIDTH 392 0
DWIDTH 8 0
BBX 8 17 0 -4
BITMAP
00
00
00
00
00
00
3C
06
06
3E
66
66
3E
00
00
00
00
ENDCHAR

STARTCHAR U+0062
ENCODING 98
SWIDTH 392 0
DWIDTH 8 0
BBX 8 17 0 -4
BITMAP
00
00
00
60
60
60
7C
66
66
66
66
66
7C
00
00
00
00
ENDCHAR

STARTCHAR U+0063
ENCODING 99
SWIDTH 392 0
DWIDTH 8 0
BBX 8 16 0 -4
BITMAP
00
00
00
00
00
3E
60
60
60
60
60
3E
00
00
00
00
ENDCHAR

STARTCHAR U+0064
ENCODING 100
SWIDTH 392 0
DWIDTH 8 0
BBX 8 17 0 -4
BITMAP
00
00
00
06
06
06
3E
66
66
66
66
66
3E
00
00
00
00
ENDCHAR

STARTCHAR U+0065
ENCODING 101
SWIDTH 392 0
DWIDTH 8 0
BBX 8 16 0 -4
BITMAP
00
00
00
00
00
3C
66
66
7E
60
60
3E
00
00
00
00
ENDCHAR

STARTCHAR U+0066
ENCODING 102
SWIDTH 392 0
DWIDTH 8 0
BBX 8 16 0 -4
BITMAP
00
00
1E
30
30
7E
30
30
30
30
30
30
00
00
00
00
ENDCHAR

STARTCHAR U+0067
ENCODING 103
SWIDTH 392 0
DWIDTH 8 0
BBX 8 17 0 -4
BITMAP
00
00
00
00
00
00
3F
66
66
66
3C
60
3E
63
63
3E
00
ENDCHAR

STARTCHAR U+0068
ENCODING 104
SWIDTH 392 0
DWIDTH 8 0
BBX 8 17 0 -4
BITMAP
00
00
00
60
60
60
7C
66
66
66
66
66
66
00
00
00
00
ENDCHAR

STARTCHAR U+0069
ENCODING 105
SWIDTH 392 0
DWIDTH 8 0
BBX 8 16 0 -4
BITMAP
00
00
18
18
00
78
18
18
18
18
18
7E
00
00
00
00
ENDCHAR

STARTCHAR U+006A
ENCODING 106
SWIDTH 392 0
DWIDTH 8 0
BBX 8 16 0 -4
BITMAP
00
00
0C
0C
00
3C
0C
0C
0C
0C
0C
0C
0C
0C
78
00
ENDCHAR

STARTCHAR U+006B
ENCODING 107
SWIDTH 392 0
DWIDTH 8 0
BBX 8 16 0 -4
BITMAP
00
00
60
60
60
66
6C
78
78
6C
66
63
00
00
00
00
ENDCHAR

STARTCHAR U+006c
ENCODING 108
SWIDTH 392 0
DWIDTH 8 0
BBX 8 17 0 -4
BITMAP
00
00
00
78
18
18
18
18
18
18
18
18
0E
00
00
00
00
ENDCHAR

STARTCHAR U+006d
ENCODING 109
SWIDTH 392 0
DWIDTH 8 0
BBX 8 17 0 -4
BITMAP
00
00
00
00
00
00
7E
6B
6B
6B
6B
6B
6B
00
00
00
00
ENDCHAR

STARTCHAR U+006e
ENCODING 110
SWIDTH 392 0
DWIDTH 8 0
BBX 8 17 0 -4
BITMAP
00
00
00
00
00
00
7C
66
66
66
66
66
66
00
00
00
00
ENDCHAR

STARTCHAR U+006F
ENCODING 111
SWIDTH 392 0
DWIDTH 8 0
BBX 8 16 0 -4
BITMAP
00
00
00
00
00
3C
66
66
66
66
66
3C
00
00
00
00
ENDCHAR

STARTCHAR U+0070
ENCODING 112
SWIDTH 392 0
DWIDTH 8 0
BBX 8 17 0 -4
BITMAP
00
00
00
00
00
00
7C
66
66
66
66
66
7C
60
60
60
00
ENDCHAR

STARTCHAR U+0071
ENCODING 113
SWIDTH 392 0
DWIDTH 8 0
BBX 8 17 0 -4
BITMAP
00
00
00
00
00
00
3E
66
66
66
66
66
3E
06
06
06
00
ENDCHAR

STARTCHAR U+0072
ENCODING 114
SWIDTH 392 0
DWIDTH 8 0
BBX 8 17 0 -4
BITMAP
00
00
00
00
00
00
6E
70
60
60
60
60
60
00
00
00
00
ENDCHAR

STARTCHAR U+0073
ENCODING 115
SWIDTH 392 0
DWIDTH 8 0
BBX 8 16 0 -4
BITMAP
00
00
00
00
00
3E
60
70
3C
0E
06
7C
00
00
00
00
ENDCHAR

STARTCHAR U+0074
ENCODING 116
SWIDTH 392 0
DWIDTH 8 0
BBX 8 16 0 -4
BITMAP
00
00
00
30
30
7E
30
30
30
30
30
1E
00
00
00
00
ENDCHAR

STARTCHAR U+0075
ENCODING 117
SWIDTH 392 0
DWIDTH 8 0
BBX 8 17 0 -4
BITMAP
00
00
00
00
00
00
66
66
66
66
66
66
3E
00
00
00
00
ENDCHAR

STARTCHAR U+0076
ENCODING 118
SWIDTH 392 0
DWIDTH 8 0
BBX 8 16 0 -4
BITMAP
00
00
00
00
00
66
66
66
66
66
3C
18
00
00
00
00
ENDCHAR

STARTCHAR U+0077
ENCODING 119
SWIDTH 392 0
DWIDTH 8 0
BBX 8 17 0 -4
BITMAP
00
00
00
00
00
00
6B
6B
6B
6B
6B
6B
7E
00
00
00
00
ENDCHAR

STARTCHAR U+0078
ENCODING 120
SWIDTH 392 0
DWIDTH 8 0
BBX 8 16 0 -4
BITMAP
00
00
00
00
00
66
66
3C
18
3C
66
66
00
00
00
00
ENDCHAR

STARTCHAR U+0079
ENCODING 121
SWIDTH 392 0
DWIDTH 8 0
BBX 8 17 0 -4
BITMAP
00
00
00
00
00
00
66
66
66
66
66
66
3E
06
06
3C
00
ENDCHAR

STARTCHAR U+007A
ENCODING 122
SWIDTH 392 0
DWIDTH 8 0
BBX 8 16 0 -4
BITMAP
00
00
00
00
00
7E
06
0C
18
30
60
7E
00
00
00
00
ENDCHAR

STARTCHAR U+007B
ENCODING 123
SWIDTH 392 0
DWIDTH 8 0
BBX 8 16 0 -4
BITMAP
00
0E
18
18
18
18
18
F0
18
18
18
18
18
0E
00
00
ENDCHAR

STARTCHAR U+007C
ENCODING 124
SWIDTH 392 0
DWIDTH 8 0
BBX 8 16 0 -4
BITMAP
00
18
18
18
18
18
18
18
18
18
18
18
18
18
00
00
ENDCHAR

STARTCHAR U+007D
ENCODING 125
SWIDTH 392 0
DWIDTH 8 0
BBX 8 16 0 -4
BITMAP
00
70
18
18
18
18
18
0F
18
18
18
18
18
70
00
00
ENDCHAR

STARTCHAR U+007E
ENCODING 126
SWIDTH 392 0
DWIDTH 8 0
BBX 8 16 0 -4
BITMAP
00
00
33
7B
6F
66
00
00
00
00
00
00
00
00
00
00
ENDCHAR

STARTCHAR U+00A0
ENCODING 160
SWIDTH 392 0
DWIDTH 8 0
BBX 8 16 0 -4
BITMAP
00
00
00
00
00
00
00
00
00
00
00
00
00
00
00
00
ENDCHAR

STARTCHAR U+00A1
ENCODING 161
SWIDTH 392 0
DWIDTH 8 0
BBX 8 16 0 -4
BITMAP
00
00
00
00
00
18
18
00
00
18
18
3C
3C
3C
18
00
ENDCHAR

STARTCHAR U+00A2
ENCODING 162
SWIDTH 392 0
DWIDTH 8 0
BBX 8 16 0 -4
BITMAP
00
00
18
18
3C
66
60
60
60
66
3C
18
18
00
00
00
ENDCHAR

STARTCHAR U+00A3
ENCODING 163
SWIDTH 392 0
DWIDTH 8 0
BBX 8 16 0 -4
BITMAP
00
00
00
1C
36
30
30
7C
30
30
30
7E
00
00
00
00
ENDCHAR

STARTCHAR U+00A4
ENCODING 164
SWIDTH 392 0
DWIDTH 8 0
BBX 8 16 0 -4
BITMAP
00
00
00
00
63
3E
36
63
63
36
3E
63
00
00
00
00
ENDCHAR

STARTCHAR U+00A5
ENCODING 165
SWIDTH 392 0
DWIDTH 8 0
BBX 8 16 0 -4
BITMAP
00
00
00
66
66
3C
18
7E
18
7E
18
18
00
00
00
00
ENDCHAR

STARTCHAR U+00A6
ENCODING 166
SWIDTH 392 0
DWIDTH 8 0
BBX 8 16 0 -4
BITMAP
00
00
00
18
18
18
18
00
00
00
18
18
18
18
00
00
ENDCHAR

STARTCHAR U+00A8
ENCODING 168
SWIDTH 392 0
DWIDTH 8 0
BBX 8 16 0 -4
BITMAP
00
00
66
66
00
00
00
00
00
00
00
00
00
00
00
00
ENDCHAR

STARTCHAR U+00A9
ENCODING 169
SWIDTH 392 0
DWIDTH 8 0
BBX 8 16 0 -4
BITMAP
00
00
00
1C
22
41
4D
51
51
4D
41
22
1C
00
00
00
ENDCHAR

STARTCHAR U+00AB
ENCODING 171
SWIDTH 392 0
DWIDTH 8 0
BBX 8 16 0 -4
BITMAP
00
00
00
00
00
00
00
1B
36
6C
36
1B
00
00
00
00
ENDCHAR

STARTCHAR U+00AD
ENCODING 173
SWIDTH 392 0
DWIDTH 8 0
BBX 8 16 0 -4
BITMAP
00
00
00
00
00
00
00
7E
00
00
00
00
00
00
00
00
ENDCHAR

STARTCHAR U+00B0
ENCODING 176
SWIDTH 392 0
DWIDTH 8 0
BBX 8 16 0 -4
BITMAP
00
00
00
3C
66
66
66
3C
00
00
00
00
00
00
00
00
ENDCHAR

STARTCHAR U+00B4
ENCODING 180
SWIDTH 392 0
DWIDTH 8 0
BBX 8 16 0 -4
BITMAP
00
00
0C
18
00
00
00
00
00
00
00
00
00
00
00
00
ENDCHAR

STARTCHAR U+00B8
ENCODING 184
SWIDTH 392 0
DWIDTH 8 0
BBX 8 16 0 -4
BITMAP
00
00
00
00
00
00
00
00
00
00
00
00
0C
0C
38
00
ENDCHAR

STARTCHAR U+00BB
ENCODING 187
SWIDTH 392 0
DWIDTH 8 0
BBX 8 16 0 -4
BITMAP
00
00
00
00
00
00
00
6C
36
1B
36
6C
00
00
00
00
ENDCHAR

STARTCHAR U+00BF
ENCODING 191
SWIDTH 392 0
DWIDTH 8 0
BBX 8 16 0 -4
BITMAP
00
00
00
00
00
18
18
00
00
18
30
60
60
62
3C
00
ENDCHAR

STARTCHAR U+00C0
ENCODING 192
SWIDTH 392 0
DWIDTH 8 0
BBX 8 16 0 -4
BITMAP
30
18
00
18
3C
66
66
66
7E
66
66
66
00
00
00
00
ENDCHAR

STARTCHAR U+00C1
ENCODING 193
SWIDTH 392 0
DWIDTH 8 0
BBX 8 16 0 -4
BITMAP
0C
18
00
18
3C
66
66
66
7E
66
66
66
00
00
00
00
ENDCHAR

STARTCHAR U+00C2
ENCODING 194
SWIDTH 392 0
DWIDTH 8 0
BBX 8 16 0 -4
BITMAP
18
3C
66
00
18
3C
66
66
7E
66
66
66
00
00
00
00
ENDCHAR

STARTCHAR U+00C3
ENCODING 195
SWIDTH 392 0
DWIDTH 8 0
BBX 8 16 0 -4
BITMAP
32
7E
4C
00
18
3C
66
66
7E
66
66
66
00
00
00
00
ENDCHAR

STARTCHAR U+00C4
ENCODING 196
SWIDTH 392 0
DWIDTH 8 0
BBX 8 16 0 -4
BITMAP
66
66
00
18
3C
66
66
66
7E
66
66
66
00
00
00
00
ENDCHAR

STARTCHAR U+00C5
ENCODING 197
SWIDTH 392 0
DWIDTH 8 0
BBX 8 16 0 -4
BITMAP
3C
66
66
3C
18
3C
66
66
7E
66
66
66
00
00
00
00
ENDCHAR

STARTCHAR U+00C6
ENCODING 198
SWIDTH 392 0
DWIDTH 8 0
BBX 8 16 0 -4
BITMAP
00
00
00
1F
3C
6C
6C
6F
7C
6C
6C
6E
00
00
00
00
ENDCHAR

STARTCHAR U+00C7
ENCODING 199
SWIDTH 392 0
DWIDTH 8 0
BBX 8 16 0 -4
BITMAP
00
00
00
1E
30
60
60
60
60
60
30
1E
0C
0C
38
00
ENDCHAR

STARTCHAR U+00C8
ENCODING 200
SWIDTH 392 0
DWIDTH 8 0
BBX 8 16 0 -4
BITMAP
30
18
00
7E
60
60
60
7C
60
60
60
7E
00
00
00
00
ENDCHAR

STARTCHAR U+00C9
ENCODING 201
SWIDTH 392 0
DWIDTH 8 0
BBX 8 16 0 -4
BITMAP
0C
18
00
7E
60
60
60
7C
60
60
60
7E
00
00
00
00
ENDCHAR

STARTCHAR U+00CA
ENCODING 202
SWIDTH 392 0
DWIDTH 8 0
BBX 8 16 0 -4
BITMAP
18
3C
66
00
7E
60
60
7C
60
60
60
7E
00
00
00
00
ENDCHAR

STARTCHAR U+00CB
ENCODING 203
SWIDTH 392 0
DWIDTH 8 0
BBX 8 16 0 -4
BITMAP
66
66
00
7E
60
60
60
7C
60
60
60
7E
00
00
00
00
ENDCHAR

STARTCHAR U+00CC
ENCODING 204
SWIDTH 392 0
DWIDTH 8 0
BBX 8 16 0 -4
BITMAP
30
18
00
7E
18
18
18
18
18
18
18
7E
00
00
00
00
ENDCHAR

STARTCHAR U+00CD
ENCODING 205
SWIDTH 392 0
DWIDTH 8 0
BBX 8 16 0 -4
BITMAP
0C
18
00
7E
18
18
18
18
18
18
18
7E
00
00
00
00
ENDCHAR

STARTCHAR U+00CE
ENCODING 206
SWIDTH 392 0
DWIDTH 8 0
BBX 8 16 0 -4
BITMAP
18
3C
66
00
7E
18
18
18
18
18
18
7E
00
00
00
00
ENDCHAR

STARTCHAR U+00CF
ENCODING 207
SWIDTH 392 0
DWIDTH 8 0
BBX 8 16 0 -4
BITMAP
66
66
00
7E
18
18
18
18
18
18
18
7E
00
00
00
00
ENDCHAR

STARTCHAR U+00D0
ENCODING 208
SWIDTH 392 0
DWIDTH 8 0
BBX 8 16 0 -4
BITMAP
00
00
00
3C
36
33
33
7B
33
33
36
3C
00
00
00
00
ENDCHAR

STARTCHAR U+00D1
ENCODING 209
SWIDTH 392 0
DWIDTH 8 0
BBX 8 16 0 -4
BITMAP
31
7F
46
00
63
73
7B
6F
67
63
63
63
00
00
00
00
ENDCHAR

STARTCHAR U+00D2
ENCODING 210
SWIDTH 392 0
DWIDTH 8 0
BBX 8 16 0 -4
BITMAP
30
18
00
3C
66
66
66
66
66
66
66
3C
00
00
00
00
ENDCHAR

STARTCHAR U+00D3
ENCODING 211
SWIDTH 392 0
DWIDTH 8 0
BBX 8 16 0 -4
BITMAP
06
0C
00
3C
66
66
66
66
66
66
66
3C
00
00
00
00
ENDCHAR

STARTCHAR U+00D4
ENCODING 212
SWIDTH 392 0
DWIDTH 8 0
BBX 8 16 0 -4
BITMAP
18
3C
66
00
3C
66
66
66
66
66
66
3C
00
00
00
00
ENDCHAR

STARTCHAR U+00D5
ENCODING 213
SWIDTH 392 0
DWIDTH 8 0
BBX 8 16 0 -4
BITMAP
32
7E
4C
00
3C
66
66
66
66
66
66
3C
00
00
00
00
ENDCHAR

STARTCHAR U+00D6
ENCODING 214
SWIDTH 392 0
DWIDTH 8 0
BBX 8 16 0 -4
BITMAP
66
66
00
3C
66
66
66
66
66
66
66
3C
00
00
00
00
ENDCHAR

STARTCHAR U+00D7
ENCODING 215
SWIDTH 392 0
DWIDTH 8 0
BBX 8 16 0 -4
BITMAP
00
00
00
00
00
00
66
3C
18
3C
66
00
00
00
00
00
ENDCHAR

STARTCHAR U+00D8
ENCODING 216
SWIDTH 392 0
DWIDTH 8 0
BBX 8 16 0 -4
BITMAP
00
00
06
3C
66
66
6E
76
66
66
66
3C
60
00
00
00
ENDCHAR

STARTCHAR U+00D9
ENCODING 217
SWIDTH 392 0
DWIDTH 8 0
BBX 8 16 0 -4
BITMAP
30
18
00
66
66
66
66
66
66
66
66
3C
00
00
00
00
ENDCHAR

STARTCHAR U+00DA
ENCODING 218
SWIDTH 392 0
DWIDTH 8 0
BBX 8 16 0 -4
BITMAP
0C
18
00
66
66
66
66
66
66
66
66
3C
00
00
00
00
ENDCHAR

STARTCHAR U+00DB
ENCODING 219
SWIDTH 392 0
DWIDTH 8 0
BBX 8 16 0 -4
BITMAP
18
3C
66
00
66
66
66
66
66
66
66
3C
00
00
00
00
ENDCHAR

STARTCHAR U+00DC
ENCODING 220
SWIDTH 392 0
DWIDTH 8 0
BBX 8 16 0 -4
BITMAP
66
66
00
66
66
66
66
66
66
66
66
3C
00
00
00
00
ENDCHAR

STARTCHAR U+00DD
ENCODING 221
SWIDTH 392 0
DWIDTH 8 0
BBX 8 16 0 -4
BITMAP
0C
18
00
66
66
66
3C
18
18
18
18
18
00
00
00
00
ENDCHAR

STARTCHAR U+00DE
ENCODING 222
SWIDTH 392 0
DWIDTH 8 0
BBX 8 16 0 -4
BITMAP
00
00
00
60
60
7C
66
66
66
7C
60
60
00
00
00
00
ENDCHAR

STARTCHAR U+00DF
ENCODING 223
SWIDTH 392 0
DWIDTH 8 0
BBX 8 16 0 -4
BITMAP
00
00
00
3C
66
66
6C
66
66
66
66
6C
00
00
00
00
ENDCHAR

STARTCHAR U+00E0
ENCODING 224
SWIDTH 392 0
DWIDTH 8 0
BBX 8 16 0 -4
BITMAP
00
00
30
18
00
3C
06
3E
66
66
66
3E
00
00
00
00
ENDCHAR

STARTCHAR U+00E1
ENCODING 225
SWIDTH 392 0
DWIDTH 8 0
BBX 8 16 0 -4
BITMAP
00
00
0C
18
00
3C
06
3E
66
66
66
3E
00
00
00
00
ENDCHAR

STARTCHAR U+00E2
ENCODING 226
SWIDTH 392 0
DWIDTH 8 0
BBX 8 16 0 -4
BITMAP
00
18
3C
66
00
3C
06
3E
66
66
66
3E
00
00
00
00
ENDCHAR

STARTCHAR U+00E3
ENCODING 227
SWIDTH 392 0
DWIDTH 8 0
BBX 8 16 0 -4
BITMAP
00
32
7E
4C
00
3C
06
3E
66
66
66
3E
00
00
00
00
ENDCHAR

STARTCHAR U+00E4
ENCODING 228
SWIDTH 392 0
DWIDTH 8 0
BBX 8 16 0 -4
BITMAP
00
00
66
66
00
3C
06
3E
66
66
66
3E
00
00
00
00
ENDCHAR

STARTCHAR U+00E5
ENCODING 229
SWIDTH 392 0
DWIDTH 8 0
BBX 8 16 0 -4
BITMAP
1C
36
36
1C
00
3C
06
3E
66
66
66
3E
00
00
00
00
ENDCHAR

STARTCHAR U+00E6
ENCODING 230
SWIDTH 392 0
DWIDTH 8 0
BBX 8 16 0 -4
BITMAP
00
00
00
00
00
76
1B
7B
DF
D8
D8
6F
00
00
00
00
ENDCHAR

STARTCHAR U+00E7
ENCODING 231
SWIDTH 392 0
DWIDTH 8 0
BBX 8 16 0 -4
BITMAP
00
00
00
00
00
3E
60
60
60
60
60
3E
0C
0C
38
00
ENDCHAR

STARTCHAR U+00E8
ENCODING 232
SWIDTH 392 0
DWIDTH 8 0
BBX 8 16 0 -4
BITMAP
00
00
30
18
00
3C
66
66
7E
60
60
3E
00
00
00
00
ENDCHAR

STARTCHAR U+00E9
ENCODING 233
SWIDTH 392 0
DWIDTH 8 0
BBX 8 16 0 -4
BITMAP
00
00
0C
18
00
3C
66
66
7E
60
60
3E
00
00
00
00
ENDCHAR

STARTCHAR U+00EA
ENCODING 234
SWIDTH 392 0
DWIDTH 8 0
BBX 8 16 0 -4
BITMAP
00
18
3C
66
00
3C
66
66
7E
60
60
3E
00
00
00
00
ENDCHAR

STARTCHAR U+00EB
ENCODING 235
SWIDTH 392 0
DWIDTH 8 0
BBX 8 16 0 -4
BITMAP
00
00
66
66
00
3C
66
66
7E
60
60
3E
00
00
00
00
ENDCHAR

STARTCHAR U+00EC
ENCODING 236
SWIDTH 392 0
DWIDTH 8 0
BBX 8 16 0 -4
BITMAP
00
00
30
18
00
78
18
18
18
18
18
7E
00
00
00
00
ENDCHAR

STARTCHAR U+00ED
ENCODING 237
SWIDTH 392 0
DWIDTH 8 0
BBX 8 16 0 -4
BITMAP
00
00
0C
18
00
78
18
18
18
18
18
7E
00
00
00
00
ENDCHAR

STARTCHAR U+00EE
ENCODING 238
SWIDTH 392 0
DWIDTH 8 0
BBX 8 16 0 -4
BITMAP
00
18
3C
66
00
78
18
18
18
18
18
7E
00
00
00
00
ENDCHAR

STARTCHAR U+00EF
ENCODING 239
SWIDTH 392 0
DWIDTH 8 0
BBX 8 16 0 -4
BITMAP
00
00
66
66
00
78
18
18
18
18
18
7E
00
00
00
00
ENDCHAR

STARTCHAR U+00F0
ENCODING 240
SWIDTH 392 0
DWIDTH 8 0
BBX 8 16 0 -4
BITMAP
00
32
1C
78
0C
3E
66
66
66
66
66
3C
00
00
00
00
ENDCHAR

STARTCHAR U+00F1
ENCODING 241
SWIDTH 392 0
DWIDTH 8 0
BBX 8 16 0 -4
BITMAP
00
32
7E
4C
00
7C
66
66
66
66
66
66
00
00
00
00
ENDCHAR

STARTCHAR U+00F2
ENCODING 242
SWIDTH 392 0
DWIDTH 8 0
BBX 8 16 0 -4
BITMAP
00
00
0C
18
00
3C
66
66
66
66
66
3C
00
00
00
00
ENDCHAR

STARTCHAR U+00F3
ENCODING 243
SWIDTH 392 0
DWIDTH 8 0
BBX 8 16 0 -4
BITMAP
00
00
0C
18
00
3C
66
66
66
66
66
3C
00
00
00
00
ENDCHAR

STARTCHAR U+00F4
ENCODING 244
SWIDTH 392 0
DWIDTH 8 0
BBX 8 16 0 -4
BITMAP
00
18
3C
66
00
3C
66
66
66
66
66
3C
00
00
00
00
ENDCHAR

STARTCHAR U+00F5
ENCODING 245
SWIDTH 392 0
DWIDTH 8 0
BBX 8 16 0 -4
BITMAP
00
32
7E
4C
00
3C
66
66
66
66
66
3C
00
00
00
00
ENDCHAR

STARTCHAR U+00F6
ENCODING 246
SWIDTH 392 0
DWIDTH 8 0
BBX 8 16 0 -4
BITMAP
00
00
66
66
00
3C
66
66
66
66
66
3C
00
00
00
00
ENDCHAR

STARTCHAR U+00F7
ENCODING 247
SWIDTH 392 0
DWIDTH 8 0
BBX 8 16 0 -4
BITMAP
00
00
00
00
18
18
00
7E
00
18
18
00
00
00
00
00
ENDCHAR

STARTCHAR U+00F8
ENCODING 248
SWIDTH 392 0
DWIDTH 8 0
BBX 8 16 0 -4
BITMAP
00
00
00
00
06
3C
66
6E
76
66
66
3C
60
00
00
00
ENDCHAR

STARTCHAR U+00F9
ENCODING 249
SWIDTH 392 0
DWIDTH 8 0
BBX 8 16 0 -4
BITMAP
00
00
30
18
00
66
66
66
66
66
66
3E
00
00
00
00
ENDCHAR

STARTCHAR U+00FA
ENCODING 250
SWIDTH 392 0
DWIDTH 8 0
BBX 8 16 0 -4
BITMAP
00
00
0C
18
00
66
66
66
66
66
66
3E
00
00
00
00
ENDCHAR

STARTCHAR U+00FB
ENCODING 251
SWIDTH 392 0
DWIDTH 8 0
BBX 8 16 0 -4
BITMAP
00
18
3C
66
00
66
66
66
66
66
66
3E
00
00
00
00
ENDCHAR

STARTCHAR U+00FC
ENCODING 252
SWIDTH 392 0
DWIDTH 8 0
BBX 8 16 0 -4
BITMAP
00
00
66
66
00
66
66
66
66
66
66
3E
00
00
00
00
ENDCHAR

STARTCHAR U+00FD
ENCODING 253
SWIDTH 392 0
DWIDTH 8 0
BBX 8 16 0 -4
BITMAP
00
00
0C
18
00
66
66
66
66
66
66
3E
06
06
3C
00
ENDCHAR

STARTCHAR U+00FE
ENCODING 254
SWIDTH 392 0
DWIDTH 8 0
BBX 8 16 0 -4
BITMAP
00
00
60
60
60
7C
66
66
66
66
66
7C
60
60
60
00
ENDCHAR

STARTCHAR U+00FF
ENCODING 255
SWIDTH 392 0
DWIDTH 8 0
BBX 8 16 0 -4
BITMAP
00
00
66
66
00
66
66
66
66
66
66
3E
06
06
3C
00
ENDCHAR

STARTCHAR U+E0A0
ENCODING 57504
SWIDTH 360 0
DWIDTH 8 0
BBX 8 17 0 -4
BITMAP
00
C0
C4
CE
DF
C4
C4
C4
C4
8C
1C
38
70
E0
C0
C0
C0
ENDCHAR
STARTCHAR U+E0A1
ENCODING 57505
SWIDTH 360 0
DWIDTH 8 0
BBX 8 17 0 -4
BITMAP
00
80
80
80
80
80
80
F8
00
21
31
29
25
23
21
00
00
ENDCHAR
STARTCHAR U+E0A2
ENCODING 57506
SWIDTH 360 0
DWIDTH 8 0
BBX 8 17 0 -4
BITMAP
00
3C
42
42
42
42
42
FF
FF
FF
FD
FB
F5
EB
D5
AB
FF
ENDCHAR
STARTCHAR U+E0B0
ENCODING 57520
SWIDTH 360 0
DWIDTH 8 0
BBX 8 17 0 -4
BITMAP
00
80
C0
E0
F0
F8
FC
FE
FF
FF
FE
FC
F8
F0
E0
C0
80
ENDCHAR
STARTCHAR U+E0B1
ENCODING 57521
SWIDTH 360 0
DWIDTH 8 0
BBX 8 17 0 -4
BITMAP
00
80
40
20
10
08
04
02
01
01
02
04
08
10
20
40
80
ENDCHAR
STARTCHAR U+E0B2
ENCODING 57522
SWIDTH 360 0
DWIDTH 8 0
BBX 8 17 0 -4
BITMAP
00
01
03
07
0F
1F
3F
7F
FF
FF
7F
3F
1F
0F
07
03
01
ENDCHAR
STARTCHAR U+E0B3
ENCODING 57523
SWIDTH 360 0
DWIDTH 8 0
BBX 8 17 0 -4
BITMAP
00
01
02
04
08
10
20
40
80
80
40
20
10
08
04
02
01
ENDCHAR
ENDFONT

