STARTFONT 2.1
FONT -Misc-Tamzen-Bold-R-Normal--20-145-100-100-C-100-ISO8859-1
SIZE 20 100 100
FONTBOUNDINGBOX 10 20 0 -6
STARTPROPERTIES 24
FONTNAME_REGISTRY ""
FOUNDRY "Misc"
FAMILY_NAME "Tamzen"
WEIGHT_NAME "Bold"
SLANT "R"
SETWIDTH_NAME "Normal"
ADD_STYLE_NAME ""
PIXEL_SIZE 20
POINT_SIZE 145
RESOLUTION_X 100
RESOLUTION_Y 100
SPACING "C"
AVERAGE_WIDTH 100
CHARSET_REGISTRY "ISO10646"
CHARSET_ENCODING "1"
COPYRIGHT "(c) 2015 Scott Fial"
CAP_HEIGHT 11
X_HEIGHT 8
FONT_VERSION "1.11"
WEIGHT 10
QUAD_WIDTH 10
DEFAULT_CHAR 0
FONT_DESCENT 6
FONT_ASCENT 14
ENDPROPERTIES 
CHARS 190

STARTCHAR U+0000
ENCODING 0
SWIDTH 392 0
DWIDTH 10 0
BBX 10 20 0 -6
BITMAP
0000
0000
0000
0000
0000
0000
7F00
6300
6300
6300
6300
6300
6300
7F00
0000
0000
0000
0000
0000
0000
ENDCHAR

STARTCHAR U+2592
ENCODING 2
SWIDTH 392 0
DWIDTH 10 0
BBX 10 20 0 -6
BITMAP
AA80
5540
AA80
5540
AA80
5540
AA80
5540
AA80
5540
AA80
5540
AA80
5540
AA80
5540
AA80
5540
AA80
5540
ENDCHAR

STARTCHAR U+00B0
ENCODING 7
SWIDTH 392 0
DWIDTH 10 0
BBX 10 20 0 -6
BITMAP
0000
0000
0000
0000
3C00
6600
6600
6600
3C00
0000
0000
0000
0000
0000
0000
0000
0000
0000
0000
0000
ENDCHAR

STARTCHAR U+2518
ENCODING 11
SWIDTH 392 0
DWIDTH 10 0
BBX 10 20 0 -6
BITMAP
0C00
0C00
0C00
0C00
0C00
0C00
0C00
0C00
0C00
FC00
0000
0000
0000
0000
0000
0000
0000
0000
0000
0000
ENDCHAR

STARTCHAR U+2510
ENCODING 12
SWIDTH 392 0
DWIDTH 10 0
BBX 10 20 0 -6
BITMAP
0000
0000
0000
0000
0000
0000
0000
0000
0000
FC00
0C00
0C00
0C00
0C00
0C00
0C00
0C00
0C00
0C00
0C00
ENDCHAR

STARTCHAR U+250C
ENCODING 13
SWIDTH 392 0
DWIDTH 10 0
BBX 10 20 0 -6
BITMAP
0000
0000
0000
0000
0000
0000
0000
0000
0000
0FC0
0C00
0C00
0C00
0C00
0C00
0C00
0C00
0C00
0C00
0C00
ENDCHAR

STARTCHAR U+2514
ENCODING 14
SWIDTH 392 0
DWIDTH 10 0
BBX 10 20 0 -6
BITMAP
0C00
0C00
0C00
0C00
0C00
0C00
0C00
0C00
0C00
0FC0
0000
0000
0000
0000
0000
0000
0000
0000
0000
0000
ENDCHAR

STARTCHAR U+253C
ENCODING 15
SWIDTH 392 0
DWIDTH 10 0
BBX 10 20 0 -6
BITMAP
0C00
0C00
0C00
0C00
0C00
0C00
0C00
0C00
0C00
FFC0
0C00
0C00
0C00
0C00
0C00
0C00
0C00
0C00
0C00
0C00
ENDCHAR

STARTCHAR U+2500
ENCODING 18
SWIDTH 392 0
DWIDTH 10 0
BBX 10 20 0 -6
BITMAP
0000
0000
0000
0000
0000
0000
0000
0000
0000
FFC0
0000
0000
0000
0000
0000
0000
0000
0000
0000
0000
ENDCHAR

STARTCHAR U+251C
ENCODING 21
SWIDTH 392 0
DWIDTH 10 0
BBX 10 20 0 -6
BITMAP
0C00
0C00
0C00
0C00
0C00
0C00
0C00
0C00
0C00
0FC0
0C00
0C00
0C00
0C00
0C00
0C00
0C00
0C00
0C00
0C00
ENDCHAR

STARTCHAR U+2524
ENCODING 22
SWIDTH 392 0
DWIDTH 10 0
BBX 10 20 0 -6
BITMAP
0C00
0C00
0C00
0C00
0C00
0C00
0C00
0C00
0C00
FC00
0C00
0C00
0C00
0C00
0C00
0C00
0C00
0C00
0C00
0C00
ENDCHAR

STARTCHAR U+2534
ENCODING 23
SWIDTH 392 0
DWIDTH 10 0
BBX 10 20 0 -6
BITMAP
0C00
0C00
0C00
0C00
0C00
0C00
0C00
0C00
0C00
FFC0
0000
0000
0000
0000
0000
0000
0000
0000
0000
0000
ENDCHAR

STARTCHAR U+252C
ENCODING 24
SWIDTH 392 0
DWIDTH 10 0
BBX 10 20 0 -6
BITMAP
0000
0000
0000
0000
0000
0000
0000
0000
0000
FFC0
0C00
0C00
0C00
0C00
0C00
0C00
0C00
0C00
0C00
0C00
ENDCHAR

STARTCHAR U+2502
ENCODING 25
SWIDTH 392 0
DWIDTH 10 0
BBX 10 20 0 -6
BITMAP
0C00
0C00
0C00
0C00
0C00
0C00
0C00
0C00
0C00
0C00
0C00
0C00
0C00
0C00
0C00
0C00
0C00
0C00
0C00
0C00
ENDCHAR

STARTCHAR U+00A3
ENCODING 30
SWIDTH 392 0
DWIDTH 10 0
BBX 10 20 0 -6
BITMAP
0000
0000
0000
0000
1E00
3300
3000
3000
7C00
3000
3000
3000
3B00
6E00
0000
0000
0000
0000
0000
0000
ENDCHAR

STARTCHAR U+0020
ENCODING 32
SWIDTH 392 0
DWIDTH 10 0
BBX 10 20 0 -6
BITMAP
0000
0000
0000
0000
0000
0000
0000
0000
0000
0000
0000
0000
0000
0000
0000
0000
0000
0000
0000
0000
ENDCHAR

STARTCHAR U+0021
ENCODING 33
SWIDTH 392 0
DWIDTH 10 0
BBX 10 20 0 -6
BITMAP
0000
0000
0000
1800
3C00
3C00
3C00
1800
1800
0000
0000
0000
1800
1800
0000
0000
0000
0000
0000
0000
ENDCHAR

STARTCHAR U+0022
ENCODING 34
SWIDTH 392 0
DWIDTH 10 0
BBX 10 20 0 -6
BITMAP
0000
0000
6600
6600
6600
6600
0000
0000
0000
0000
0000
0000
0000
0000
0000
0000
0000
0000
0000
0000
ENDCHAR

STARTCHAR U+0023
ENCODING 35
SWIDTH 392 0
DWIDTH 10 0
BBX 10 20 0 -6
BITMAP
0000
0000
1980
1980
1980
7FC0
3300
3300
3300
3300
FF80
6600
6600
6600
0000
0000
0000
0000
0000
0000
ENDCHAR

STARTCHAR U+0024
ENCODING 36
SWIDTH 392 0
DWIDTH 10 0
BBX 10 20 0 -6
BITMAP
0000
0C00
0C00
0C00
3E00
6300
6000
6000
3E00
0300
0300
6300
3E00
1800
1800
1800
0000
0000
0000
0000
ENDCHAR

STARTCHAR U+0025
ENCODING 37
SWIDTH 392 0
DWIDTH 10 0
BBX 10 20 0 -6
BITMAP
0000
0000
0000
0000
7000
D980
DB00
7600
0C00
1800
3700
6D80
CD80
0700
0000
0000
0000
0000
0000
0000
ENDCHAR

STARTCHAR U+0026
ENCODING 38
SWIDTH 392 0
DWIDTH 10 0
BBX 10 20 0 -6
BITMAP
0000
0000
0000
7000
D800
D800
D800
7000
7000
DB00
CF00
C600
CF00
7980
0000
0000
0000
0000
0000
0000
ENDCHAR

STARTCHAR U+0027
ENCODING 39
SWIDTH 392 0
DWIDTH 10 0
BBX 10 20 0 -6
BITMAP
0000
0000
1800
1800
1800
1800
0000
0000
0000
0000
0000
0000
0000
0000
0000
0000
0000
0000
0000
0000
ENDCHAR

STARTCHAR U+0028
ENCODING 40
SWIDTH 392 0
DWIDTH 10 0
BBX 10 20 0 -6
BITMAP
0000
0000
0000
0600
0C00
1800
1800
3000
3000
3000
3000
3000
3000
1800
1800
0C00
0600
0000
0000
0000
ENDCHAR

STARTCHAR U+0029
ENCODING 41
SWIDTH 392 0
DWIDTH 10 0
BBX 10 20 0 -6
BITMAP
0000
0000
0000
3000
1800
0C00
0C00
0600
0600
0600
0600
0600
0600
0C00
0C00
1800
3000
0000
0000
0000
ENDCHAR

STARTCHAR U+002A
ENCODING 42
SWIDTH 392 0
DWIDTH 10 0
BBX 10 20 0 -6
BITMAP
0000
0000
0000
0000
0000
0C00
6D80
3F00
1E00
3F00
6D80
0C00
0000
0000
0000
0000
0000
0000
0000
0000
ENDCHAR

STARTCHAR U+002B
ENCODING 43
SWIDTH 392 0
DWIDTH 10 0
BBX 10 20 0 -6
BITMAP
0000
0000
0000
0000
0000
0C00
0C00
0C00
7F80
0C00
0C00
0C00
0000
0000
0000
0000
0000
0000
0000
0000
ENDCHAR

STARTCHAR U+002C
ENCODING 44
SWIDTH 392 0
DWIDTH 10 0
BBX 10 20 0 -6
BITMAP
0000
0000
0000
0000
0000
0000
0000
0000
0000
0000
0000
0000
1C00
1C00
0C00
0C00
3800
0000
0000
0000
ENDCHAR

STARTCHAR U+002D
ENCODING 45
SWIDTH 392 0
DWIDTH 10 0
BBX 10 20 0 -6
BITMAP
0000
0000
0000
0000
0000
0000
0000
0000
7F80
0000
0000
0000
0000
0000
0000
0000
0000
0000
0000
0000
ENDCHAR

STARTCHAR U+002E
ENCODING 46
SWIDTH 392 0
DWIDTH 10 0
BBX 10 20 0 -6
BITMAP
0000
0000
0000
0000
0000
0000
0000
0000
0000
0000
0000
0000
1C00
1C00
0000
0000
0000
0000
0000
0000
ENDCHAR

STARTCHAR U+002F
ENCODING 47
SWIDTH 392 0
DWIDTH 10 0
BBX 10 20 0 -6
BITMAP
0000
0000
0180
0180
0300
0300
0600
0600
0C00
0C00
1800
1800
3000
3000
6000
6000
0000
0000
0000
0000
ENDCHAR

STARTCHAR U+0030
ENCODING 48
SWIDTH 392 0
DWIDTH 10 0
BBX 10 20 0 -6
BITMAP
0000
0000
0000
0000
3E00
6300
6300
6700
6F00
7B00
7300
6300
6300
3E00
0000
0000
0000
0000
0000
0000
ENDCHAR

STARTCHAR U+0031
ENCODING 49
SWIDTH 392 0
DWIDTH 10 0
BBX 10 20 0 -6
BITMAP
0000
0000
0000
0000
0C00
1C00
3C00
6C00
0C00
0C00
0C00
0C00
0C00
7F80
0000
0000
0000
0000
0000
0000
ENDCHAR

STARTCHAR U+0032
ENCODING 50
SWIDTH 392 0
DWIDTH 10 0
BBX 10 20 0 -6
BITMAP
0000
0000
0000
0000
3E00
6300
0300
0300
0600
0C00
1800
3000
6000
7F00
0000
0000
0000
0000
0000
0000
ENDCHAR

STARTCHAR U+0033
ENCODING 51
SWIDTH 392 0
DWIDTH 10 0
BBX 10 20 0 -6
BITMAP
0000
0000
0000
0000
7F00
0300
0600
0C00
1E00
0300
0300
0300
6300
3E00
0000
0000
0000
0000
0000
0000
ENDCHAR

STARTCHAR U+0034
ENCODING 52
SWIDTH 392 0
DWIDTH 10 0
BBX 10 20 0 -6
BITMAP
0000
0000
0000
0000
0300
0700
0F00
1B00
3300
6300
7F80
0300
0300
0300
0000
0000
0000
0000
0000
0000
ENDCHAR

STARTCHAR U+0035
ENCODING 53
SWIDTH 392 0
DWIDTH 10 0
BBX 10 20 0 -6
BITMAP
0000
0000
0000
0000
7F00
6000
6000
6000
7E00
0300
0300
0300
6300
3E00
0000
0000
0000
0000
0000
0000
ENDCHAR

STARTCHAR U+0036
ENCODING 54
SWIDTH 392 0
DWIDTH 10 0
BBX 10 20 0 -6
BITMAP
0000
0000
0000
0000
1C00
3000
6000
6000
7E00
6300
6300
6300
6300
3E00
0000
0000
0000
0000
0000
0000
ENDCHAR

STARTCHAR U+0037
ENCODING 55
SWIDTH 392 0
DWIDTH 10 0
BBX 10 20 0 -6
BITMAP
0000
0000
0000
0000
7F00
0300
0600
0600
0C00
0C00
1800
1800
3000
3000
0000
0000
0000
0000
0000
0000
ENDCHAR

STARTCHAR U+0038
ENCODING 56
SWIDTH 392 0
DWIDTH 10 0
BBX 10 20 0 -6
BITMAP
0000
0000
0000
0000
3E00
6300
6300
6300
3E00
6300
6300
6300
6300
3E00
0000
0000
0000
0000
0000
0000
ENDCHAR

STARTCHAR U+0039
ENCODING 57
SWIDTH 392 0
DWIDTH 10 0
BBX 10 20 0 -6
BITMAP
0000
0000
0000
0000
3E00
6300
6300
6300
6300
3F00
0300
0300
0600
1C00
0000
0000
0000
0000
0000
0000
ENDCHAR

STARTCHAR U+003A
ENCODING 58
SWIDTH 392 0
DWIDTH 10 0
BBX 10 20 0 -6
BITMAP
0000
0000
0000
0000
0000
0000
1C00
1C00
0000
0000
0000
0000
1C00
1C00
0000
0000
0000
0000
0000
0000
ENDCHAR

STARTCHAR U+003B
ENCODING 59
SWIDTH 392 0
DWIDTH 10 0
BBX 10 20 0 -6
BITMAP
0000
0000
0000
0000
0000
0000
1C00
1C00
0000
0000
0000
0000
1C00
1C00
0C00
0C00
3800
0000
0000
0000
ENDCHAR

STARTCHAR U+003C
ENCODING 60
SWIDTH 392 0
DWIDTH 10 0
BBX 10 20 0 -6
BITMAP
0000
0000
0000
0000
0300
0600
0C00
1800
3000
1800
0C00
0600
0300
0000
0000
0000
0000
0000
0000
0000
ENDCHAR

STARTCHAR U+003D
ENCODING 61
SWIDTH 392 0
DWIDTH 10 0
BBX 10 20 0 -6
BITMAP
0000
0000
0000
0000
0000
0000
7F00
0000
0000
0000
7F00
0000
0000
0000
0000
0000
0000
0000
0000
0000
ENDCHAR

STARTCHAR U+003E
ENCODING 62
SWIDTH 392 0
DWIDTH 10 0
BBX 10 20 0 -6
BITMAP
0000
0000
0000
0000
6000
3000
1800
0C00
0600
0C00
1800
3000
6000
0000
0000
0000
0000
0000
0000
0000
ENDCHAR

STARTCHAR U+003F
ENCODING 63
SWIDTH 392 0
DWIDTH 10 0
BBX 10 20 0 -6
BITMAP
0000
0000
0000
3F00
6180
0180
0300
0600
0C00
0000
0000
0000
0C00
0C00
0000
0000
0000
0000
0000
0000
ENDCHAR

STARTCHAR U+0040
ENCODING 64
SWIDTH 392 0
DWIDTH 10 0
BBX 10 20 0 -6
BITMAP
0000
0000
3E00
6300
C180
C180
CF80
D980
D980
D980
D980
CF80
C000
C000
6000
3F00
0000
0000
0000
0000
ENDCHAR

STARTCHAR U+0041
ENCODING 65
SWIDTH 392 0
DWIDTH 10 0
BBX 10 20 0 -6
BITMAP
0000
0000
0000
0000
1C00
3E00
6300
6300
6300
7F00
6300
6300
6300
6300
0000
0000
0000
0000
0000
0000
ENDCHAR

STARTCHAR U+0042
ENCODING 66
SWIDTH 392 0
DWIDTH 10 0
BBX 10 20 0 -6
BITMAP
0000
0000
0000
0000
7E00
6300
6300
6300
7E00
6300
6300
6300
6300
7E00
0000
0000
0000
0000
0000
0000
ENDCHAR

STARTCHAR U+0043
ENCODING 67
SWIDTH 392 0
DWIDTH 10 0
BBX 10 20 0 -6
BITMAP
0000
0000
0000
0000
1F00
3000
6000
6000
6000
6000
6000
6000
3000
1F00
0000
0000
0000
0000
0000
0000
ENDCHAR

STARTCHAR U+0044
ENCODING 68
SWIDTH 392 0
DWIDTH 10 0
BBX 10 20 0 -6
BITMAP
0000
0000
0000
0000
7C00
6600
6300
6300
6300
6300
6300
6300
6600
7C00
0000
0000
0000
0000
0000
0000
ENDCHAR

STARTCHAR U+0045
ENCODING 69
SWIDTH 392 0
DWIDTH 10 0
BBX 10 20 0 -6
BITMAP
0000
0000
0000
0000
7F00
6000
6000
6000
7E00
6000
6000
6000
6000
7F00
0000
0000
0000
0000
0000
0000
ENDCHAR

STARTCHAR U+0046
ENCODING 70
SWIDTH 392 0
DWIDTH 10 0
BBX 10 20 0 -6
BITMAP
0000
0000
0000
0000
7F00
6000
6000
6000
7E00
6000
6000
6000
6000
6000
0000
0000
0000
0000
0000
0000
ENDCHAR

STARTCHAR U+0047
ENCODING 71
SWIDTH 392 0
DWIDTH 10 0
BBX 10 20 0 -6
BITMAP
0000
0000
0000
0000
1F00
3000
6000
6000
6000
6700
6300
6300
3300
1F00
0000
0000
0000
0000
0000
0000
ENDCHAR

STARTCHAR U+0048
ENCODING 72
SWIDTH 392 0
DWIDTH 10 0
BBX 10 20 0 -6
BITMAP
0000
0000
0000
0000
6300
6300
6300
6300
7F00
6300
6300
6300
6300
6300
0000
0000
0000
0000
0000
0000
ENDCHAR

STARTCHAR U+0049
ENCODING 73
SWIDTH 392 0
DWIDTH 10 0
BBX 10 20 0 -6
BITMAP
0000
0000
0000
0000
7F80
0C00
0C00
0C00
0C00
0C00
0C00
0C00
0C00
7F80
0000
0000
0000
0000
0000
0000
ENDCHAR

STARTCHAR U+004A
ENCODING 74
SWIDTH 392 0
DWIDTH 10 0
BBX 10 20 0 -6
BITMAP
0000
0000
0000
0000
0300
0300
0300
0300
0300
0300
6300
6300
6300
3E00
0000
0000
0000
0000
0000
0000
ENDCHAR

STARTCHAR U+004B
ENCODING 75
SWIDTH 392 0
DWIDTH 10 0
BBX 10 20 0 -6
BITMAP
0000
0000
0000
0000
6180
6300
6600
6C00
7800
7800
6C00
6600
6300
6180
0000
0000
0000
0000
0000
0000
ENDCHAR

STARTCHAR U+004C
ENCODING 76
SWIDTH 392 0
DWIDTH 10 0
BBX 10 20 0 -6
BITMAP
0000
0000
0000
0000
6000
6000
6000
6000
6000
6000
6000
6000
6000
7F00
0000
0000
0000
0000
0000
0000
ENDCHAR

STARTCHAR U+004D
ENCODING 77
SWIDTH 392 0
DWIDTH 10 0
BBX 10 20 0 -6
BITMAP
0000
0000
0000
0000
6180
7380
7F80
6D80
6180
6180
6180
6180
6180
6180
0000
0000
0000
0000
0000
0000
ENDCHAR

STARTCHAR U+004E
ENCODING 78
SWIDTH 392 0
DWIDTH 10 0
BBX 10 20 0 -6
BITMAP
0000
0000
0000
0000
6180
7180
7980
6D80
6780
6380
6180
6180
6180
6180
0000
0000
0000
0000
0000
0000
ENDCHAR

STARTCHAR U+004F
ENCODING 79
SWIDTH 392 0
DWIDTH 10 0
BBX 10 20 0 -6
BITMAP
0000
0000
0000
0000
1E00
3300
6180
6180
6180
6180
6180
6180
3300
1E00
0000
0000
0000
0000
0000
0000
ENDCHAR

STARTCHAR U+0050
ENCODING 80
SWIDTH 392 0
DWIDTH 10 0
BBX 10 20 0 -6
BITMAP
0000
0000
0000
0000
7E00
6300
6300
6300
6300
7E00
6000
6000
6000
6000
0000
0000
0000
0000
0000
0000
ENDCHAR

STARTCHAR U+0051
ENCODING 81
SWIDTH 392 0
DWIDTH 10 0
BBX 10 20 0 -6
BITMAP
0000
0000
0000
0000
1E00
3300
6180
6180
6180
6180
6180
6180
3300
1E00
0600
0380
0000
0000
0000
0000
ENDCHAR

STARTCHAR U+0052
ENCODING 82
SWIDTH 392 0
DWIDTH 10 0
BBX 10 20 0 -6
BITMAP
0000
0000
0000
0000
7E00
6300
6300
6300
6300
7E00
6C00
6600
6300
6300
0000
0000
0000
0000
0000
0000
ENDCHAR

STARTCHAR U+0053
ENCODING 83
SWIDTH 392 0
DWIDTH 10 0
BBX 10 20 0 -6
BITMAP
0000
0000
0000
0000
3F00
6000
6000
6000
3800
0E00
0300
0300
0300
7E00
0000
0000
0000
0000
0000
0000
ENDCHAR

STARTCHAR U+0054
ENCODING 84
SWIDTH 392 0
DWIDTH 10 0
BBX 10 20 0 -6
BITMAP
0000
0000
0000
0000
7F80
0C00
0C00
0C00
0C00
0C00
0C00
0C00
0C00
0C00
0000
0000
0000
0000
0000
0000
ENDCHAR

STARTCHAR U+0055
ENCODING 85
SWIDTH 392 0
DWIDTH 10 0
BBX 10 20 0 -6
BITMAP
0000
0000
0000
0000
6300
6300
6300
6300
6300
6300
6300
6300
6300
3E00
0000
0000
0000
0000
0000
0000
ENDCHAR

STARTCHAR U+0056
ENCODING 86
SWIDTH 392 0
DWIDTH 10 0
BBX 10 20 0 -6
BITMAP
0000
0000
0000
0000
6300
6300
6300
6300
6300
6300
3600
3600
1C00
1C00
0000
0000
0000
0000
0000
0000
ENDCHAR

STARTCHAR U+0057
ENCODING 87
SWIDTH 392 0
DWIDTH 10 0
BBX 10 20 0 -6
BITMAP
0000
0000
0000
0000
6180
6180
6180
6180
6180
6D80
6D80
7F80
7380
6180
0000
0000
0000
0000
0000
0000
ENDCHAR

STARTCHAR U+0058
ENCODING 88
SWIDTH 392 0
DWIDTH 10 0
BBX 10 20 0 -6
BITMAP
0000
0000
0000
0000
6300
6300
6300
3600
1C00
1C00
3600
6300
6300
6300
0000
0000
0000
0000
0000
0000
ENDCHAR

STARTCHAR U+0059
ENCODING 89
SWIDTH 392 0
DWIDTH 10 0
BBX 10 20 0 -6
BITMAP
0000
0000
0000
0000
6180
6180
6180
3300
1E00
0C00
0C00
0C00
0C00
0C00
0000
0000
0000
0000
0000
0000
ENDCHAR

STARTCHAR U+005A
ENCODING 90
SWIDTH 392 0
DWIDTH 10 0
BBX 10 20 0 -6
BITMAP
0000
0000
0000
0000
7F00
0300
0300
0600
0C00
1800
3000
6000
6000
7F00
0000
0000
0000
0000
0000
0000
ENDCHAR

STARTCHAR U+005B
ENCODING 91
SWIDTH 392 0
DWIDTH 10 0
BBX 10 20 0 -6
BITMAP
0000
0000
0000
3F00
3000
3000
3000
3000
3000
3000
3000
3000
3000
3000
3000
3000
3F00
0000
0000
0000
ENDCHAR

STARTCHAR U+005C
ENCODING 92
SWIDTH 392 0
DWIDTH 10 0
BBX 10 20 0 -6
BITMAP
0000
0000
6000
6000
3000
3000
1800
1800
0C00
0C00
0600
0600
0300
0300
0180
0180
0000
0000
0000
0000
ENDCHAR

STARTCHAR U+005D
ENCODING 93
SWIDTH 392 0
DWIDTH 10 0
BBX 10 20 0 -6
BITMAP
0000
0000
0000
7E00
0600
0600
0600
0600
0600
0600
0600
0600
0600
0600
0600
0600
7E00
0000
0000
0000
ENDCHAR

STARTCHAR U+005E
ENCODING 94
SWIDTH 392 0
DWIDTH 10 0
BBX 10 20 0 -6
BITMAP
0000
0000
0000
0800
1C00
3600
6300
0000
0000
0000
0000
0000
0000
0000
0000
0000
0000
0000
0000
0000
ENDCHAR

STARTCHAR U+005F
ENCODING 95
SWIDTH 392 0
DWIDTH 10 0
BBX 10 20 0 -6
BITMAP
0000
0000
0000
0000
0000
0000
0000
0000
0000
0000
0000
0000
0000
0000
0000
0000
FFC0
0000
0000
0000
ENDCHAR

STARTCHAR U+0060
ENCODING 96
SWIDTH 392 0
DWIDTH 10 0
BBX 10 20 0 -6
BITMAP
0000
0000
3000
1800
0C00
0600
0000
0000
0000
0000
0000
0000
0000
0000
0000
0000
0000
0000
0000
0000
ENDCHAR

STARTCHAR U+0061
ENCODING 97
SWIDTH 392 0
DWIDTH 10 0
BBX 10 20 0 -6
BITMAP
0000
0000
0000
0000
0000
0000
3E00
0300
0300
3F00
6300
6300
6700
3B00
0000
0000
0000
0000
0000
0000
ENDCHAR

STARTCHAR U+0062
ENCODING 98
SWIDTH 392 0
DWIDTH 10 0
BBX 10 20 0 -6
BITMAP
0000
0000
0000
6000
6000
6000
6E00
7300
6180
6180
6180
6180
6300
7E00
0000
0000
0000
0000
0000
0000
ENDCHAR

STARTCHAR U+0063
ENCODING 99
SWIDTH 392 0
DWIDTH 10 0
BBX 10 20 0 -6
BITMAP
0000
0000
0000
0000
0000
0000
1E00
3300
6000
6000
6000
6000
3300
1E00
0000
0000
0000
0000
0000
0000
ENDCHAR

STARTCHAR U+0064
ENCODING 100
SWIDTH 392 0
DWIDTH 10 0
BBX 10 20 0 -6
BITMAP
0000
0000
0000
0180
0180
0180
1F80
3180
6180
6180
6180
6180
3380
1D80
0000
0000
0000
0000
0000
0000
ENDCHAR

STARTCHAR U+0065
ENCODING 101
SWIDTH 392 0
DWIDTH 10 0
BBX 10 20 0 -6
BITMAP
0000
0000
0000
0000
0000
0000
1E00
3300
6300
7F00
6000
6000
3000
1F00
0000
0000
0000
0000
0000
0000
ENDCHAR

STARTCHAR U+0066
ENCODING 102
SWIDTH 392 0
DWIDTH 10 0
BBX 10 20 0 -6
BITMAP
0000
0000
0F00
1800
1800
1800
7F00
1800
1800
1800
1800
1800
1800
1800
0000
0000
0000
0000
0000
0000
ENDCHAR

STARTCHAR U+0067
ENCODING 103
SWIDTH 360 0
DWIDTH 10 0
BBX 10 20 0 -6
BITMAP
0000
0000
0000
0000
0000
0000
1EC0
3380
6180
6180
3300
1E00
3000
3F00
6180
6180
3F00
0000
0000
0000
ENDCHAR
STARTCHAR U+0068
ENCODING 104
SWIDTH 392 0
DWIDTH 10 0
BBX 10 20 0 -6
BITMAP
0000
0000
0000
6000
6000
6000
6E00
7300
6300
6300
6300
6300
6300
6300
0000
0000
0000
0000
0000
0000
ENDCHAR

STARTCHAR U+0069
ENCODING 105
SWIDTH 392 0
DWIDTH 10 0
BBX 10 20 0 -6
BITMAP
0000
0000
0C00
0C00
0000
0000
7C00
0C00
0C00
0C00
0C00
0C00
0C00
7F80
0000
0000
0000
0000
0000
0000
ENDCHAR

STARTCHAR U+006A
ENCODING 106
SWIDTH 392 0
DWIDTH 10 0
BBX 10 20 0 -6
BITMAP
0000
0000
0600
0600
0000
0000
3E00
0600
0600
0600
0600
0600
0600
0600
0600
0C00
7800
0000
0000
0000
ENDCHAR

STARTCHAR U+006B
ENCODING 107
SWIDTH 392 0
DWIDTH 10 0
BBX 10 20 0 -6
BITMAP
0000
0000
6000
6000
6000
6000
6300
6600
6C00
7800
7C00
6600
6300
6180
0000
0000
0000
0000
0000
0000
ENDCHAR

STARTCHAR U+006C
ENCODING 108
SWIDTH 360 0
DWIDTH 10 0
BBX 10 20 0 -6
BITMAP
0000
0000
0000
7C00
0C00
0C00
0C00
0C00
0C00
0C00
0C00
0C00
0C00
0780
0000
0000
0000
0000
0000
0000
ENDCHAR
STARTCHAR U+006D
ENCODING 109
SWIDTH 392 0
DWIDTH 10 0
BBX 10 20 0 -6
BITMAP
0000
0000
0000
0000
0000
0000
7F00
6D80
6D80
6D80
6D80
6D80
6D80
6D80
0000
0000
0000
0000
0000
0000
ENDCHAR

STARTCHAR U+006E
ENCODING 110
SWIDTH 392 0
DWIDTH 10 0
BBX 10 20 0 -6
BITMAP
0000
0000
0000
0000
0000
0000
6E00
7300
6300
6300
6300
6300
6300
6300
0000
0000
0000
0000
0000
0000
ENDCHAR

STARTCHAR U+006F
ENCODING 111
SWIDTH 392 0
DWIDTH 10 0
BBX 10 20 0 -6
BITMAP
0000
0000
0000
0000
0000
0000
1E00
3300
6180
6180
6180
6180
3300
1E00
0000
0000
0000
0000
0000
0000
ENDCHAR

STARTCHAR U+0070
ENCODING 112
SWIDTH 392 0
DWIDTH 10 0
BBX 10 20 0 -6
BITMAP
0000
0000
0000
0000
0000
0000
6E00
7300
6180
6180
6180
6180
6300
7E00
6000
6000
6000
0000
0000
0000
ENDCHAR

STARTCHAR U+0071
ENCODING 113
SWIDTH 392 0
DWIDTH 10 0
BBX 10 20 0 -6
BITMAP
0000
0000
0000
0000
0000
0000
1F80
3180
6180
6180
6180
6180
3380
1D80
0180
0180
0180
0000
0000
0000
ENDCHAR

STARTCHAR U+0072
ENCODING 114
SWIDTH 392 0
DWIDTH 10 0
BBX 10 20 0 -6
BITMAP
0000
0000
0000
0000
0000
0000
6E00
7300
6000
6000
6000
6000
6000
6000
0000
0000
0000
0000
0000
0000
ENDCHAR

STARTCHAR U+0073
ENCODING 115
SWIDTH 392 0
DWIDTH 10 0
BBX 10 20 0 -6
BITMAP
0000
0000
0000
0000
0000
0000
3F00
6000
6000
3800
0E00
0300
0300
7E00
0000
0000
0000
0000
0000
0000
ENDCHAR

STARTCHAR U+0074
ENCODING 116
SWIDTH 392 0
DWIDTH 10 0
BBX 10 20 0 -6
BITMAP
0000
0000
0000
0000
1800
1800
7F00
1800
1800
1800
1800
1800
1800
0F00
0000
0000
0000
0000
0000
0000
ENDCHAR

STARTCHAR U+0075
ENCODING 117
SWIDTH 392 0
DWIDTH 10 0
BBX 10 20 0 -6
BITMAP
0000
0000
0000
0000
0000
0000
6300
6300
6300
6300
6300
6300
6700
3B00
0000
0000
0000
0000
0000
0000
ENDCHAR

STARTCHAR U+0076
ENCODING 118
SWIDTH 392 0
DWIDTH 10 0
BBX 10 20 0 -6
BITMAP
0000
0000
0000
0000
0000
0000
6300
6300
6300
6300
3600
3600
1C00
1C00
0000
0000
0000
0000
0000
0000
ENDCHAR

STARTCHAR U+0077
ENCODING 119
SWIDTH 360 0
DWIDTH 10 0
BBX 10 20 0 -6
BITMAP
0000
0000
0000
0000
0000
0000
6180
6180
6180
6D80
6D80
6D80
6D80
3F00
0000
0000
0000
0000
0000
0000
ENDCHAR
STARTCHAR U+0078
ENCODING 120
SWIDTH 392 0
DWIDTH 10 0
BBX 10 20 0 -6
BITMAP
0000
0000
0000
0000
0000
0000
6300
6300
3600
1C00
1C00
3600
6300
6300
0000
0000
0000
0000
0000
0000
ENDCHAR

STARTCHAR U+0079
ENCODING 121
SWIDTH 360 0
DWIDTH 10 0
BBX 10 20 0 -6
BITMAP
0000
0000
0000
0000
0000
0000
6300
6300
6300
6300
6300
3700
1F00
0300
0300
0600
3C00
0000
0000
0000
ENDCHAR
STARTCHAR U+007A
ENCODING 122
SWIDTH 392 0
DWIDTH 10 0
BBX 10 20 0 -6
BITMAP
0000
0000
0000
0000
0000
0000
7F00
0300
0600
0C00
1800
3000
6000
7F00
0000
0000
0000
0000
0000
0000
ENDCHAR

STARTCHAR U+007B
ENCODING 123
SWIDTH 392 0
DWIDTH 10 0
BBX 10 20 0 -6
BITMAP
0000
0000
0780
0C00
0C00
0C00
0C00
0C00
1800
7000
1800
0C00
0C00
0C00
0C00
0C00
0780
0000
0000
0000
ENDCHAR

STARTCHAR U+007C
ENCODING 124
SWIDTH 392 0
DWIDTH 10 0
BBX 10 20 0 -6
BITMAP
0000
0000
0000
1800
1800
1800
1800
1800
1800
1800
1800
1800
1800
1800
1800
1800
0000
0000
0000
0000
ENDCHAR

STARTCHAR U+007D
ENCODING 125
SWIDTH 392 0
DWIDTH 10 0
BBX 10 20 0 -6
BITMAP
0000
0000
7800
0C00
0C00
0C00
0C00
0C00
0600
0380
0600
0C00
0C00
0C00
0C00
0C00
7800
0000
0000
0000
ENDCHAR

STARTCHAR U+007E
ENCODING 126
SWIDTH 392 0
DWIDTH 10 0
BBX 10 20 0 -6
BITMAP
0000
0000
0000
6300
F300
CF00
C600
0000
0000
0000
0000
0000
0000
0000
0000
0000
0000
0000
0000
0000
ENDCHAR

STARTCHAR U+00A0
ENCODING 160
SWIDTH 392 0
DWIDTH 10 0
BBX 10 20 0 -6
BITMAP
0000
0000
0000
0000
0000
0000
0000
0000
0000
0000
0000
0000
0000
0000
0000
0000
0000
0000
0000
0000
ENDCHAR

STARTCHAR U+00A1
ENCODING 161
SWIDTH 392 0
DWIDTH 10 0
BBX 10 20 0 -6
BITMAP
0000
0000
0000
0000
0000
0000
1800
1800
0000
0000
0000
1800
1800
3C00
3C00
3C00
1800
0000
0000
0000
ENDCHAR

STARTCHAR U+00A2
ENCODING 162
SWIDTH 392 0
DWIDTH 10 0
BBX 10 20 0 -6
BITMAP
0000
0000
0000
0C00
0C00
1E00
3300
6000
6000
6000
6000
3300
1E00
0C00
0C00
0000
0000
0000
0000
0000
ENDCHAR

STARTCHAR U+00A3
ENCODING 163
SWIDTH 392 0
DWIDTH 10 0
BBX 10 20 0 -6
BITMAP
0000
0000
0000
0000
1E00
3300
3000
3000
7C00
3000
3000
3000
3B00
6E00
0000
0000
0000
0000
0000
0000
ENDCHAR

STARTCHAR U+00A4
ENCODING 164
SWIDTH 392 0
DWIDTH 10 0
BBX 10 20 0 -6
BITMAP
0000
0000
0000
0000
0000
C180
7F00
3600
6300
6300
3600
7F00
C180
0000
0000
0000
0000
0000
0000
0000
ENDCHAR

STARTCHAR U+00A5
ENCODING 165
SWIDTH 392 0
DWIDTH 10 0
BBX 10 20 0 -6
BITMAP
0000
0000
0000
0000
6180
3300
1E00
0C00
3F00
0C00
0C00
3F00
0C00
0C00
0000
0000
0000
0000
0000
0000
ENDCHAR

STARTCHAR U+00A6
ENCODING 166
SWIDTH 392 0
DWIDTH 10 0
BBX 10 20 0 -6
BITMAP
0000
0000
0000
1800
1800
1800
1800
1800
0000
0000
0000
1800
1800
1800
1800
1800
0000
0000
0000
0000
ENDCHAR

STARTCHAR U+00A8
ENCODING 168
SWIDTH 392 0
DWIDTH 10 0
BBX 10 20 0 -6
BITMAP
0000
0000
3300
3300
0000
0000
0000
0000
0000
0000
0000
0000
0000
0000
0000
0000
0000
0000
0000
0000
ENDCHAR

STARTCHAR U+00A9
ENCODING 169
SWIDTH 392 0
DWIDTH 10 0
BBX 10 20 0 -6
BITMAP
0000
0000
0000
0000
1E00
2100
4080
4E80
5880
5880
5880
4E80
4080
2100
1E00
0000
0000
0000
0000
0000
ENDCHAR

STARTCHAR U+00AB
ENCODING 171
SWIDTH 392 0
DWIDTH 10 0
BBX 10 20 0 -6
BITMAP
0000
0000
0000
0000
0000
0000
1980
3300
6600
CC00
6600
3300
1980
0000
0000
0000
0000
0000
0000
0000
ENDCHAR

STARTCHAR U+00AD
ENCODING 173
SWIDTH 392 0
DWIDTH 10 0
BBX 10 20 0 -6
BITMAP
0000
0000
0000
0000
0000
0000
0000
0000
7F80
0000
0000
0000
0000
0000
0000
0000
0000
0000
0000
0000
ENDCHAR

STARTCHAR U+00B0
ENCODING 176
SWIDTH 392 0
DWIDTH 10 0
BBX 10 20 0 -6
BITMAP
0000
0000
0000
0000
3C00
6600
6600
6600
3C00
0000
0000
0000
0000
0000
0000
0000
0000
0000
0000
0000
ENDCHAR

STARTCHAR U+00B4
ENCODING 180
SWIDTH 392 0
DWIDTH 10 0
BBX 10 20 0 -6
BITMAP
0000
0300
0600
0C00
0000
0000
0000
0000
0000
0000
0000
0000
0000
0000
0000
0000
0000
0000
0000
0000
ENDCHAR

STARTCHAR U+00B8
ENCODING 184
SWIDTH 392 0
DWIDTH 10 0
BBX 10 20 0 -6
BITMAP
0000
0000
0000
0000
0000
0000
0000
0000
0000
0000
0000
0000
0000
0000
0C00
0C00
0C00
3800
0000
0000
ENDCHAR

STARTCHAR U+00BB
ENCODING 187
SWIDTH 392 0
DWIDTH 10 0
BBX 10 20 0 -6
BITMAP
0000
0000
0000
0000
0000
0000
CC00
6600
3300
1980
3300
6600
CC00
0000
0000
0000
0000
0000
0000
0000
ENDCHAR

STARTCHAR U+00BF
ENCODING 191
SWIDTH 392 0
DWIDTH 10 0
BBX 10 20 0 -6
BITMAP
0000
0000
0000
0000
0000
0000
0C00
0C00
0000
0000
0000
0C00
1800
3000
6000
6180
3F00
0000
0000
0000
ENDCHAR

STARTCHAR U+00C0
ENCODING 192
SWIDTH 392 0
DWIDTH 10 0
BBX 10 20 0 -6
BITMAP
6000
3000
1800
0000
1C00
3E00
6300
6300
6300
7F00
6300
6300
6300
6300
0000
0000
0000
0000
0000
0000
ENDCHAR

STARTCHAR U+00C1
ENCODING 193
SWIDTH 392 0
DWIDTH 10 0
BBX 10 20 0 -6
BITMAP
0300
0600
0C00
0000
1C00
3E00
6300
6300
6300
7F00
6300
6300
6300
6300
0000
0000
0000
0000
0000
0000
ENDCHAR

STARTCHAR U+00C2
ENCODING 194
SWIDTH 392 0
DWIDTH 10 0
BBX 10 20 0 -6
BITMAP
0800
1C00
3600
0000
1C00
3E00
6300
6300
6300
7F00
6300
6300
6300
6300
0000
0000
0000
0000
0000
0000
ENDCHAR

STARTCHAR U+00C3
ENCODING 195
SWIDTH 392 0
DWIDTH 10 0
BBX 10 20 0 -6
BITMAP
3300
6B00
6600
0000
1C00
3E00
6300
6300
6300
7F00
6300
6300
6300
6300
0000
0000
0000
0000
0000
0000
ENDCHAR

STARTCHAR U+00C4
ENCODING 196
SWIDTH 392 0
DWIDTH 10 0
BBX 10 20 0 -6
BITMAP
0000
6600
6600
0000
1C00
3E00
6300
6300
6300
7F00
6300
6300
6300
6300
0000
0000
0000
0000
0000
0000
ENDCHAR

STARTCHAR U+00C5
ENCODING 197
SWIDTH 392 0
DWIDTH 10 0
BBX 10 20 0 -6
BITMAP
0000
1C00
3600
3600
1C00
1C00
3600
6300
6300
6300
7F00
6300
6300
6300
0000
0000
0000
0000
0000
0000
ENDCHAR

STARTCHAR U+00C6
ENCODING 198
SWIDTH 392 0
DWIDTH 10 0
BBX 10 20 0 -6
BITMAP
0000
0000
0000
0000
1F80
3C00
6C00
CC00
CF00
CC00
FC00
CC00
CC00
CF80
0000
0000
0000
0000
0000
0000
ENDCHAR

STARTCHAR U+00C7
ENCODING 199
SWIDTH 392 0
DWIDTH 10 0
BBX 10 20 0 -6
BITMAP
0000
0000
0000
0000
1F00
3000
6000
6000
6000
6000
6000
6000
3000
1F00
0C00
0C00
0C00
3800
0000
0000
ENDCHAR

STARTCHAR U+00C8
ENCODING 200
SWIDTH 392 0
DWIDTH 10 0
BBX 10 20 0 -6
BITMAP
6000
3000
1800
0000
7F00
6000
6000
6000
7E00
6000
6000
6000
6000
7F00
0000
0000
0000
0000
0000
0000
ENDCHAR

STARTCHAR U+00C9
ENCODING 201
SWIDTH 392 0
DWIDTH 10 0
BBX 10 20 0 -6
BITMAP
0300
0600
0C00
0000
7F00
6000
6000
6000
7E00
6000
6000
6000
6000
7F00
0000
0000
0000
0000
0000
0000
ENDCHAR

STARTCHAR U+00CA
ENCODING 202
SWIDTH 392 0
DWIDTH 10 0
BBX 10 20 0 -6
BITMAP
0800
1C00
3600
0000
7F00
6000
6000
6000
7E00
6000
6000
6000
6000
7F00
0000
0000
0000
0000
0000
0000
ENDCHAR

STARTCHAR U+00CB
ENCODING 203
SWIDTH 392 0
DWIDTH 10 0
BBX 10 20 0 -6
BITMAP
0000
6600
6600
0000
7F00
6000
6000
6000
7E00
6000
6000
6000
6000
7F00
0000
0000
0000
0000
0000
0000
ENDCHAR

STARTCHAR U+00CC
ENCODING 204
SWIDTH 392 0
DWIDTH 10 0
BBX 10 20 0 -6
BITMAP
3000
1800
0C00
0000
7F80
0C00
0C00
0C00
0C00
0C00
0C00
0C00
0C00
7F80
0000
0000
0000
0000
0000
0000
ENDCHAR

STARTCHAR U+00CD
ENCODING 205
SWIDTH 392 0
DWIDTH 10 0
BBX 10 20 0 -6
BITMAP
0300
0600
0C00
0000
7F80
0C00
0C00
0C00
0C00
0C00
0C00
0C00
0C00
7F80
0000
0000
0000
0000
0000
0000
ENDCHAR

STARTCHAR U+00CE
ENCODING 206
SWIDTH 392 0
DWIDTH 10 0
BBX 10 20 0 -6
BITMAP
0800
1C00
3600
0000
7F80
0C00
0C00
0C00
0C00
0C00
0C00
0C00
0C00
7F80
0000
0000
0000
0000
0000
0000
ENDCHAR

STARTCHAR U+00CF
ENCODING 207
SWIDTH 392 0
DWIDTH 10 0
BBX 10 20 0 -6
BITMAP
0000
6600
6600
0000
7F80
0C00
0C00
0C00
0C00
0C00
0C00
0C00
0C00
7F80
0000
0000
0000
0000
0000
0000
ENDCHAR

STARTCHAR U+00D0
ENCODING 208
SWIDTH 392 0
DWIDTH 10 0
BBX 10 20 0 -6
BITMAP
0000
0000
0000
0000
3E00
3300
3180
3180
7980
3180
3180
3180
3300
3E00
0000
0000
0000
0000
0000
0000
ENDCHAR

STARTCHAR U+00D1
ENCODING 209
SWIDTH 392 0
DWIDTH 10 0
BBX 10 20 0 -6
BITMAP
3300
6B00
6600
0000
6180
7180
7980
6D80
6780
6380
6180
6180
6180
6180
0000
0000
0000
0000
0000
0000
ENDCHAR

STARTCHAR U+00D2
ENCODING 210
SWIDTH 392 0
DWIDTH 10 0
BBX 10 20 0 -6
BITMAP
3000
1800
0C00
0000
3E00
6300
6300
6300
6300
6300
6300
6300
6300
3E00
0000
0000
0000
0000
0000
0000
ENDCHAR

STARTCHAR U+00D3
ENCODING 211
SWIDTH 392 0
DWIDTH 10 0
BBX 10 20 0 -6
BITMAP
0300
0600
0C00
0000
3E00
6300
6300
6300
6300
6300
6300
6300
6300
3E00
0000
0000
0000
0000
0000
0000
ENDCHAR

STARTCHAR U+00D4
ENCODING 212
SWIDTH 392 0
DWIDTH 10 0
BBX 10 20 0 -6
BITMAP
0800
1C00
3600
0000
3E00
6300
6300
6300
6300
6300
6300
6300
6300
3E00
0000
0000
0000
0000
0000
0000
ENDCHAR

STARTCHAR U+00D5
ENCODING 213
SWIDTH 392 0
DWIDTH 10 0
BBX 10 20 0 -6
BITMAP
3300
6B00
6600
0000
3E00
6300
6300
6300
6300
6300
6300
6300
6300
3E00
0000
0000
0000
0000
0000
0000
ENDCHAR

STARTCHAR U+00D6
ENCODING 214
SWIDTH 392 0
DWIDTH 10 0
BBX 10 20 0 -6
BITMAP
0000
6600
6600
0000
3E00
6300
6300
6300
6300
6300
6300
6300
6300
3E00
0000
0000
0000
0000
0000
0000
ENDCHAR

STARTCHAR U+00D7
ENCODING 215
SWIDTH 392 0
DWIDTH 10 0
BBX 10 20 0 -6
BITMAP
0000
0000
0000
0000
0000
0000
0000
6300
3600
1C00
1C00
3600
6300
0000
0000
0000
0000
0000
0000
0000
ENDCHAR

STARTCHAR U+00D8
ENCODING 216
SWIDTH 392 0
DWIDTH 10 0
BBX 10 20 0 -6
BITMAP
0000
0000
0000
0300
3E00
6300
6300
6700
6F00
7B00
7300
6300
6300
3E00
6000
0000
0000
0000
0000
0000
ENDCHAR

STARTCHAR U+00D9
ENCODING 217
SWIDTH 392 0
DWIDTH 10 0
BBX 10 20 0 -6
BITMAP
6000
3000
1800
0000
6300
6300
6300
6300
6300
6300
6300
6300
6300
3E00
0000
0000
0000
0000
0000
0000
ENDCHAR

STARTCHAR U+00DA
ENCODING 218
SWIDTH 392 0
DWIDTH 10 0
BBX 10 20 0 -6
BITMAP
0300
0600
0C00
0000
6300
6300
6300
6300
6300
6300
6300
6300
6300
3E00
0000
0000
0000
0000
0000
0000
ENDCHAR

STARTCHAR U+00DB
ENCODING 219
SWIDTH 392 0
DWIDTH 10 0
BBX 10 20 0 -6
BITMAP
0800
1C00
3600
0000
6300
6300
6300
6300
6300
6300
6300
6300
6300
3E00
0000
0000
0000
0000
0000
0000
ENDCHAR

STARTCHAR U+00DC
ENCODING 220
SWIDTH 392 0
DWIDTH 10 0
BBX 10 20 0 -6
BITMAP
0000
6600
6600
0000
6300
6300
6300
6300
6300
6300
6300
6300
6300
3E00
0000
0000
0000
0000
0000
0000
ENDCHAR

STARTCHAR U+00DD
ENCODING 221
SWIDTH 392 0
DWIDTH 10 0
BBX 10 20 0 -6
BITMAP
0300
0600
0C00
0000
6180
6180
6180
3300
1E00
0C00
0C00
0C00
0C00
0C00
0000
0000
0000
0000
0000
0000
ENDCHAR

STARTCHAR U+00DE
ENCODING 222
SWIDTH 392 0
DWIDTH 10 0
BBX 10 20 0 -6
BITMAP
0000
0000
0000
0000
6000
6000
7E00
6300
6300
6300
6300
7E00
6000
6000
0000
0000
0000
0000
0000
0000
ENDCHAR

STARTCHAR U+00DF
ENCODING 223
SWIDTH 392 0
DWIDTH 10 0
BBX 10 20 0 -6
BITMAP
0000
0000
0000
0000
3E00
6300
6300
6600
6E00
6300
6300
6300
6300
6600
0000
0000
0000
0000
0000
0000
ENDCHAR

STARTCHAR U+00E0
ENCODING 224
SWIDTH 392 0
DWIDTH 10 0
BBX 10 20 0 -6
BITMAP
0000
6000
3000
1800
0000
0000
3E00
0300
0300
3F00
6300
6300
6300
3F00
0000
0000
0000
0000
0000
0000
ENDCHAR

STARTCHAR U+00E1
ENCODING 225
SWIDTH 392 0
DWIDTH 10 0
BBX 10 20 0 -6
BITMAP
0000
0300
0600
0C00
0000
0000
3E00
0300
0300
3F00
6300
6300
6300
3F00
0000
0000
0000
0000
0000
0000
ENDCHAR

STARTCHAR U+00E2
ENCODING 226
SWIDTH 392 0
DWIDTH 10 0
BBX 10 20 0 -6
BITMAP
0000
0800
1C00
3600
0000
0000
3E00
0300
0300
3F00
6300
6300
6300
3F00
0000
0000
0000
0000
0000
0000
ENDCHAR

STARTCHAR U+00E3
ENCODING 227
SWIDTH 392 0
DWIDTH 10 0
BBX 10 20 0 -6
BITMAP
0000
3300
6B00
6600
0000
0000
3E00
0300
0300
3F00
6300
6300
6300
3F00
0000
0000
0000
0000
0000
0000
ENDCHAR

STARTCHAR U+00E4
ENCODING 228
SWIDTH 392 0
DWIDTH 10 0
BBX 10 20 0 -6
BITMAP
0000
0000
3300
3300
0000
0000
3E00
0300
0300
3F00
6300
6300
6300
3F00
0000
0000
0000
0000
0000
0000
ENDCHAR

STARTCHAR U+00E5
ENCODING 229
SWIDTH 392 0
DWIDTH 10 0
BBX 10 20 0 -6
BITMAP
0000
1C00
3600
3600
1C00
0000
3E00
0300
0300
3F00
6300
6300
6300
3F00
0000
0000
0000
0000
0000
0000
ENDCHAR

STARTCHAR U+00E6
ENCODING 230
SWIDTH 392 0
DWIDTH 10 0
BBX 10 20 0 -6
BITMAP
0000
0000
0000
0000
0000
0000
7B80
0CC0
0CC0
7FC0
CC00
CC00
CC00
77C0
0000
0000
0000
0000
0000
0000
ENDCHAR

STARTCHAR U+00E7
ENCODING 231
SWIDTH 392 0
DWIDTH 10 0
BBX 10 20 0 -6
BITMAP
0000
0000
0000
0000
0000
0000
3E00
6300
6000
6000
6000
6000
6300
3E00
0C00
0C00
0C00
3800
0000
0000
ENDCHAR

STARTCHAR U+00E8
ENCODING 232
SWIDTH 392 0
DWIDTH 10 0
BBX 10 20 0 -6
BITMAP
0000
6000
3000
1800
0000
0000
3E00
6300
6300
7F00
6000
6000
6000
3F00
0000
0000
0000
0000
0000
0000
ENDCHAR

STARTCHAR U+00E9
ENCODING 233
SWIDTH 392 0
DWIDTH 10 0
BBX 10 20 0 -6
BITMAP
0000
0300
0600
0C00
0000
0000
3E00
6300
6300
7F00
6000
6000
6000
3F00
0000
0000
0000
0000
0000
0000
ENDCHAR

STARTCHAR U+00EA
ENCODING 234
SWIDTH 392 0
DWIDTH 10 0
BBX 10 20 0 -6
BITMAP
0000
0800
1C00
3600
0000
0000
3E00
6300
6300
7F00
6000
6000
6000
3F00
0000
0000
0000
0000
0000
0000
ENDCHAR

STARTCHAR U+00EB
ENCODING 235
SWIDTH 392 0
DWIDTH 10 0
BBX 10 20 0 -6
BITMAP
0000
0000
3300
3300
0000
0000
3E00
6300
6300
7F00
6000
6000
6000
3F00
0000
0000
0000
0000
0000
0000
ENDCHAR

STARTCHAR U+00EC
ENCODING 236
SWIDTH 392 0
DWIDTH 10 0
BBX 10 20 0 -6
BITMAP
0000
3000
1800
0C00
0000
0000
7C00
0C00
0C00
0C00
0C00
0C00
0C00
7F80
0000
0000
0000
0000
0000
0000
ENDCHAR

STARTCHAR U+00ED
ENCODING 237
SWIDTH 392 0
DWIDTH 10 0
BBX 10 20 0 -6
BITMAP
0000
0300
0600
0C00
0000
0000
7C00
0C00
0C00
0C00
0C00
0C00
0C00
7F80
0000
0000
0000
0000
0000
0000
ENDCHAR

STARTCHAR U+00EE
ENCODING 238
SWIDTH 392 0
DWIDTH 10 0
BBX 10 20 0 -6
BITMAP
0000
0800
1C00
3600
0000
0000
7C00
0C00
0C00
0C00
0C00
0C00
0C00
7F80
0000
0000
0000
0000
0000
0000
ENDCHAR

STARTCHAR U+00EF
ENCODING 239
SWIDTH 392 0
DWIDTH 10 0
BBX 10 20 0 -6
BITMAP
0000
0000
6600
6600
0000
0000
7C00
0C00
0C00
0C00
0C00
0C00
0C00
7F80
0000
0000
0000
0000
0000
0000
ENDCHAR

STARTCHAR U+00F0
ENCODING 240
SWIDTH 392 0
DWIDTH 10 0
BBX 10 20 0 -6
BITMAP
0000
0000
1880
0F00
3E00
0300
1F80
3180
6180
6180
6180
6180
3300
1E00
0000
0000
0000
0000
0000
0000
ENDCHAR

STARTCHAR U+00F1
ENCODING 241
SWIDTH 392 0
DWIDTH 10 0
BBX 10 20 0 -6
BITMAP
0000
3300
6B00
6600
0000
0000
7E00
6300
6300
6300
6300
6300
6300
6300
0000
0000
0000
0000
0000
0000
ENDCHAR

STARTCHAR U+00F2
ENCODING 242
SWIDTH 392 0
DWIDTH 10 0
BBX 10 20 0 -6
BITMAP
0000
3000
1800
0C00
0000
0000
3E00
6300
6300
6300
6300
6300
6300
3E00
0000
0000
0000
0000
0000
0000
ENDCHAR

STARTCHAR U+00F3
ENCODING 243
SWIDTH 392 0
DWIDTH 10 0
BBX 10 20 0 -6
BITMAP
0000
0300
0600
0C00
0000
0000
3E00
6300
6300
6300
6300
6300
6300
3E00
0000
0000
0000
0000
0000
0000
ENDCHAR

STARTCHAR U+00F4
ENCODING 244
SWIDTH 392 0
DWIDTH 10 0
BBX 10 20 0 -6
BITMAP
0000
0800
1C00
3600
0000
0000
3E00
6300
6300
6300
6300
6300
6300
3E00
0000
0000
0000
0000
0000
0000
ENDCHAR

STARTCHAR U+00F5
ENCODING 245
SWIDTH 392 0
DWIDTH 10 0
BBX 10 20 0 -6
BITMAP
0000
3300
6B00
6600
0000
0000
3E00
6300
6300
6300
6300
6300
6300
3E00
0000
0000
0000
0000
0000
0000
ENDCHAR

STARTCHAR U+00F6
ENCODING 246
SWIDTH 392 0
DWIDTH 10 0
BBX 10 20 0 -6
BITMAP
0000
0000
6600
6600
0000
0000
3E00
6300
6300
6300
6300
6300
6300
3E00
0000
0000
0000
0000
0000
0000
ENDCHAR

STARTCHAR U+00F7
ENCODING 247
SWIDTH 392 0
DWIDTH 10 0
BBX 10 20 0 -6
BITMAP
0000
0000
0000
0000
0C00
0C00
0000
0000
7F80
0000
0000
0C00
0C00
0000
0000
0000
0000
0000
0000
0000
ENDCHAR

STARTCHAR U+00F8
ENCODING 248
SWIDTH 392 0
DWIDTH 10 0
BBX 10 20 0 -6
BITMAP
0000
0000
0000
0000
0000
0300
3E00
6300
6700
6F00
7B00
7300
6300
3E00
6000
0000
0000
0000
0000
0000
ENDCHAR

STARTCHAR U+00F9
ENCODING 249
SWIDTH 392 0
DWIDTH 10 0
BBX 10 20 0 -6
BITMAP
0000
6000
3000
1800
0000
0000
6300
6300
6300
6300
6300
6300
6300
3F00
0000
0000
0000
0000
0000
0000
ENDCHAR

STARTCHAR U+00FA
ENCODING 250
SWIDTH 392 0
DWIDTH 10 0
BBX 10 20 0 -6
BITMAP
0000
0300
0600
0C00
0000
0000
6300
6300
6300
6300
6300
6300
6300
3F00
0000
0000
0000
0000
0000
0000
ENDCHAR

STARTCHAR U+00FB
ENCODING 251
SWIDTH 392 0
DWIDTH 10 0
BBX 10 20 0 -6
BITMAP
0000
0800
1C00
3600
0000
0000
6300
6300
6300
6300
6300
6300
6300
3F00
0000
0000
0000
0000
0000
0000
ENDCHAR

STARTCHAR U+00FC
ENCODING 252
SWIDTH 392 0
DWIDTH 10 0
BBX 10 20 0 -6
BITMAP
0000
0000
6600
6600
0000
0000
6300
6300
6300
6300
6300
6300
6300
3F00
0000
0000
0000
0000
0000
0000
ENDCHAR

STARTCHAR U+00FD
ENCODING 253
SWIDTH 392 0
DWIDTH 10 0
BBX 10 20 0 -6
BITMAP
0000
0300
0600
0C00
0000
0000
6300
6300
6300
6300
6300
6300
6300
3F00
0300
0300
3E00
0000
0000
0000
ENDCHAR

STARTCHAR U+00FE
ENCODING 254
SWIDTH 392 0
DWIDTH 10 0
BBX 10 20 0 -6
BITMAP
0000
0000
0000
6000
6000
6000
6E00
7300
6180
6180
6180
6180
7300
6E00
6000
6000
6000
0000
0000
0000
ENDCHAR

STARTCHAR U+00FF
ENCODING 255
SWIDTH 392 0
DWIDTH 10 0
BBX 10 20 0 -6
BITMAP
0000
0000
6600
6600
0000
0000
6300
6300
6300
6300
6300
6300
6300
3F00
0300
0300
3E00
0000
0000
0000
ENDCHAR

ENDFONT
