<?xml version="1.0" encoding="UTF-8" standalone="no"?>
<!-- Creator: fig2dev Version 3.2 Patchlevel 5e -->

<!-- CreationDate: Tue Jul 21 08:44:38 2015 -->

<!-- Magnification: 1.050 -->

<svg
   xmlns:dc="http://purl.org/dc/elements/1.1/"
   xmlns:cc="http://creativecommons.org/ns#"
   xmlns:rdf="http://www.w3.org/1999/02/22-rdf-syntax-ns#"
   xmlns:svg="http://www.w3.org/2000/svg"
   xmlns="http://www.w3.org/2000/svg"
   xmlns:sodipodi="http://sodipodi.sourceforge.net/DTD/sodipodi-0.dtd"
   xmlns:inkscape="http://www.inkscape.org/namespaces/inkscape"
   width="5.4in"
   height="2.4in"
   viewBox="47 979 6532 2919"
   id="svg2"
   version="1.1"
   inkscape:version="0.91 r"
   sodipodi:docname="coordinates.svg">
  <metadata
     id="metadata126">
    <rdf:RDF>
      <cc:Work
         rdf:about="">
        <dc:format>image/svg+xml</dc:format>
        <dc:type
           rdf:resource="http://purl.org/dc/dcmitype/StillImage" />
        <dc:title></dc:title>
      </cc:Work>
    </rdf:RDF>
  </metadata>
  <defs
     id="defs124" />
  <sodipodi:namedview
     pagecolor="#ffffff"
     bordercolor="#666666"
     borderopacity="1"
     objecttolerance="10"
     gridtolerance="10"
     guidetolerance="10"
     inkscape:pageopacity="1"
     inkscape:pageshadow="2"
     inkscape:window-width="1087"
     inkscape:window-height="712"
     id="namedview122"
     showgrid="false"
     inkscape:zoom="1.308642"
     inkscape:cx="271.64675"
     inkscape:cy="120.95634"
     inkscape:window-x="0"
     inkscape:window-y="0"
     inkscape:window-maximized="0"
     inkscape:current-layer="svg2" />
  <g
     style="stroke-width:.025in; fill:none"
     id="g4">
    <!-- Line -->
    <polyline
       points="4677,1606 4679,1607 4683,1608 4690,1610 4703,1613 4719,1618 4739,1625 4762,1632 4788,1640 4816,1650 4847,1660 4877,1672 4910,1683 4941,1696 4974,1710 5006,1724 5038,1740 5070,1757 5103,1776 5135,1797 5167,1819 5196,1842 5231,1875 5256,1904 5272,1929 5279,1949 5278,1965 5273,1977 5262,1987 5252,1995 5239,2004 5230,2013 5224,2024 5222,2038 5227,2056 5239,2077 5261,2101 5291,2125 5318,2143 5345,2158 5373,2171 5397,2180 5419,2187 5438,2192 5455,2195 5469,2196 5483,2197 5496,2196 5508,2196 5522,2196 5537,2196 5554,2197 5574,2199 5597,2201 5624,2205 5653,2209 5685,2215 5716,2220 5763,2226 5798,2230 5821,2232 5834,2232 5840,2229 5842,2227 5843,2225 5846,2223 5854,2222 5866,2221 5885,2220 5905,2220 5910,2220 5914,2220 5919,2220 5923,2220 5927,2220 5930,2220 5933,2220 5937,2220 5939,2220 5941,2220 5943,2220 5945,2220 5946,2220 5948,2220 5949,2220 5950,2220 5951,2220 5952,2220 5953,2220 5954,2220 5953,2220 5952,2220 "
       style="stroke:#000000;stroke-width:63; stroke-linejoin:bevel; stroke-linecap:butt; "
       id="polyline6" />
    <!-- Line -->
    <polyline
       points="4677,2503 4679,2503 4682,2502 4688,2501 4698,2499 4710,2496 4726,2493 4744,2489 4765,2485 4787,2479 4811,2475 4836,2469 4864,2464 4891,2457 4921,2451 4953,2444 4986,2435 5023,2427 5062,2418 5102,2409 5146,2398 5185,2389 5217,2381 5243,2373 5261,2368 5274,2364 5282,2360 5288,2356 5291,2353 5294,2351 5299,2348 5308,2345 5320,2342 5339,2338 5364,2332 5397,2326 5436,2320 5480,2314 5520,2310 5559,2307 5595,2305 5629,2303 5660,2303 5691,2302 5718,2303 5745,2303 5771,2304 5795,2306 5817,2307 5838,2308 5856,2310 5871,2311 5884,2312 5893,2313 5900,2314 5903,2314 5905,2314 "
       style="stroke:#000000;stroke-width:63; stroke-linejoin:bevel; stroke-linecap:butt; "
       id="polyline8" />
    <!-- Line -->
    <polyline
       points="4677,3354 4678,3353 4680,3351 4684,3346 4691,3339 4700,3331 4710,3319 4723,3307 4737,3292 4752,3275 4768,3258 4785,3239 4803,3219 4822,3197 4841,3174 4862,3149 4885,3122 4909,3091 4934,3058 4960,3023 4985,2987 5008,2955 5028,2924 5044,2898 5056,2875 5064,2857 5069,2841 5072,2828 5074,2817 5075,2807 5076,2796 5077,2786 5080,2774 5085,2761 5095,2746 5107,2728 5123,2708 5144,2687 5169,2665 5196,2645 5232,2624 5265,2611 5293,2603 5315,2601 5333,2603 5346,2609 5357,2617 5365,2625 5375,2635 5385,2643 5398,2650 5415,2656 5437,2658 5463,2657 5495,2653 5527,2645 5562,2634 5590,2622 5610,2612 5624,2601 5630,2593 5633,2585 5633,2578 5634,2572 5636,2563 5641,2555 5652,2543 5668,2532 5690,2517 5716,2503 5746,2489 5775,2478 5799,2471 5821,2466 5840,2461 5858,2459 5874,2457 5886,2457 5897,2456 5902,2456 5905,2456 "
       style="stroke:#000000;stroke-width:63; stroke-linejoin:bevel; stroke-linecap:butt; "
       id="polyline10" />
    <!-- Line -->
    <polyline
       points="2031,1653 2362,1653 "
       style="stroke:#000000;stroke-width:63; stroke-linejoin:bevel; stroke-linecap:butt; "
       id="polyline12" />
    <!-- Line -->
    <polyline
       points="2031,2503 2362,2503 "
       style="stroke:#000000;stroke-width:63; stroke-linejoin:bevel; stroke-linecap:butt; "
       id="polyline14" />
    <!-- Line -->
    <polyline
       points="2031,3354 2362,3354 "
       style="stroke:#000000;stroke-width:63; stroke-linejoin:bevel; stroke-linecap:butt; "
       id="polyline16" />
    <!-- Line -->
    <polyline
       points="2787,3354 3118,3354 "
       style="stroke:#000000;stroke-width:63; stroke-linejoin:bevel; stroke-linecap:butt; "
       id="polyline18" />
    <!-- Line -->
    <polyline
       points="2787,2503 3118,2503 "
       style="stroke:#000000;stroke-width:63; stroke-linejoin:bevel; stroke-linecap:butt; "
       id="polyline20" />
    <!-- Line -->
    <polyline
       points="2787,1653 3118,1653 "
       style="stroke:#000000;stroke-width:63; stroke-linejoin:bevel; stroke-linecap:butt; "
       id="polyline22" />
    <!-- Line -->
    <polyline
       points="3921,1653 4251,1653 "
       style="stroke:#000000;stroke-width:63; stroke-linejoin:bevel; stroke-linecap:butt; "
       id="polyline24" />
    <!-- Line -->
    <polyline
       points="3921,2503 4251,2503 "
       style="stroke:#000000;stroke-width:63; stroke-linejoin:bevel; stroke-linecap:butt; "
       id="polyline26" />
    <!-- Line -->
    <polyline
       points="3921,3354 4251,3354 "
       style="stroke:#000000;stroke-width:63; stroke-linejoin:bevel; stroke-linecap:butt; "
       id="polyline28" />
    <!-- Line: box -->
    <rect
       x="1370"
       y="1322"
       width="708"
       height="661"
       rx="0"
       style="stroke:#000000;stroke-width:8; stroke-linejoin:miter; stroke-linecap:butt; fill:#ffffff; "
       id="rect30" />
    <!-- Line: box -->
    <rect
       x="2314"
       y="1322"
       width="708"
       height="661"
       rx="0"
       style="stroke:#000000;stroke-width:8; stroke-linejoin:miter; stroke-linecap:butt; fill:#ffffff; "
       id="rect32" />
    <!-- Line: box -->
    <rect
       x="4015"
       y="1322"
       width="708"
       height="661"
       rx="0"
       style="stroke:#000000;stroke-width:8; stroke-linejoin:miter; stroke-linecap:butt; fill:#ffffff; "
       id="rect34" />
    <!-- Line: box -->
    <rect
       x="1370"
       y="2173"
       width="708"
       height="661"
       rx="0"
       style="stroke:#000000;stroke-width:8; stroke-linejoin:miter; stroke-linecap:butt; fill:#ffffff; "
       id="rect36" />
    <!-- Line: box -->
    <rect
       x="2314"
       y="2173"
       width="708"
       height="661"
       rx="0"
       style="stroke:#000000;stroke-width:8; stroke-linejoin:miter; stroke-linecap:butt; fill:#ffffff; "
       id="rect38" />
    <!-- Line: box -->
    <rect
       x="4015"
       y="2173"
       width="708"
       height="661"
       rx="0"
       style="stroke:#000000;stroke-width:8; stroke-linejoin:miter; stroke-linecap:butt; fill:#ffffff; "
       id="rect40" />
    <!-- Line: box -->
    <rect
       x="4015"
       y="3023"
       width="708"
       height="661"
       rx="0"
       style="stroke:#000000;stroke-width:8; stroke-linejoin:miter; stroke-linecap:butt; fill:#ffffff; "
       id="rect42" />
    <!-- Line: box -->
    <rect
       x="2314"
       y="3023"
       width="708"
       height="661"
       rx="0"
       style="stroke:#000000;stroke-width:8; stroke-linejoin:miter; stroke-linecap:butt; fill:#ffffff; "
       id="rect44" />
    <!-- Line: box -->
    <rect
       x="1370"
       y="3023"
       width="708"
       height="661"
       rx="0"
       style="stroke:#000000;stroke-width:8; stroke-linejoin:miter; stroke-linecap:butt; fill:#ffffff; "
       id="rect46" />
    <!-- Circle -->
    <circle
       cx="3307"
       cy="3354"
       r="47"
       style="fill:#000000;stroke:#000000;stroke-width:8;"
       id="circle48" />
    <!-- Circle -->
    <circle
       cx="3543"
       cy="3354"
       r="47"
       style="fill:#000000;stroke:#000000;stroke-width:8;"
       id="circle50" />
    <!-- Circle -->
    <circle
       cx="3779"
       cy="3354"
       r="47"
       style="fill:#000000;stroke:#000000;stroke-width:8;"
       id="circle52" />
    <!-- Circle -->
    <circle
       cx="3259"
       cy="1653"
       r="47"
       style="fill:#000000;stroke:#000000;stroke-width:8;"
       id="circle54" />
    <!-- Circle -->
    <circle
       cx="3496"
       cy="1653"
       r="47"
       style="fill:#000000;stroke:#000000;stroke-width:8;"
       id="circle56" />
    <!-- Circle -->
    <circle
       cx="3732"
       cy="1653"
       r="47"
       style="fill:#000000;stroke:#000000;stroke-width:8;"
       id="circle58" />
    <!-- Circle -->
    <circle
       cx="3259"
       cy="2503"
       r="47"
       style="fill:#000000;stroke:#000000;stroke-width:8;"
       id="circle60" />
    <!-- Circle -->
    <circle
       cx="3496"
       cy="2503"
       r="47"
       style="fill:#000000;stroke:#000000;stroke-width:8;"
       id="circle62" />
    <!-- Circle -->
    <circle
       cx="3732"
       cy="2503"
       r="47"
       style="fill:#000000;stroke:#000000;stroke-width:8;"
       id="circle64" />
    <!-- Line: box -->
    <rect
       x="5527"
       y="2078"
       width="566"
       height="803"
       rx="0"
       style="stroke:#000000;stroke-width:8; stroke-linejoin:miter; stroke-linecap:butt; "
       id="rect66" />
    <!-- Line: box -->
    <rect
       x="6000"
       y="2125"
       width="47"
       height="472"
       rx="0"
       style="stroke:#000000;stroke-width:8; stroke-linejoin:miter; stroke-linecap:butt; "
       id="rect68" />
    <!-- Line: box -->
    <rect
       x="5574"
       y="2740"
       width="377"
       height="141"
       rx="0"
       style="stroke:#000000;stroke-width:8; stroke-linejoin:miter; stroke-linecap:butt; "
       id="rect70" />
    <!-- Line: box -->
    <rect
       x="5763"
       y="2125"
       width="188"
       height="472"
       rx="0"
       style="stroke:#000000;stroke-width:8; stroke-linejoin:miter; stroke-linecap:butt; fill:#000000; "
       id="rect72" />
    <!-- Line -->
    <polyline
       points="1228,2096 1228,3005 "
       style="stroke:#000000;stroke-width:8; stroke-linejoin:miter; stroke-linecap:butt; "
       id="polyline74" />
    <!-- Arrowhead on XXXpoint 1228 2078 - 1228 3039-->
    <polyline
       points="1196 2895 1228 3021 1259 2895 "
       style="stroke:#000000;stroke-width:8;stroke-miterlimit:8; "
       id="polyline76" />
    <!-- Arrowhead on XXXpoint 1228 3023 - 1228 2062-->
    <polyline
       points="1259 2206 1228 2080 1196 2206 "
       style="stroke:#000000;stroke-width:8;stroke-miterlimit:8; "
       id="polyline78" />
    <!-- Line -->
    <polyline
       points="2143,1181 3336,1181 "
       style="stroke:#000000;stroke-width:8; stroke-linejoin:miter; stroke-linecap:butt; "
       id="polyline80" />
    <!-- Arrowhead on XXXpoint 2125 1181 - 3370 1181-->
    <polyline
       points="3226 1212 3352 1181 3226 1149 "
       style="stroke:#000000;stroke-width:8;stroke-miterlimit:8; "
       id="polyline82" />
    <!-- Arrowhead on XXXpoint 3354 1181 - 2110 1181-->
    <polyline
       points="2254 1149 2128 1181 2254 1212 "
       style="stroke:#000000;stroke-width:8;stroke-miterlimit:8; "
       id="polyline84" />
    <!-- Line -->
    <polyline
       points="1480,1370 1968,1370 "
       style="stroke:#000000;stroke-width:8; stroke-linejoin:miter; stroke-linecap:butt; "
       id="polyline86" />
    <!-- Arrowhead on XXXpoint 1417 1370 - 2047 1370-->
    <polygon
       points="1975 1385 2038 1370 1975 1354 1975 1385  "
       style="stroke:#000000;stroke-width:4;stroke-miterlimit:8; fill:#000000;"
       id="polygon88" />
    <!-- Arrowhead on XXXpoint 2031 1370 - 1401 1370-->
    <polygon
       points="1472 1354 1409 1370 1472 1385 1472 1354  "
       style="stroke:#000000;stroke-width:4;stroke-miterlimit:8; fill:#000000;"
       id="polygon90" />
    <!-- Line -->
    <polyline
       points="2409,1433 2409,1874 "
       style="stroke:#000000;stroke-width:8; stroke-linejoin:miter; stroke-linecap:butt; "
       id="polyline92" />
    <!-- Arrowhead on XXXpoint 2409 1370 - 2409 1952-->
    <polygon
       points="2393 1881 2409 1944 2425 1881 2393 1881  "
       style="stroke:#000000;stroke-width:4;stroke-miterlimit:8; fill:#000000;"
       id="polygon94" />
    <!-- Arrowhead on XXXpoint 2409 1937 - 2409 1354-->
    <polygon
       points="2425 1425 2409 1362 2393 1425 2425 1425  "
       style="stroke:#000000;stroke-width:4;stroke-miterlimit:8; fill:#000000;"
       id="polygon96" />
    <!-- Text -->
    <text
       xml:space="preserve"
       x="1370"
       y="1228"
       fill="#000000"
       font-family="Helvetica"
       font-style="normal"
       font-weight="normal"
       font-size="152"
       text-anchor="middle"
       id="text98">(0,0)</text>
    <!-- Text -->
    <text
       xml:space="preserve"
       x="1322"
       y="1937"
       fill="#000000"
       font-family="Helvetica"
       font-style="normal"
       font-weight="normal"
       font-size="152"
       text-anchor="end"
       id="text100">(0, rows - 1)</text>
    <!-- Text -->
    <text
       xml:space="preserve"
       x="1370"
       y="3826"
       fill="#000000"
       font-family="Helvetica"
       font-style="normal"
       font-weight="normal"
       font-size="152"
       text-anchor="middle"
       id="text102">(0, rows * parallel - 1)</text>
    <!-- Text -->
    <text
       xml:space="preserve"
       x="4677"
       y="1181"
       fill="#000000"
       font-family="Helvetica"
       font-style="normal"
       font-weight="normal"
       font-size="152"
       text-anchor="middle"
       id="text104">(32 * chain,0)</text>
    <!-- Text -->
    <text
       xml:space="preserve"
       x="4771"
       y="3826"
       fill="#000000"
       font-family="Helvetica"
       font-style="normal"
       font-weight="normal"
       font-size="152"
       text-anchor="middle"
       id="text106">(32 * chain - 1, rows * parallel - 1)</text>
    <!-- Text -->
    <text
       xml:space="preserve"
       x="2692"
       y="1133"
       fill="#000000"
       font-family="Helvetica"
       font-style="normal"
       font-weight="normal"
       font-size="152"
       text-anchor="middle"
       id="text108">chain length</text>
    <!-- Text -->
    <g
       transform="translate(1133,2551) rotate(-90.00021046)"
       id="g110">
      <text
         xml:space="preserve"
         x="0"
         y="0"
         fill="#000000"
         font-family="Helvetica"
         font-style="normal"
         font-weight="normal"
         font-size="152"
         text-anchor="middle"
         id="text112">parallel count</text>
    </g>
    <!-- Text -->
    <text
       xml:space="preserve"
       x="1700"
       y="1511"
       fill="#000000"
       font-family="Helvetica"
       font-style="normal"
       font-weight="normal"
       font-size="126"
       text-anchor="middle"
       id="text114">32 pixel</text>
    <!-- Text -->
    <text
       xml:space="preserve"
       x="2503"
       y="1606"
       fill="#000000"
       font-family="Helvetica"
       font-style="normal"
       font-weight="normal"
       font-size="126"
       text-anchor="start"
       id="text116">rows</text>
    <!-- Text -->
    <text
       xml:space="preserve"
       x="2503"
       y="1811"
       fill="#000000"
       font-family="Helvetica"
       font-style="normal"
       font-weight="normal"
       font-size="76"
       text-anchor="start"
       id="text118">(16 or 32)</text>
    <!-- Text -->
    <text
       xml:space="preserve"
       x="5763"
       y="3070"
       fill="#000000"
       font-family="Helvetica"
       font-style="normal"
       font-weight="bold"
       font-size="152"
       text-anchor="start"
       id="text120">Pi</text>
  </g>
</svg>
